<?xml version="1.0" encoding="UTF-8"?>
<svg version="1.1" xmlns="http://www.w3.org/2000/svg" width="512" height="512">
<path d="M0 0 C7.67872123 3.07148849 12.49723136 12.64014223 15.921875 19.6796875 C18.82051825 26.99786706 18.48431321 34.23821111 17.1875 41.875 C22.1375 42.205 27.0875 42.535 32.1875 42.875 C33.1875 47.875 33.1875 47.875 32 50.41796875 C31.401875 51.29066406 30.80375 52.16335937 30.1875 53.0625 C29.54039062 54.02800781 28.89328125 54.99351562 28.2265625 55.98828125 C26.95170927 57.7931022 25.6577189 59.58472785 24.3359375 61.35546875 C17.36821366 70.76343068 13.29228776 81.09876954 12.87109375 92.83203125 C12.82919922 93.94384766 12.78730469 95.05566406 12.74414062 96.20117188 C12.70482422 97.35166016 12.66550781 98.50214844 12.625 99.6875 C12.56022461 101.44223633 12.56022461 101.44223633 12.49414062 103.23242188 C12.38831721 106.11317031 12.28623175 108.99400123 12.1875 111.875 C13.8375 111.875 15.4875 111.875 17.1875 111.875 C17.5278125 110.90046875 17.5278125 110.90046875 17.875 109.90625 C25.0203633 93.40386333 37.13499342 78.96768538 49.1875 65.875 C50.35901654 64.54592593 51.52594606 63.21278972 52.6875 61.875 C55.23612973 58.946414 57.82738525 56.06140294 60.4375 53.1875 C68.58624267 44.13488656 76.44139832 35.03721274 83.1875 24.875 C84.06998156 23.55707001 84.95282238 22.23938054 85.8359375 20.921875 C88.29595011 17.24583587 90.74415712 13.56213715 93.1875 9.875 C101.54833093 17.86697074 101.73387345 25.73768599 102.1875 36.875 C102.85652344 36.58367187 103.52554687 36.29234375 104.21484375 35.9921875 C107.52343571 34.57992945 110.84819699 33.21261854 114.1875 31.875 C114.81398438 31.62379395 115.44046875 31.37258789 116.0859375 31.11376953 C136.13151224 23.21931502 156.68942656 21.19929583 178.00390625 19.44482422 C190.65216774 18.3644764 203.4765567 16.85422621 215.54541016 12.7265625 C218.53786999 11.76207351 220.20687094 11.99834439 223.1875 12.875 C222.66072742 18.60929583 221.05813297 23.08275623 218.5625 28.25 C218.02290649 29.37643921 218.02290649 29.37643921 217.47241211 30.52563477 C214.6537124 36.24803569 211.45253344 41.11679353 207.1875 45.875 C206.53394531 46.68066406 205.88039063 47.48632812 205.20703125 48.31640625 C193.40851503 62.39296021 178.31804796 68.43817716 161.1875 73.875 C165.71394361 77.98597294 170.26805559 81.96974382 175.125 85.6875 C196.32877195 102.65708219 206.02195371 128.04716891 209.875 154.3125 C209.99439941 155.12130615 210.11379883 155.9301123 210.23681641 156.76342773 C212.00102231 169.74476624 212.3002415 182.84525771 212.57537842 195.92507935 C213.02240715 216.30667513 213.57175316 236.77771658 217.22216797 256.88110352 C218.0224029 261.31741237 218.31661188 265.39129643 218.1875 269.875 C205.50843998 269.2614971 196.11087313 262.8125895 187.28515625 253.96875 C177.14127663 242.74377664 158.1875 219.13861831 158.1875 202.875 C153.97303952 204.7945172 150.96174984 206.80554373 147.6875 210.0625 C133.98877444 222.67272113 118.29574721 227.8052361 99.875 227.1953125 C94.32924186 226.8889292 89.34462634 225.97699704 84.1875 223.875 C83.36507813 223.54628906 82.54265625 223.21757812 81.6953125 222.87890625 C66.84996307 216.19618665 57.02828368 204.51859829 51.09765625 189.6015625 C46.43337732 175.62874406 48.81032642 159.87141836 54.8125 146.75 C61.74058774 133.66361205 73.26417563 123.82805145 87.1875 118.875 C88.1775 118.875 89.1675 118.875 90.1875 118.875 C90.08091064 119.86342896 90.08091064 119.86342896 89.97216797 120.87182617 C87.16607275 144.26722968 87.16607275 144.26722968 95.1875 165.875 C97.56250791 168.75140616 97.56250791 168.75140616 100.1875 170.875 C100.97125 171.57625 101.755 172.2775 102.5625 173 C109.50480659 177.95879042 117.72404406 179.90748346 126.1875 178.875 C134.61171764 176.75073763 141.24163365 173.65521369 145.875 166.13671875 C152.75135571 153.12784388 153.96449365 140.55279537 150.2890625 126.24609375 C144.97029691 109.96916216 136.11446012 100.94701321 121.1875 92.875 C107.99462021 86.67184378 91.73518113 85.18785488 77.75 89.8125 C59.90787969 97.31043865 49.51943393 109.01719786 39.1875 124.875 C38.7661377 125.51566406 38.34477539 126.15632813 37.91064453 126.81640625 C27.55618589 142.70678892 20.87367319 158.82348341 24.3125 178 C28.86677991 199.00029068 39.43304348 217.36865253 51.91015625 234.65234375 C52.37107666 235.29212158 52.83199707 235.93189941 53.30688477 236.59106445 C54.21189344 237.84239298 55.12236246 239.08979449 56.03881836 240.33276367 C59.1875 244.65701912 59.1875 244.65701912 59.1875 246.875 C50.92716051 250.04230809 41.19211497 250.44316941 32.875 247.1875 C31.29751937 246.4478074 29.73496476 245.67558921 28.1875 244.875 C27.25292969 244.41996094 26.31835938 243.96492187 25.35546875 243.49609375 C22.95115173 242.31579267 20.56455471 241.10904543 18.1875 239.875 C18.15011719 240.60203125 18.11273438 241.3290625 18.07421875 242.078125 C17.2316551 254.96439261 15.04057393 267.76759215 5.1875 277 C1.65003803 279.21091373 0.26517851 279.79039722 -3.8125 278.875 C-10.78951656 275.09380508 -14.17062184 268.05610518 -16.8125 260.875 C-18.64837121 254.06656855 -20.05762659 246.94281676 -19.8125 239.875 C-20.92109375 240.44089844 -22.0296875 241.00679687 -23.171875 241.58984375 C-24.63530903 242.33094175 -26.09885667 243.07181544 -27.5625 243.8125 C-28.29210937 244.18568359 -29.02171875 244.55886719 -29.7734375 244.94335938 C-30.48242188 245.30107422 -31.19140625 245.65878906 -31.921875 246.02734375 C-32.57124023 246.35726318 -33.22060547 246.68718262 -33.88964844 247.02709961 C-38.29016286 248.96754991 -42.39969567 249.06766103 -47.1875 249.125 C-48.47398437 249.15078125 -49.76046875 249.1765625 -51.0859375 249.203125 C-55.02328501 248.85644031 -57.43225473 247.86337957 -60.8125 245.875 C-57.51197371 240.51984144 -54.15073478 235.28071144 -50.35180664 230.26245117 C-39.82409353 216.21083489 -31.27359127 199.89480319 -26.8125 182.875 C-26.57144531 181.99199219 -26.33039063 181.10898437 -26.08203125 180.19921875 C-21.84684904 162.3773446 -27.45508617 146.07299576 -36.57910156 130.85058594 C-48.5057435 111.747184 -61.23991196 96.51610724 -83.03515625 88.72265625 C-87.79342323 87.65487555 -92.26457933 87.54505413 -97.125 87.5625 C-98.4543457 87.53833008 -98.4543457 87.53833008 -99.81054688 87.51367188 C-115.25322711 87.50240807 -129.54390064 94.94497961 -140.5234375 105.5234375 C-149.16709757 114.86912073 -153.73715594 128.92788735 -154.25 141.5625 C-153.65962894 152.18917899 -150.56239275 163.36402415 -143.43359375 171.4921875 C-136.67776468 177.25499109 -128.51040286 179.4599917 -119.8125 178.875 C-109.96730823 177.67227151 -102.61089249 173.00548354 -96.50390625 165.203125 C-86.79878308 151.26460982 -89.74480464 134.62271558 -91.8125 118.875 C-82.77527505 119.98972378 -74.83343708 125.25825034 -67.8125 130.875 C-67.8125 131.535 -67.8125 132.195 -67.8125 132.875 C-67.1525 132.875 -66.4925 132.875 -65.8125 132.875 C-60.17943899 138.62157358 -56.65892652 145.43049987 -53.8125 152.875 C-53.33103516 154.10089844 -53.33103516 154.10089844 -52.83984375 155.3515625 C-48.69250914 167.81285626 -49.1468651 183.03505091 -54.8125 194.875 C-61.94528606 208.91446074 -73.00849855 219.18770736 -87.8125 224.875 C-104.03242647 229.54029003 -120.64757234 227.73597313 -135.5625 220.0625 C-141.8372753 216.4403265 -147.49515148 212.24501553 -152.5625 207.0625 C-154.89898278 204.79091952 -156.72978796 203.84385236 -159.8125 202.875 C-160.06447144 203.68747192 -160.06447144 203.68747192 -160.3215332 204.51635742 C-168.07660944 228.72663059 -182.93143527 254.3139223 -205.875 266.8125 C-210.54775094 269.01928253 -214.67246535 269.62628865 -219.8125 269.875 C-219.2906859 261.34603843 -218.18888351 252.94340795 -216.91674805 244.49755859 C-215.03506934 231.4676188 -214.70948054 218.33690526 -214.42462158 205.1953125 C-212.53751955 121.70787614 -212.53751955 121.70787614 -185.1875 94.0625 C-184.06493272 92.99743007 -182.93970093 91.93516475 -181.8125 90.875 C-181.03390625 90.08222656 -180.2553125 89.28945312 -179.453125 88.47265625 C-176.80210764 85.86477675 -174.06113529 83.48407249 -171.1875 81.125 C-170.24648437 80.34640625 -169.30546875 79.5678125 -168.3359375 78.765625 C-165.8125 76.875 -165.8125 76.875 -162.8125 75.875 C-162.8125 75.215 -162.8125 74.555 -162.8125 73.875 C-163.35551758 73.69960693 -163.89853516 73.52421387 -164.45800781 73.34350586 C-189.33274842 65.21947663 -206.59933419 53.9770918 -218.82495117 30.22192383 C-225.3387136 17.21674759 -225.3387136 17.21674759 -223.8125 11.875 C-219.0307111 12.47120269 -214.57075359 13.44214505 -209.9375 14.75 C-196.47306925 18.29267986 -182.46424574 19.22118242 -168.6484375 20.5859375 C-150.27339407 22.4203369 -132.8890082 24.50606752 -115.8125 31.875 C-113.54186576 32.81298209 -111.27103885 33.75049796 -109 34.6875 C-107.27006202 35.41483485 -105.54059031 36.14328608 -103.8125 36.875 C-103.71453125 35.740625 -103.6165625 34.60625 -103.515625 33.4375 C-102.05593317 18.17585532 -102.05593317 18.17585532 -97.8125 11.875 C-96.8225 11.215 -95.8325 10.555 -94.8125 9.875 C-93.83282924 11.27047958 -92.8538114 12.66641752 -91.875 14.0625 C-90.91013672 15.43535156 -90.91013672 15.43535156 -89.92578125 16.8359375 C-88.51050904 18.87120881 -87.11213082 20.91832669 -85.73046875 22.9765625 C-81.25701135 29.60211562 -76.56449374 35.75518572 -71.26660156 41.73754883 C-67.8125 45.67564494 -67.8125 45.67564494 -67.8125 47.875 C-67.1525 47.875 -66.4925 47.875 -65.8125 47.875 C-64.54296875 49.09765625 -64.54296875 49.09765625 -63 50.9375 C-62.37867188 51.6696875 -61.75734375 52.401875 -61.1171875 53.15625 C-60.35664063 54.0534375 -59.59609375 54.950625 -58.8125 55.875 C-57.83782613 56.99123526 -56.86112002 58.10569801 -55.8828125 59.21875 C-43.62863311 73.1807703 -32.40383321 87.20771582 -22.84375 103.16015625 C-22.2353125 104.15917969 -21.626875 105.15820312 -21 106.1875 C-20.47792969 107.07050781 -19.95585937 107.95351562 -19.41796875 108.86328125 C-17.5550786 111.19755966 -16.64661481 111.3166273 -13.8125 111.875 C-14.13400057 88.34448378 -16.73826194 71.38491039 -31.95703125 52.69921875 C-33.96782546 49.63857829 -34.57668262 47.50658768 -34.8125 43.875 C-32.81633446 41.87883446 -28.99548037 42.46516573 -26.25 42.3125 C-25.53908203 42.26931641 -24.82816406 42.22613281 -24.09570312 42.18164062 C-22.33488088 42.07528223 -20.5737168 41.97461154 -18.8125 41.875 C-18.93431641 40.06128906 -18.93431641 40.06128906 -19.05859375 38.2109375 C-19.65634347 25.42355043 -18.14612181 16.44805588 -9.63671875 6.2734375 C-3.3505576 -0.23107294 -3.3505576 -0.23107294 0 0 Z " fill="#000000" transform="translate(256.8125,121.125)"/>
</svg>
