<?xml version="1.0" encoding="UTF-8"?>
<svg version="1.1" xmlns="http://www.w3.org/2000/svg" width="512" height="512">
<path d="M0 0 C0.66 0 1.32 0 2 0 C5.42554266 13.45354254 4.01743944 30.15553158 -2.6875 42.25 C-9.99079491 53.39243527 -19.97398338 60.03954168 -33 63 C-30.17609019 65.98152338 -27.25846712 68.30688113 -23.875 70.625 C-11.5148628 79.54077897 -0.16875331 91.60623393 3 107 C4.46965389 120.36838342 2.93067613 133.90892326 -5.16796875 145.0625 C-11.09545948 151.3312322 -19.10633139 154.59263515 -27.61328125 155.30078125 C-39.507934 155.3384623 -49.48916291 153.61194363 -59 146 C-66.08986267 137.5870798 -66.76960404 129.67407338 -66 119 C-64.35538871 112.2434759 -59.48656326 107.96129867 -54 104 C-50.45471247 102.10368342 -47.96399066 101.94083596 -44 102 C-44.144375 102.58265625 -44.28875 103.1653125 -44.4375 103.765625 C-46.21771546 111.62824328 -48.3925046 122.74281849 -44 130 C-37.38387202 133.17022799 -30.36898953 132.10257839 -23.5625 129.875 C-20.0779999 127.32536578 -19.2321595 125.10719834 -18 121 C-16.88514362 111.15210193 -21.22085265 101.75314825 -27 94 C-30.98756581 89.69406566 -35.05812727 85.91413427 -41 85 C-52.08073328 85.04769326 -61.85319764 87.14662061 -70 95 C-77.92288755 104.2495975 -82.52758 116.83368546 -82 129 C-80.53103086 139.98229309 -75.94986784 149.42510603 -67.23828125 156.4140625 C-53.30181762 166.28876448 -36.35028007 171.48166181 -19.3125 169.3125 C-10.25566226 167.6932799 -2.89453552 163.55382191 5 159 C5.56010062 167.54153445 4.08267181 175.08417364 -1.3125 181.9375 C-8.11863181 187.16081046 -13.50285661 188.7698979 -21.9375 189.75 C-22.90751953 189.87503906 -23.87753906 190.00007812 -24.87695312 190.12890625 C-27.24994603 190.43283638 -29.62376106 190.72280938 -32 191 C-31.32195312 191.53367187 -30.64390625 192.06734375 -29.9453125 192.6171875 C-12.14704857 206.86565918 -0.96900037 221.89343189 2 245 C2.125 248.625 2.125 248.625 2 251 C-4.1839208 251.24763985 -9.42041213 250.44645763 -15.375 248.8125 C-16.21281006 248.58401367 -17.05062012 248.35552734 -17.91381836 248.12011719 C-29.19527518 244.93161719 -36.60591796 240.20695282 -45 232 C-45.80953125 231.22914063 -46.6190625 230.45828125 -47.453125 229.6640625 C-51.85855722 225.389918 -55.61985001 221.12474353 -59 216 C-59.03867187 217.64935547 -59.03867187 217.64935547 -59.078125 219.33203125 C-59.41847911 229.3475182 -59.86720795 238.75023712 -66.3125 246.9375 C-72.36456033 251.58210444 -77.54731557 254.16385111 -85.25 254.0625 C-86.14203125 254.05347656 -87.0340625 254.04445313 -87.953125 254.03515625 C-88.96632812 254.01775391 -88.96632812 254.01775391 -90 254 C-89.4225 253.01 -88.845 252.02 -88.25 251 C-86.74666304 248.35583286 -85.27733106 245.6992237 -83.875 243 C-83.56304687 242.401875 -83.25109375 241.80375 -82.9296875 241.1875 C-77.35515303 228.0709483 -78.69423988 212.59586022 -83.58984375 199.484375 C-84.05519531 198.33453125 -84.52054688 197.1846875 -85 196 C-85.37253906 195.05640625 -85.74507812 194.1128125 -86.12890625 193.140625 C-91.03882005 182.12325745 -99.99347425 173.50285502 -111 168.6875 C-124.69595392 165.54884389 -137.60080774 168.16110784 -149.578125 175.6015625 C-158.76013841 182.26004242 -162.0645503 189.98282478 -164 201 C-164.87867285 207.2150031 -163.47585861 211.87876454 -160 217 C-153.97236858 224.52673147 -145.62202842 229.71706288 -136 231 C-131.39093154 231.39587091 -127.41957583 231.54366734 -123.0625 229.875 C-118.89391354 226.08537595 -117.4883677 221.48323493 -117.0078125 216.01953125 C-116.98900954 211.15896676 -117.9867756 208.0398882 -121.375 204.5625 C-129.80774082 200.92769792 -139.30570355 203.08314724 -148 205 C-146.37471998 197.4463176 -143.83841749 192.16762059 -138 187 C-131.02559943 182.76065847 -124.0398881 182.1474348 -116 183 C-108.62516264 185.23227043 -103.1911251 189.57955304 -99 196 C-93.60502674 206.78994652 -92.10730289 218.47126107 -95.4375 230.1875 C-98.32165244 237.7847796 -102.90450673 243.7443603 -110.078125 247.6953125 C-121.65661024 252.6860389 -137.57630166 254.99335253 -149.6875 250.375 C-151.91015625 249.26171875 -151.91015625 249.26171875 -154 248 C-154.76183594 247.55269531 -155.52367187 247.10539063 -156.30859375 246.64453125 C-158.62283246 245.18886339 -160.81084318 243.63686497 -163 242 C-163.63292969 241.54496094 -164.26585937 241.08992187 -164.91796875 240.62109375 C-171.80269298 235.1842909 -176.62572356 227.7751748 -181.68481445 220.69824219 C-183.01113378 218.98562343 -184.43678847 217.49661283 -186 216 C-186.43699219 217.37671875 -186.43699219 217.37671875 -186.8828125 218.78125 C-190.95552443 230.97377125 -196.81571096 240.63853247 -208.26171875 247.3203125 C-217.06365391 251.46782122 -225.7420451 252.31033634 -235.375 252.1875 C-236.85033203 252.1865332 -236.85033203 252.1865332 -238.35546875 252.18554688 C-245.57672038 252.14109321 -245.57672038 252.14109321 -249 251 C-249 250.34 -249 249.68 -249 249 C-246.92692434 247.39904084 -244.84985736 245.90910819 -242.6875 244.4375 C-235.17005946 239.19778174 -227.72148166 233.82982173 -221.31640625 227.23828125 C-219 225 -219 225 -217 225 C-216.72542969 224.39800781 -216.45085937 223.79601562 -216.16796875 223.17578125 C-215 221 -215 221 -212.3125 218.1875 C-206.42999296 211.45039145 -203.37124641 202.38194135 -200.0234375 194.1875 C-191.5671858 173.50141987 -181.1296124 158.9394514 -160 150 C-143.69468693 143.74935905 -127.3160231 140.80154463 -110 139 C-109.93530518 138.40276123 -109.87061035 137.80552246 -109.80395508 137.19018555 C-106.71327428 109.44303496 -101.40655946 80.3984427 -79.125 61.2734375 C-70.47175997 54.97820538 -60.57062612 51.14229832 -50.625 47.375 C-28.55475831 38.92896388 -13.41479429 21.36058261 -1.15625 1.51171875 C-0.58390625 0.76341797 -0.58390625 0.76341797 0 0 Z " fill="#000000" transform="translate(249,129)"/>
<path d="M0 0 C0.66 0 1.32 0 2 0 C3.37719268 1.84937303 4.67483775 3.75811556 5.9375 5.6875 C10.78083876 12.92742872 16.30068943 19.42852221 22 26 C22.84861858 27.0421859 23.69628486 28.08514798 24.54296875 29.12890625 C33.12169218 39.1533287 44.36789371 44.23032141 56.41894531 48.90991211 C75.6151073 56.37173754 91.01853946 66.64533058 99.875 85.9609375 C104.98330701 97.86308876 107.62230421 110.31277423 110 123 C110.20753906 124.09054688 110.41507812 125.18109375 110.62890625 126.3046875 C111.02700764 129.19616077 111.09807551 131.95780845 111.0625 134.875 C111.05347656 135.84179688 111.04445313 136.80859375 111.03515625 137.8046875 C111.02355469 138.52914062 111.01195312 139.25359375 111 140 C112.258125 139.938125 113.51625 139.87625 114.8125 139.8125 C139.69203282 139.88278117 168.05802527 148.18607326 185.9453125 165.9296875 C194.79972197 175.47405096 199.22183174 187.00988028 203.76757812 199.01171875 C207.87659902 209.5066206 213.34240579 217.92302551 221.375 225.8125 C221.96079834 226.39507568 222.54659668 226.97765137 223.15014648 227.57788086 C229.09562676 233.3432186 235.61725564 238.26872857 242.28515625 243.16015625 C245.49754036 245.54207297 248.26066827 248.08979377 251 251 C238.93609887 254.42818147 222.40735812 253.18563752 211.26953125 247.640625 C208.75412261 246.19900233 206.37803937 244.65651575 204 243 C202.948125 242.29875 201.89625 241.5975 200.8125 240.875 C193.79460879 234.67453362 190.06786726 224.90167619 188 216 C184.9439938 218.89946245 182.49316661 221.93837434 180.0625 225.375 C171.02495361 237.89490372 160.91978559 247.02673814 146 252 C134.7503955 252.95828496 123.30835622 253.01398446 113 248 C112.24589844 247.649375 111.49179687 247.29875 110.71484375 246.9375 C103.6436066 243.13092748 99.75386387 236.74668247 97.125 229.3125 C94.13552415 217.87063708 95.37281223 206.08642468 101.1875 195.8125 C104.69365057 190.60607762 109.18635948 186.47076664 114.75 183.5625 C123.7450738 182.0056603 132.15076857 182.14455177 139.90234375 187.25390625 C144.30125149 190.66701225 147.33806866 194.642594 149 200 C149.09765625 202.74609375 149.09765625 202.74609375 149 205 C148.41734375 204.855625 147.8346875 204.71125 147.234375 204.5625 C139.29270097 202.76438512 131.14941673 201.42608331 123.375 204.375 C119.89244622 208.22413839 119.09783285 211.86001255 119 217 C119.89083275 222.35332206 121.61368005 226.60413939 126 230 C131.48697508 232.74348754 138.4604766 231.11595515 144.0625 229.4375 C153.07417199 226.15947536 160.73023687 220.07241723 165.3125 211.5625 C167.71543896 202.60609114 164.62472829 191.71965855 160.203125 183.734375 C153.82881074 174.54542847 141.53389161 169.68712253 130.96484375 167.59765625 C119.92296027 165.86445055 110.2341463 169.23569355 101.06640625 175.2734375 C90.21843454 183.632899 84.35264054 198.88906826 82 212 C81.71253315 215.29713175 81.66548174 218.56659975 81.6875 221.875 C81.69313965 222.75978027 81.6987793 223.64456055 81.70458984 224.55615234 C81.90976364 235.56850047 85.08789638 242.7955273 91 252 C91.33 252.66 91.66 253.32 92 254 C83.24934305 254.67026309 76.07566039 253.27824857 69.125 247.6875 C63.79219106 240.94306517 62.22993436 235.49569981 61.25 227.0625 C61.12496094 226.09248047 60.99992187 225.12246094 60.87109375 224.12304688 C60.56716362 221.75005397 60.27719062 219.37623894 60 217 C59.55011719 217.59425781 59.10023438 218.18851563 58.63671875 218.80078125 C44.9467725 236.44133324 31.2383688 246.78071829 9.1640625 250.73046875 C6.07063882 251.11575076 3.11292644 251.13534463 0 251 C-0.50837488 235.40305867 5.17600932 219.240745 15.5 207.5625 C16.98507213 206.02708644 18.48416261 204.50504851 20 203 C20.62132812 202.34257812 21.24265625 201.68515625 21.8828125 201.0078125 C25.60378259 197.11998277 29.58862727 194.06569819 34 191 C33.09290283 190.88724731 33.09290283 190.88724731 32.16748047 190.7722168 C29.4017561 190.42193407 26.63850433 190.05487062 23.875 189.6875 C22.92367188 189.56955078 21.97234375 189.45160156 20.9921875 189.33007812 C12.99687054 188.24737895 7.35885818 186.34601627 2 180 C-1.09420241 174.6941697 -3.14320484 170.02677283 -3.0625 163.8125 C-3.05347656 162.91144531 -3.04445313 162.01039063 -3.03515625 161.08203125 C-3.02355469 160.39496094 -3.01195312 159.70789063 -3 159 C-2.360625 159.391875 -1.72125 159.78375 -1.0625 160.1875 C-0.051875 160.785625 0.95875 161.38375 2 162 C2.67804688 162.40992188 3.35609375 162.81984375 4.0546875 163.2421875 C16.61366913 170.58636707 30.35031845 171.23626222 44.3984375 168.0078125 C58.30367492 164.11675908 71.27508989 157.46802046 79.2421875 145.06640625 C84.0681253 136.31278914 84.97598089 126.71812826 83 117 C79.71544081 105.81261006 74.88652879 95.56329314 64.6875 89.2578125 C57.19173282 85.74961914 47.09426599 83.21319276 39 86 C28.7980696 91.46868728 23.5351026 101.39469219 20 112 C19.3927828 118.02546296 19.86470651 122.77451086 23 128 C27.70509363 131.44275144 33.26840235 132.14911474 39 132 C42.68894805 130.79270791 44.36974959 129.86884521 46.640625 126.73828125 C50.30659274 119.35367382 47.90430576 109.68523396 46 102 C53.21342571 102.45083911 58.27159811 105.19785752 63.3125 110.375 C68.16594428 117.92480222 68.8185206 124.05157889 68 133 C66.35977163 140.42857052 62.68670323 145.0949923 56.375 149.125 C45.88196035 155.05119998 34.76799211 157.01587952 22.83984375 154.2734375 C13.6582382 151.16659436 7.9700244 147.21013827 3.2890625 138.63671875 C-2.29421442 127.21637959 -3.46340868 112.16241389 0.5 99.9375 C3.09651533 94.04897416 7.00752807 89.0061855 11 84 C11.60070312 83.18402344 12.20140625 82.36804688 12.8203125 81.52734375 C15.54150092 78.37213065 18.5763049 75.96229741 21.875 73.4375 C22.47441406 72.96892578 23.07382812 72.50035156 23.69140625 72.01757812 C27.3599847 69.1726393 31.10752055 66.52951646 35 64 C34.23816406 63.70867187 33.47632813 63.41734375 32.69140625 63.1171875 C18.72356553 57.57190242 9.03310107 50.87478406 2.26171875 37.2578125 C-0.63464873 29.77926613 -1.30155864 22.72209873 -1.1875 14.75 C-1.18685547 13.87859375 -1.18621094 13.0071875 -1.18554688 12.109375 C-1.15703151 7.95246837 -1.04637509 4.05156437 0 0 Z " fill="#000000" transform="translate(261,129)"/>
</svg>
