<?xml version="1.0" encoding="UTF-8"?>
<svg version="1.1" xmlns="http://www.w3.org/2000/svg" width="512" height="512">
<path d="M0 0 C0.73605469 0.40992187 1.47210938 0.81984375 2.23046875 1.2421875 C3.20628906 1.78101562 4.18210937 2.31984375 5.1875 2.875 C6.15042969 3.40867188 7.11335938 3.94234375 8.10546875 4.4921875 C15.38933086 8.28648004 21.63143759 9.26977856 29.8125 8.6875 C30.52535156 8.64117432 31.23820312 8.59484863 31.97265625 8.54711914 C35.58161142 8.28328015 39.00759011 7.88322028 42.5 6.9375 C56.01164108 3.55313101 69.00112855 6.2369982 80.8125 13.25 C89.58272726 19.22684067 93.957326 26.2693801 98.421875 35.73046875 C101.0342709 41.14278402 102.52917421 44.17720383 108.0625 46.8125 C117.9519116 51.93403634 126.3744142 58.12324259 130 69 C130.97575592 76.82204338 128.63206933 83.2531991 124.8671875 90.04296875 C123.72991846 92.25274879 123.72991846 92.25274879 124 96 C125.58467728 95.71572583 127.1677057 95.42225182 128.75 95.125 C129.63171875 94.96257812 130.5134375 94.80015625 131.421875 94.6328125 C133.89418782 94.02597208 135.82210756 93.30673546 138 92 C139.12516085 90.16715557 139.12516085 90.16715557 140 88 C140.98879205 86.32665961 141.98648336 84.65848177 143 83 C146.8665267 87.13318372 149.08241705 91.43153091 150 97 C149.64715727 100.91168754 148.75750381 104.48499238 147 108 C147.845625 108.02578125 148.69125 108.0515625 149.5625 108.078125 C163.78947368 108.78947368 163.78947368 108.78947368 169 114 C168.71804927 107.37415781 166.03024328 103.17314809 162 98 C161.43667969 97.48566406 160.87335938 96.97132812 160.29296875 96.44140625 C159.86628906 95.96574219 159.43960938 95.49007812 159 95 C159.20944146 91.29986762 159.84916781 88.36953885 161.25 84.9375 C162.29990933 81.96235372 162.29990933 81.96235372 160.9375 79 C158.82860514 75.73461441 156.56776789 72.91476355 154 70 C154.7734375 70.03480469 155.546875 70.06960937 156.34375 70.10546875 C164.01185364 70.30476352 170.44380959 70.3639639 176.3125 64.8125 C180.52433317 57.79277805 182.47875192 50.95787005 180.4609375 42.828125 C178.58934506 37.35731631 176.13839478 33.37807664 171.1875 30.1875 C166.74707587 28.53322434 163.00053594 28.17926731 158.5625 30 C158.046875 30.33 157.53125 30.66 157 31 C157.7425 31.556875 158.485 32.11375 159.25 32.6875 C164.1611002 36.8172888 164.1611002 36.8172888 166 40 C166.33676742 44.40203123 165.57096034 47.92944936 163.5 51.8125 C159.43310731 55.3710311 155.09894506 57.78592814 149.625 58.1640625 C143.53184898 57.73177814 139.26973998 55.58280756 135.1875 50.9375 C132.48172246 46.52281033 132.3952986 42.01823627 133 37 C134.08503591 33.85860782 135.44582139 30.93489979 137 28 C135.83984375 28.05220703 135.83984375 28.05220703 134.65625 28.10546875 C123.91794852 28.38455827 116.30841015 25.99489007 108 19 C103.43631762 13.86179228 102.1723014 8.76674605 102 2 C103.7634375 2.61875 103.7634375 2.61875 105.5625 3.25 C109.84602441 4.66430743 114.1577047 5.96665601 118.5 7.1875 C119.7065625 7.53167969 120.913125 7.87585937 122.15625 8.23046875 C129.97094144 9.79499539 137.15401465 8.79627053 144.9375 7.5 C159.14954829 5.33828461 174.73549206 3.01176964 187.30078125 11.56640625 C188.64378917 12.58532451 189.96361341 13.63634405 191.24609375 14.73046875 C193.32465665 16.23499647 194.4096992 16.95658714 197 17 C199.58174107 15.06243677 199.58174107 15.06243677 202.125 12.375 C208.66890804 6.01948559 215.82961147 1.50370519 225.0625 0.75 C230.19919009 1.07613905 235.23479635 1.99663583 240 4 C240.33 4.99 240.66 5.98 241 7 C239.98292969 7.58394531 239.98292969 7.58394531 238.9453125 8.1796875 C225.72751627 16.125011 216.10656878 26.01539264 212 41 C211.57460938 42.75957031 211.57460938 42.75957031 211.140625 44.5546875 C208.00624009 57.32345225 202.35576376 65.93587158 194 76 C192.66382979 77.6643932 191.32972662 79.33045435 190 81 C201.89268135 79.67416222 201.89268135 79.67416222 211.609375 73.30078125 C218.0305082 64.61239226 221.16180782 53.3085282 224 43 C227.20663312 45.89896043 228.96575902 48.54597024 230.6875 52.5 C231.10386719 53.4384375 231.52023438 54.376875 231.94921875 55.34375 C234.64252183 62.15209979 234.76508143 68.24675829 232 75.06640625 C230.41147619 78.13796596 228.34340271 80.46659166 226 83 C226.763125 83.103125 227.52625 83.20625 228.3125 83.3125 C231.2901248 84.07421797 232.11350642 84.64586857 234 87 C235.2179198 91.11626061 235.47377742 94.81555644 233.875 98.8125 C231.79365414 101.24073683 229.58021996 103.11713679 227 105 C227.99 106.546875 227.99 106.546875 229 108.125 C230.96375148 111.63019081 231.76282788 113.93158466 231 118 C229.05947924 121.85626891 226.77669969 124.45277976 223.25 126.9375 C217.66044044 128.76485601 213.44260211 129.08875676 207.9765625 126.65234375 C205.26243522 125.17666787 202.61580701 123.64282459 200 122 C201.3354925 117.99352249 203.52765887 117.24255364 207 115 C208.67909909 111.64180183 208.39454899 108.29125123 207.3125 104.75 C205.46281135 102.28374847 203.97084754 101.79222601 201 101 C196.00623684 100.44513743 192.67342925 101.06747019 188.51171875 103.7421875 C184.83248441 106.80346259 184.11228598 110.23895059 183.4375 114.8125 C183.63062276 120.09796513 186.64449571 124.09807185 190 128 C191.30167315 129.04087693 192.62764221 130.05426648 194 131 C192.95373561 133.96441578 191.83316793 136.2346076 190 138.8125 C185.75783793 145.5734458 185.71425625 152.25316955 186 160 C187.0209375 158.948125 187.0209375 158.948125 188.0625 157.875 C199.8337112 146.20326382 199.8337112 146.20326382 207.3828125 145.90625 C215.62362596 146.41027529 221.39462628 148.9337941 226.9375 155.0625 C230.75401272 159.59189208 231.40163206 163.07592712 231 169 C229.40093249 173.15757553 227.85311765 175.7122114 224 178 C219.68441233 179.43852922 215.83000244 179.75077023 211.5625 178 C209.07061728 174.81039012 209.73997175 171.96543085 210 168 C204.48239094 169.08410333 204.48239094 169.08410333 199.5625 171.625 C196.93808787 175.61410644 196.52715477 179.5312023 197.40625 184.12109375 C199.37242869 190.31221595 202.78318853 193.08730129 208.3125 196.375 C214.76957521 197.8766454 220.32239618 196.18499726 226 193 C226.66 193 227.32 193 228 193 C228.14695313 193.96679688 228.29390625 194.93359375 228.4453125 195.9296875 C229.80619078 204.09810977 231.42632974 211.52691107 237 218 C239.65494079 219.67354245 240.74339339 220.00545972 243.9375 219.9375 C248.49063941 218.54368181 250.71901121 216.16748623 253.12890625 212.08984375 C256.1319226 205.98407988 257.13792152 199.70379447 258 193 C258.825 193.28875 259.65 193.5775 260.5 193.875 C269.1162481 196.86053354 269.1162481 196.86053354 278 196 C282.74641337 193.43693678 285.4739027 190.77151712 288 186 C289.32767118 180.78414893 289.10398553 176.9730567 287 172 C283.59222909 169.16019091 280.35234661 168.50608682 276 168 C276.0825 169.0725 276.165 170.145 276.25 171.25 C276 175 276 175 274.4375 177.4375 C271.05368263 179.6066137 268.96044928 179.47798526 265 179 C260.84242447 177.40093249 258.2877886 175.85311765 256 172 C254.75598149 168.26794448 254.48318982 164.87607635 255 161 C258.23150165 154.53699671 263.58336229 149.6780659 270.3125 147.0625 C275.36757021 145.64639374 279.95504829 145.4397873 285 147 C290.73340259 150.32701422 294.9598311 154.82353359 299 160 C299.33 160 299.66 160 300 160 C300.31825658 149.97491758 299.34913047 143.05343045 293.14453125 134.9453125 C292.76683594 134.30335938 292.38914062 133.66140625 292 133 C293 130 293 130 295.3125 128.25 C299.60395603 124.65715309 301.69271396 121.11259151 302.5 115.5625 C301.87314813 111.09618045 300.66110227 107.65798578 298 104 C293.71014881 100.94943916 290.19553189 100.44333587 285 101 C280.69156076 102.58227602 280.69156076 102.58227602 278 106 C277.49929679 109.37357334 277.49929679 109.37357334 278 113 C280.45094228 115.98087575 282.79527998 117.86351998 286 120 C286 120.66 286 121.32 286 122 C274.81157661 129.02674815 274.81157661 129.02674815 268.13671875 128.5234375 C263.09557806 127.28849627 259.39898275 124.52616301 255.9375 120.75 C254.54792655 116.67391788 254.98780866 113.14623562 256 109 C257.5625 105.9375 257.5625 105.9375 259 104 C258.05125 103.4225 257.1025 102.845 256.125 102.25 C251.92086331 99.22302158 251.92086331 99.22302158 251 96 C250.55101937 91.88434427 250.57497053 89.72412429 252.6875 86.125 C255.21360261 83.80371652 256.62765029 83.28102914 260 83 C260 82.34 260 81.68 260 81 C259.01 80.67 258.02 80.34 257 80 C252.98449833 73.74054151 251.06229689 68.57976683 252 61 C253.92496849 54.40907527 257.15126232 48.6469184 261 43 C263.15840277 46.23760416 264.17198169 49.39486189 265.3125 53.0625 C268.49810639 62.90137808 271.61578565 72.35187751 281.0625 77.75 C285.97414125 79.84006011 289.63384567 80.03109012 295 80 C294.1646875 79.03513672 294.1646875 79.03513672 293.3125 78.05078125 C283.35742569 66.26276252 277.34043398 55.80217227 273.69677734 40.75317383 C269.91153581 25.9548895 259.88403933 16.01637177 247.125 8.25 C246.42375 7.8375 245.7225 7.425 245 7 C245.33 6.01 245.66 5.02 246 4 C254.81770679 0.29290182 263.0552711 0.01221546 271.94921875 3.3828125 C276.35941997 5.72061443 279.92278442 8.83435589 283.58447266 12.20239258 C287.25202304 15.76366686 287.25202304 15.76366686 292 17 C293.41167455 15.85721584 294.8151205 14.70136955 296.15625 13.4765625 C306.83831556 4.92185746 319.74736608 4.88629536 332.75097656 6.29882812 C336.39563151 6.78648423 340.02709302 7.3271558 343.65405273 7.93261719 C352.07021528 9.31331058 359.20867045 9.5526549 367.5 7.1875 C368.14074463 7.00735352 368.78148926 6.82720703 369.44165039 6.64160156 C374.34772812 5.24428138 379.18738976 3.68863517 384 2 C383.76159874 9.50963954 382.07067838 14.36826535 377 20 C368.3260618 27.36733771 360.06928966 28.32717112 349 28 C349.433125 28.81791016 349.433125 28.81791016 349.875 29.65234375 C352.5915256 35.17028638 354.10295828 39.84369204 353 46 C351.14819991 51.27450925 347.99879685 54.54776004 343 57 C337.01391945 58.73935171 332.46292649 58.0613016 326.94921875 55.22265625 C323.40397003 52.998883 321.57472282 50.92764174 320.37109375 46.890625 C319.77303327 43.67941737 319.40591293 41.16551829 320.921875 38.19140625 C323.22042674 35.34659376 325.96489751 33.02340166 329 31 C325.32307542 28.64676827 322.29485546 28.56323504 318 29 C311.78656673 31.57107584 308.96616033 35.03090877 306 41 C303.94220787 47.17337638 304.1852809 53.8415038 306.625 59.875 C308.80426117 64.12684523 310.91509376 66.48621155 315 69 C320.64410963 70.20284304 326.24429002 70.11991062 332 70 C331.38511719 70.65355469 331.38511719 70.65355469 330.7578125 71.3203125 C327.46313389 74.96179938 324.73040025 77.99154116 324 83 C324.9644586 85.34824702 325.96514123 87.68191636 327 90 C327.10895357 95.22977147 324.84707146 97.62100116 321.49609375 101.27734375 C317.92659825 105.38738948 316.63321984 109.68095336 316 115 C317.0828125 114.071875 317.0828125 114.071875 318.1875 113.125 C323.05073634 109.45055476 326.74933397 108.7525118 332.8125 108.875 C334.55466797 108.90207031 334.55466797 108.90207031 336.33203125 108.9296875 C337.21246094 108.95289063 338.09289062 108.97609375 339 109 C338.76023437 108.46632813 338.52046875 107.93265625 338.2734375 107.3828125 C335.75802167 101.06146316 335.79033246 96.42812374 338 90 C339.18244382 87.50125079 340.48434871 85.32399865 342 83 C344.08060438 84.87254394 345.37159155 86.59454647 346.875 89 C349.48594202 92.68603579 351.59749153 94.54365761 356.09765625 95.3984375 C358.05866558 95.6543717 360.02942354 95.833002 362 96 C361.53523009 91.35230087 360.14103317 87.96409749 357.9375 83.9296875 C355.26619939 78.43126042 354.94787392 72.22520891 356.8359375 66.4375 C360.29911429 58.8138625 365.13300023 53.92720106 372.5703125 50.1328125 C382.91793337 44.75283011 386.74098014 39.43205972 391.21191406 28.7734375 C395.99469223 18.01070497 405.76007413 12.10648054 416.30078125 7.9453125 C427.15773601 4.14302154 439.00289026 5.61349208 450.06323242 7.93261719 C463.82993008 10.7636245 474.38459661 7.25962712 486 0 C487.27117894 6.35589468 486.91905218 11.12714502 484 17 C483.44828125 17.49886719 482.8965625 17.99773438 482.328125 18.51171875 C480.77276799 19.90340595 480.77276799 19.90340595 481.09765625 21.890625 C482.21439263 24.50117758 483.71130487 26.49625667 485.4375 28.75 C490.10298025 35.27019985 492.16361575 41.8687092 491 50 C489.67717593 54.82211731 488.13452395 59.5985174 485.99609375 64.125 C483.1281653 70.29811953 484.58682925 75.53732889 486 82 C486.34310367 83.99834706 486.67919704 85.99795191 487 88 C481.50154051 87.56012324 478.17729022 86.65512895 474 83 C471.46924763 79.44465153 469.196637 75.76937709 467 72 C466.05125 72.495 465.1025 72.99 464.125 73.5 C459.46426902 75.47584742 454.98861399 75.74210787 450 75 C445.01330993 72.50665497 441.50324526 69.00649051 439 64 C438.58748313 59.07359656 438.3473586 54.52282992 440.3125 49.9375 C442 48 442 48 445 46 C451.84210526 46 451.84210526 46 454.6328125 48.41015625 C456 50.0625 456 50.0625 458 53 C461.54408579 50.32772141 464.4554076 47.98445549 466.625 44.0625 C467.13713692 39.88004848 466.08529589 37.61451288 464 34 C460.71102153 31.29833911 457.10519385 31.72168177 453 32 C450.60221941 32.54113336 448.34161371 33.23539144 446 34 C445.34 31.69 444.68 29.38 444 27 C443.195625 27.94875 442.39125 28.8975 441.5625 29.875 C437.02063565 33.88307823 431.93958895 33.939615 426.13110352 34.24169922 C421.22736143 34.56056106 418.57579378 35.33063404 415 39 C412.22659601 43.87736563 411.71434515 47.71545464 411.9921875 53.1796875 C411.99476563 53.78039062 411.99734375 54.38109375 412 55 C410.13089777 56.86910223 406.94750464 56.79218367 404.4375 57.25 C395.05991288 59.23024175 388.33233835 62.84362719 383 71 C380.94671598 76.13321005 380.80927466 80.56432787 381 86 C381.74443359 85.40251953 381.74443359 85.40251953 382.50390625 84.79296875 C392.61057397 76.91091859 402.19954776 74.87762214 415 76 C425.99753948 78.59700932 438.1750257 85.50122426 446.44140625 93.3046875 C450.11778562 95.74063963 453.14595502 95.33468313 457.4375 95.0625 C463.16118803 94.72757677 466.99442037 94.75684668 472 98 C474.1171875 99.9375 474.1171875 99.9375 475.875 102 C476.47054688 102.680625 477.06609375 103.36125 477.6796875 104.0625 C479 106 479 106 479 109 C478.14277344 108.96519531 477.28554688 108.93039063 476.40234375 108.89453125 C467.27210079 108.65643684 467.27210079 108.65643684 459 112 C456.52282833 115.71575751 456.69654258 117.59986738 457 122 C458.0132547 125.42947745 459.14144938 127.8011149 462 130 C464.10332891 130.71447643 464.10332891 130.71447643 466 131 C466.37125 129.8553125 466.37125 129.8553125 466.75 128.6875 C468.17560018 125.62245962 469.00320024 124.53889718 472 123 C476.11092805 122.47679097 478.23457035 122.54074221 481.8125 124.6875 C485.30371497 128.37821297 486.11597964 131.45762471 486.375 136.4375 C486.23795943 141.02074559 485.18837829 143.57249334 482 147 C473.51918546 152.42216011 463.55858167 153.6325508 453.703125 151.50390625 C445.60253863 148.33177398 442.29807627 141.49150658 439 134 C437.92902738 131.35030281 436.94897269 128.69708028 436 126 C435.1440625 126.32226562 434.288125 126.64453125 433.40625 126.9765625 C426.87983137 128.93748186 419.77074328 129.23693897 413.5 126.4375 C410.46171326 123.47517043 408.2640103 120.59578107 406 117 C406 116.34 406 115.68 406 115 C406.84304688 114.80664062 407.68609375 114.61328125 408.5546875 114.4140625 C410.19824219 114.02347656 410.19824219 114.02347656 411.875 113.625 C412.96554687 113.36976563 414.05609375 113.11453125 415.1796875 112.8515625 C418.10408455 112.21093785 418.10408455 112.21093785 420 110 C420.22546544 106.03932381 419.90808929 102.21078573 417.5 99 C412.33760129 96.93504051 407.78244234 96.5697553 402.375 97.875 C398.92170628 100.04929605 398.09388741 101.28753478 396 104.625 C393.63115796 107.95100395 392.65499188 108.87900948 388.57421875 109.6328125 C385.96558448 109.71146479 383.35585066 109.7592384 380.74609375 109.77734375 C375.43313283 110.09312975 371.26091725 111.8383994 367 115 C365.26226186 117.06698963 365.26226186 117.06698963 364 119 C364.78761719 118.96777344 365.57523437 118.93554688 366.38671875 118.90234375 C375.74800834 119.00204979 381.14405669 122.1575018 388.32324219 127.72851562 C391.14774466 129.87033404 394.08971109 131.82136236 397.0625 133.75 C397.64386719 134.12729248 398.22523438 134.50458496 398.82421875 134.89331055 C403.41465607 137.79250034 408.10353547 139.94597832 413.18359375 141.83203125 C419.86878293 144.60439126 424.31485476 147.96909844 429.1875 153.1875 C439.71626042 164.16467021 439.71626042 164.16467021 453 171 C460.75132328 171.1219081 468.47090043 169.75055814 476 168 C474.0084828 176.62990785 467.164524 184.03448831 460 189 C451.85133828 191.71622057 442.09396606 190.31256173 434 188 C426.92860673 187.03046306 422.85828985 190.08499825 417.1875 193.8125 C408.33830684 199.58726172 398.93353524 204.73987541 388 203 C381.66381238 201.04682657 377.87966292 197.23166666 374 192 C370.28125257 192.56859583 367.75911865 193.61793649 364.5625 195.5625 C358.16746189 198.83637772 352.04092689 199.026973 345 198 C338.33428721 195.68354662 334.23323545 191.90816204 330.75 185.8125 C328.82106284 178.57898566 329.56746497 171.62731871 333 165 C335.94994815 160.30193442 339.95540308 157.22879464 345 155 C349.03549198 154.19139018 352.39420862 154.80568956 356.3125 156.0625 C359.92787137 158.66893052 360.97443819 160.6779895 362 165 C360.25 168.25 360.25 168.25 358 171 C357.67 171.99 357.34 172.98 357 174 C362.34516289 175.59417139 366.53489716 176.78857911 372 175 C374.6324239 172.54823264 376.84521706 169.87522708 379 167 C383.59283047 167.55972725 383.59283047 167.55972725 385.44140625 169.55859375 C385.81136719 170.17863281 386.18132812 170.79867187 386.5625 171.4375 C388.35433236 174.40735364 389.72139384 175.76370488 393 177 C400.18256374 178.03958159 406.34199408 176.25108057 412.4375 172.5 C414.2660481 170.97747288 414.2660481 170.97747288 415 168 C414.15179688 167.90074219 413.30359375 167.80148438 412.4296875 167.69921875 C401.6400205 165.49950304 392.10694781 158.48207342 383.98046875 151.35546875 C371.94130418 140.59973221 371.94130418 140.59973221 356.51953125 137.6328125 C350.37870955 138.52775396 344.72120066 140.67101566 339 143 C339.04640625 142.18015625 339.0928125 141.3603125 339.140625 140.515625 C339.17671875 139.43796875 339.2128125 138.3603125 339.25 137.25 C339.29640625 136.18265625 339.3428125 135.1153125 339.390625 134.015625 C339.24131782 130.91726884 339.24131782 130.91726884 337.2265625 128.640625 C334.50949919 126.63857835 332.37017335 126.43739352 329.02734375 126.60546875 C325.72920811 127.24730247 323.56859767 128.90928097 321 131 C320.401875 131.45375 319.80375 131.9075 319.1875 132.375 C317.44945984 134.75337074 317.31994144 137.12052705 317 140 C319.64 140.66 322.28 141.32 325 142 C324.32186422 146.33583388 322.81964286 150.18617816 321.12890625 154.20703125 C320.54879895 155.61261817 319.96872178 157.01821752 319.38867188 158.42382812 C318.47744104 160.6163166 317.56436735 162.80802427 316.65014648 164.99926758 C315.76340633 167.12912384 314.88345274 169.26169628 314.00390625 171.39453125 C313.73300674 172.03751663 313.46210724 172.68050201 313.18299866 173.3429718 C310.18825766 180.61641737 308.40514775 186.620591 310.375 194.5 C310.67148437 195.7271875 310.96796875 196.954375 311.2734375 198.21875 C311.51320313 199.1365625 311.75296875 200.054375 312 201 C311.19175781 201.1959375 310.38351562 201.391875 309.55078125 201.59375 C302.05709734 203.58562817 302.05709734 203.58562817 296.8125 208.9375 C295.32786013 211.8792864 294.31012907 214.69195663 294 218 C294.57331055 217.83846436 295.14662109 217.67692871 295.73730469 217.51049805 C299.54489116 216.65144935 303.36108395 216.80957793 307.25 216.8125 C308.1380835 216.81185547 309.02616699 216.81121094 309.94116211 216.81054688 C315.55121069 216.85474817 321.00883164 217.21872928 326.5625 218 C338.43753407 219.6605933 348.4591703 220.34080064 358.4375 212.875 C359.07558594 212.35679687 359.71367187 211.83859375 360.37109375 211.3046875 C362 210 362 210 364 209 C364.27263672 209.93972656 364.27263672 209.93972656 364.55078125 210.8984375 C364.80214844 211.71570313 365.05351562 212.53296875 365.3125 213.375 C365.55613281 214.18710938 365.79976563 214.99921875 366.05078125 215.8359375 C366.91368185 218.33184629 366.91368185 218.33184629 370 220 C382.87843668 223.67955334 395.82019567 217.97771707 407.5 212.9375 C408.55703125 212.49083984 409.6140625 212.04417969 410.703125 211.58398438 C415.99357274 209.37510621 415.99357274 209.37510621 421.13867188 206.85766602 C423 206 423 206 426 206 C426.19335938 206.78246094 426.38671875 207.56492188 426.5859375 208.37109375 C426.97652344 209.88896484 426.97652344 209.88896484 427.375 211.4375 C427.75785156 212.95150391 427.75785156 212.95150391 428.1484375 214.49609375 C428.72573954 217.15570324 428.72573954 217.15570324 431 218 C439.56340316 218.7216351 446.20876172 213.37820357 452.5390625 208.14453125 C455.5291496 205.60307946 458.46360947 203.0003352 461.3984375 200.39550781 C463.57902746 198.49546936 465.84352113 196.71442104 468.125 194.9375 C472.67055714 191.36599082 476.88888571 187.49353685 481.06689453 183.50366211 C484.78833341 180 484.78833341 180 487 180 C486.80664062 180.64066406 486.61328125 181.28132812 486.4140625 181.94140625 C485.8726695 183.73979585 485.33510741 185.53934185 484.80078125 187.33984375 C484.16738377 189.4439593 483.49656337 191.53680655 482.8125 193.625 C481.85703819 197.59384135 481.85719566 200.93007635 482 205 C485.08510827 203.80023567 488.05047042 202.49997444 491 201 C490.855625 201.56847656 490.71125 202.13695312 490.5625 202.72265625 C488.30147177 210.9295634 488.30147177 210.9295634 490.0625 218.875 C492.92113133 220.53485045 495.74739303 220.69315029 499 221 C499 224.96 499 228.92 499 233 C497.535625 233.309375 496.07125 233.61875 494.5625 233.9375 C491.49550444 234.41159649 491.49550444 234.41159649 489 236 C488.67897235 241.99251613 489.4980965 247.20694363 491 253 C490.40703125 252.69320312 489.8140625 252.38640625 489.203125 252.0703125 C486.54170348 250.7773524 483.81660808 249.89619348 481 249 C481.97060314 256.3178368 483.46729548 262.95048861 486.1953125 269.8203125 C487 272 487 272 487 274 C483.13726995 272.40194383 480.41861251 269.77789819 477.4375 266.9375 C469.08998953 259.15258608 460.20990363 252.10815282 451.1875 245.125 C450.46989502 244.56506348 449.75229004 244.00512695 449.01293945 243.42822266 C442.97474792 238.7938526 437.96228507 235.0812748 430 236 C428.09681116 238.85478326 427.5380901 240.41941308 426.875 243.6875 C426.70742188 244.49574219 426.53984375 245.30398438 426.3671875 246.13671875 C426.24601562 246.75160156 426.12484375 247.36648438 426 248 C421.9093381 247.35093693 418.48125041 246.02859241 414.703125 244.34765625 C413.4965625 243.81849609 412.29 243.28933594 411.046875 242.74414062 C409.15234526 241.90660793 407.25901486 241.06651998 405.3671875 240.22290039 C393.88401491 235.11643204 383.77551461 231.58459442 371.125 233.625 C367.78498768 234.74677823 367.78498768 234.74677823 366.1875 237.875 C365.795625 238.90625 365.40375 239.9375 365 241 C364.34479418 242.33900245 363.68041155 243.67362813 363 245 C362.56429688 244.60167969 362.12859375 244.20335937 361.6796875 243.79296875 C353.54295354 236.55444569 346.66465649 234.67721854 336 235 C333.19629623 235.25034804 330.41444655 235.62543077 327.625 236 C320.96461244 236.81744653 314.39805407 237.19271107 307.6875 237.1875 C306.49664795 237.1884668 306.49664795 237.1884668 305.28173828 237.18945312 C301.39555046 237.15267269 297.79417069 236.94664937 294 236 C295.56327333 241.83367853 296.92054051 246.32549739 302 250 C305.28197522 251.24332497 308.58823289 252.18515077 312 253 C311.72542969 253.90878906 311.45085937 254.81757813 311.16796875 255.75390625 C308.45933919 266.27547527 309.65262616 272.95758646 314 283 C314.93199747 285.20660582 315.86289318 287.41367716 316.79296875 289.62109375 C318.29180534 293.17296067 319.79917367 296.71944399 321.34033203 300.25317383 C321.81196777 301.34009521 322.28360352 302.4270166 322.76953125 303.546875 C323.19854736 304.52495117 323.62756348 305.50302734 324.06958008 306.51074219 C325 309 325 309 325 312 C322.36 312.66 319.72 313.32 317 314 C317.07569978 317.1793909 317.36768037 319.30889688 319.5546875 321.69921875 C324.13248267 325.6216864 326.76380583 327.0858372 332.9296875 327.42578125 C336.02174785 326.78986695 337.13881709 325.51052895 339 323 C339.48195275 319.95559865 339.48195275 319.95559865 339.25 316.75 C339.21390625 315.67234375 339.1778125 314.5946875 339.140625 313.484375 C339.09421875 312.66453125 339.0478125 311.8446875 339 311 C339.88300781 311.3609375 340.76601563 311.721875 341.67578125 312.09375 C350.96686768 315.68643648 359.29583382 318.39186072 368.875 314.1875 C373.72409806 311.48334263 377.80779282 307.9283897 381.9765625 304.30273438 C392.08924339 295.52191006 402.39809814 289.44465418 415 285 C409.82252927 279.62914327 405.50895189 276.90355639 397.9375 276.5625 C393.23555019 276.72660447 390.55848509 277.78041825 387 281 C385.48392616 282.94246961 384.2588382 284.86965843 383 287 C380.13506824 286.9157373 378.46584707 286.4739994 376.4375 284.41015625 C375.41196179 283.15643578 374.40828648 281.88444271 373.4296875 280.59375 C371.12495346 278.02453828 368.98384822 277.99910268 365.625 277.8125 C362.2124095 277.9890133 360.04166167 278.52525495 357 280 C357.268125 280.53625 357.53625 281.0725 357.8125 281.625 C358.204375 282.40875 358.59625 283.1925 359 284 C359.598125 284.94875 360.19625 285.8975 360.8125 286.875 C362 290 362 290 361.0625 293.1875 C358.600048 296.54538909 356.92404416 297.64167702 353 299 C347.11929257 299.76231393 342.73318867 298.43708224 338 295 C332.49710611 289.29059574 330.00455692 283.5849126 329.5 275.6875 C329.6526055 269.45610859 331.60649868 265.39350132 336 261 C342.07720176 256.32438712 348.24742067 255.21433585 355.80859375 255.5 C360.82575726 256.28604275 364.70757401 258.39134332 369 261 C370.32736115 261.67847963 371.65885346 262.3491942 373 263 C373.43570312 262.45730469 373.87140625 261.91460937 374.3203125 261.35546875 C379.12768812 255.58037467 382.99976927 252.33108709 390.5625 251.0625 C403.74034727 250.19837887 414.60401226 257.90124718 425 265 C425.33 265.33 425.66 265.66 426 266 C430.24263796 266.22329673 433.39955 266.17155714 437.5 265 C444.68253798 263.06569274 453.7132603 262.47502537 460.7890625 264.9921875 C468.51886059 269.69381727 473.43784302 277.48423189 476 286 C474.40671875 285.67515625 474.40671875 285.67515625 472.78125 285.34375 C471.35424472 285.06210422 469.92715687 284.78087662 468.5 284.5 C467.80390625 284.35691406 467.1078125 284.21382813 466.390625 284.06640625 C459.37550737 282.7023556 453.0055601 281.61261924 446.75 285.8125 C438.81346841 291.24681954 431.85392386 297.91264528 425.3125 304.9375 C422.39551369 307.88226714 419.56599679 309.32797427 415.75 310.875 C402.77282284 316.1838452 391.75470427 323.34951394 380.62548828 331.82006836 C377.26736364 334.25770975 374.47887213 334.28086172 370.375 334.5625 C368.59222656 334.68818359 368.59222656 334.68818359 366.7734375 334.81640625 C365.85820312 334.87699219 364.94296875 334.93757813 364 335 C367.7593614 339.22928157 371.48419326 342.40133674 377 344 C379.51936003 344.10645183 382.04099151 344.16509765 384.5625 344.1875 C391.34114298 344.43607264 391.34114298 344.43607264 394.27734375 346.94921875 C395.41001851 348.54420974 396.49940268 350.17100224 397.5390625 351.828125 C399.81081177 355.20537793 402.11281857 356.06171483 406 357 C410.11437204 357.08382422 413.67861551 356.5285538 417.5 355 C419.60060907 352.19918791 419.8563336 349.57749803 420.3125 346.15625 C420.19696832 343.86531691 420.19696832 343.86531691 418.328125 342.29296875 C415.76277519 340.86825267 413.63583858 340.30613028 410.75 339.8125 C409.85796875 339.65394531 408.9659375 339.49539063 408.046875 339.33203125 C407.03367187 339.16767578 407.03367187 339.16767578 406 339 C407.40179132 334.53975488 409.5551433 332.11677511 413 329 C413.58394531 328.46117187 414.16789062 327.92234375 414.76953125 327.3671875 C417.7498615 325.5403651 419.83968934 325.66838283 423.3125 325.75 C424.4571875 325.77578125 425.601875 325.8015625 426.78125 325.828125 C430.25988082 326.01387713 433.57798397 326.36334586 437 327 C437.21914063 326.23816406 437.43828125 325.47632813 437.6640625 324.69140625 C440.14412126 316.61609295 442.89799074 308.13129427 450.4375 303.4375 C458.38839667 300.13224219 468.18421098 301.05907398 476.1875 303.6875 C480.25005949 305.3897909 482.77985586 307.06428993 485 311 C486.68600001 316.05800004 486.58520639 320.36758216 484.8125 325.3125 C482.76053748 328.35506512 481.37672835 329.58648581 478 331 C474.1226005 331.56545409 472.53592052 331.33346166 469.1875 329.25 C467.03365384 327.03461538 466.32284986 326.01326538 466 323 C462.65851561 324.17403506 460.18896282 325.15434834 458 328 C456.59361193 331.57989689 456.60120329 335.21143126 457 339 C460.02552606 342.97640567 462.14382901 344.33716057 467 345 C469.10323534 345.0659735 471.20835724 345.08562245 473.3125 345.0625 C474.91544922 345.04896484 474.91544922 345.04896484 476.55078125 345.03515625 C477.35902344 345.02355469 478.16726563 345.01195312 479 345 C478.40122666 348.51385405 477.08170458 350.4587465 474.75 353.125 C474.16734375 353.80820312 473.5846875 354.49140625 472.984375 355.1953125 C469.48893664 358.37423479 467.01798296 359.04281737 462.28515625 358.84375 C461.60622314 358.78517822 460.92729004 358.72660645 460.2277832 358.66625977 C450.58790077 357.92606809 445.74959395 360.33252503 438.421875 366.31640625 C435.03576596 369.08107621 431.48154312 371.08687782 427.5625 373 C426.47066406 373.53625 425.37882812 374.0725 424.25390625 374.625 C413.31899266 379.2457558 402.87257242 379.39684613 391.74609375 375.2890625 C387.7091776 373.3940663 384.33453132 370.94223352 381 368 C380.50494063 375.75593013 382.20026121 382.14296116 387.0625 388.3125 C392.99233239 394.57868843 400.79486923 396.24320934 409.06640625 397.5078125 C410.02353516 397.75144531 410.02353516 397.75144531 411 398 C412 400 412 400 411.875 403.6875 C411.81131446 408.69136363 413.09352775 412.70231523 416.3515625 416.62890625 C418.28042116 418.2332413 419.6131669 418.63602243 422.0625 419.125 C423.25166016 419.36863281 423.25166016 419.36863281 424.46484375 419.6171875 C427.0311598 420.00470518 429.53391841 420.13132451 432.125 420.25 C437.52762478 420.68052166 440.40641431 423.10893206 444 427 C444.66 424.69 445.32 422.38 446 420 C447.010625 420.33 448.02125 420.66 449.0625 421 C453.87377697 422.35104545 458.0542531 422.73505994 462.8125 420.9375 C465.90923268 418.19467963 466.4487815 416.06523642 467 412 C465.31385445 406.73079516 462.27068533 404.22674003 458 401 C457.319375 401.969375 456.63875 402.93875 455.9375 403.9375 C453.7263488 406.58085922 452.99715981 407.0008622 449.5 408.0625 C445.58370586 407.99256618 443.99404985 407.48078416 441 405 C438.0978577 400.31350166 438.15342882 395.32971766 439 390 C441.33457711 385.22153448 444.9319065 380.84294309 450 379 C456.44165162 378.23051943 461.27364824 379.01233821 467 382 C467.43570312 381.25234375 467.87140625 380.5046875 468.3203125 379.734375 C474.49524672 369.52301192 474.49524672 369.52301192 480 367 C483.875 366.25 483.875 366.25 487 366 C486.86722656 366.54527344 486.73445313 367.09054687 486.59765625 367.65234375 C486.22335744 369.25062699 485.87094575 370.85412254 485.53515625 372.4609375 C485.2114459 373.99678952 484.85368634 375.52672919 484.43359375 377.0390625 C482.92662964 384.0715617 485.90607392 389.93225418 488.5546875 396.328125 C491.94657668 404.94535697 491.88988959 412.14297648 488.29296875 420.609375 C486.98465639 423.02836945 485.55762647 424.80723618 483.6875 426.8125 C481.33646419 429.25209033 481.33646419 429.25209033 480.875 432.5625 C481.97432519 435.15271162 481.97432519 435.15271162 484 437.75 C486.45591587 441.74086329 487.25535693 445.31845632 487 450 C486.0078125 452.2734375 486.0078125 452.2734375 485 454 C484.31035156 453.51789063 483.62070312 453.03578125 482.91015625 452.5390625 C471.99807079 445.20446459 462.42741155 443.59388498 449.57080078 446.06811523 C448.84618652 446.21063721 448.12157227 446.35315918 447.375 446.5 C430.8232915 449.44791814 416.80958863 448.72343799 402.52734375 438.94921875 C396.18237126 434.05564646 392.36329694 429.14172613 389.36206055 421.75683594 C385.18746877 411.56673126 380.40342426 407.74858713 370.70019531 402.89697266 C363.25826757 398.97083215 358.66019892 392.89517752 356 385 C354.28260071 377.13093277 357.95933888 370.1133042 361 363 C361.67054443 361.33488968 362.33866493 359.66878943 363 358 C356.96713783 358.26812721 352.68340341 358.84880152 348 363 C346.14275795 365.56967618 344.5241708 368.22142315 343 371 C339.12603363 366.11009432 335.79873582 360.61269203 336.15625 354.1953125 C336.79787241 350.94002234 337.51341214 347.97317571 339 345 C338.154375 345.04640625 337.30875 345.0928125 336.4375 345.140625 C329.03463039 345.37617085 324.28721588 344.98996392 318 341 C317.67 340.67 317.34 340.34 317 340 C317.45982842 347.35725474 320.54272022 352.21939393 325.375 357.6875 C327 360 327 360 326.875 362.375 C326.19783654 364.40649037 325.48180137 366.42504622 324.75 368.4375 C323.68981916 371.95542838 323.68981916 371.95542838 325.0625 375.0625 C327.18566074 378.28148563 329.45213558 381.10782958 332 384 C330.82244141 383.96519531 330.82244141 383.96519531 329.62109375 383.9296875 C319.83333739 383.41377586 319.83333739 383.41377586 311.31640625 387.48046875 C306.01411163 393.24051542 304.571683 398.74044635 304.74609375 406.47265625 C305.35054131 412.48923426 307.63901856 417.76015694 312 422 C317.64010912 425.31771125 321.81242321 425.16455527 328 424 C328.33 423.01 328.66 422.02 329 421 C328.236875 420.731875 327.47375 420.46375 326.6875 420.1875 C324.01503114 419.00664167 322.82296267 418.22237584 321 416 C319.56297978 411.48242148 319.53933137 407.97661749 321.5625 403.6875 C326.05022375 398.73949689 330.05447492 396.35344445 336.6953125 395.90625 C341.28239064 396.09284301 345.1482583 397.31367443 348.57421875 400.43359375 C352.50490534 404.94994138 353.32921365 408.73212842 353.30078125 414.50390625 C352.79286916 418.71891696 350.96921327 422.28135173 349 426 C349.82242187 425.95359375 350.64484375 425.9071875 351.4921875 425.859375 C361.58360613 425.53309357 369.89298923 427.09825298 377.4609375 434.1640625 C381.26429767 438.70106575 383.80349757 443.72057178 384.3125 449.625 C384.209375 450.40875 384.10625 451.1925 384 452 C378.5668129 451.0961806 373.61267766 449.08026237 368.47265625 447.15625 C362.54058379 445.18111676 357.54248396 444.90367637 351.3125 445.3125 C350.60262939 445.35882568 349.89275879 445.40515137 349.16137695 445.45288086 C345.25478062 445.73676344 341.51976789 446.22156347 337.6875 447.0625 C324.73191681 449.63009667 310.90744754 449.53780847 299.48046875 442.43359375 C297.95564357 441.41129577 296.44954143 440.3599418 294.97265625 439.26953125 C292.2008847 437.45728059 292.2008847 437.45728059 289 437 C286.41825893 438.93756323 286.41825893 438.93756323 283.875 441.625 C276.74033487 448.48111671 269.86932023 452.62475674 259.82421875 453.140625 C255.05682708 452.9032445 250.34514467 452.02025176 246 450 C245.67 449.01 245.34 448.02 245 447 C245.53367187 446.67128906 246.06734375 446.34257812 246.6171875 446.00390625 C262.07372728 436.13632289 270.54094292 425.77703731 275 408 C278.77385531 394.42413996 285.92788043 384.63556875 295 374 C287.68945715 373.60836378 282.15971082 374.50162401 276.3125 379.125 C268.97779866 388.24381788 264.8767151 399.75465916 262 411 C256.75700994 406.72793403 253.27516055 399.60398936 252 393 C251.49298069 385.39471036 252.75744484 379.46648721 257.6875 373.5 C258.8321875 372.2625 258.8321875 372.2625 260 371 C259.4225 370.896875 258.845 370.79375 258.25 370.6875 C255.39238121 369.8143387 254.03220269 369.24243055 252 367 C250.55414935 362.31249694 250.47987033 359.04025934 252.6875 354.625 C254.68158404 352.36144515 256.47251947 350.62480891 259 349 C258.34 348.154375 257.68 347.30875 257 346.4375 C254.67585289 342.44287215 254.35064617 340.54547679 255 336 C257.45353346 330.99479173 260.74376456 327.87350966 266 326 C273.82506842 324.28410598 279.52159161 327.93131735 286 332 C286 332.66 286 333.32 286 334 C284.00669158 335.34331654 282.00615134 336.67594012 280 338 C277.51961093 341.7205836 277.53662797 343.59796571 278 348 C279.86708505 350.36497439 281.32061431 351.66030715 284 353 C289.5139174 353.36759449 293.37032495 353.3670364 298 350 C300.60706099 346.40517056 301.83390421 342.91352682 302.625 338.5625 C301.60654112 332.75728436 298.39659141 327.92067255 293.796875 324.234375 C293.20390625 323.82703125 292.6109375 323.4196875 292 323 C293.04396656 320.04209475 294.14313269 317.80319255 296 315.25 C300.10235112 308.58367942 300.24310305 301.65774597 300 294 C299.319375 294.70125 298.63875 295.4025 297.9375 296.125 C286.1662888 307.79673618 286.1662888 307.79673618 278.6171875 308.09375 C270.34257581 307.58765754 264.58878664 305.06399175 259.0625 298.875 C255.71272558 294.8308532 254.70280417 292.50061266 254.78125 287.09765625 C255.21730034 282.916245 256.92520093 279.97403666 260 277.1875 C263.99792388 274.81373269 267.42655666 274.59882076 272 275 C274.4375 276.5625 274.4375 276.5625 276 279 C276.25 282.75 276.25 282.75 276 286 C283.01318235 284.74689596 283.01318235 284.74689596 288 280 C289.72217678 274.14459896 288.7383913 269.32687066 286 264 C282.61877153 260.30423865 279.25261661 258.11867319 274.2890625 257.07421875 C269.65626654 256.92400864 265.34000866 258.52061094 261 260 C260.01 260.33 259.02 260.66 258 261 C257.76216797 259.515 257.76216797 259.515 257.51953125 258 C255.95971879 248.92712917 254.00701488 242.21250283 247.5625 235.4375 C245.06084397 233.79117702 245.06084397 233.79117702 242.0625 233.8125 C236.60518441 235.92860196 233.99617509 240.18553822 231.25 245.1875 C229.30010694 250.21799335 228.74167918 255.68608683 228 261 C227.14728516 260.69255859 227.14728516 260.69255859 226.27734375 260.37890625 C219.12819574 257.88446229 213.12138983 255.83583455 205.859375 258.91796875 C201.96502553 261.18421834 199.90616201 264.47600026 197.625 268.3125 C196.68474264 272.35560664 196.98533668 275.98644287 198 280 C200.20738376 283.44351867 202.43241488 284.25675219 206.25 285.25 C207.4875 285.4975 208.725 285.745 210 286 C209.9175 284.741875 209.835 283.48375 209.75 282.1875 C209.77067592 278.29353482 209.77067592 278.29353482 211.5625 276 C216.10068803 274.13817927 219.7270815 274.51041596 224.25 276.25 C227.6806862 278.43316395 229.54447298 280.37155908 230.65234375 284.33203125 C231.23965315 289.4408185 231.33019053 293.07120902 228.37109375 297.40234375 C222.57326967 304.15821284 216.59167825 307.44300305 207.68359375 308.14453125 C201.582733 307.81595505 196.90194722 304.87688037 192.62890625 300.66015625 C191.21723811 299.06731145 189.83650175 297.44622852 188.49609375 295.79296875 C187.75552734 294.90544922 187.75552734 294.90544922 187 294 C186.67 294 186.34 294 186 294 C185.68187931 304.02080162 186.71331151 310.95322399 192.7578125 319.15234375 C194 321 194 321 194 323 C193.0925 323.721875 192.185 324.44375 191.25 325.1875 C187.28582939 328.40016907 184.60122255 331.88959352 183.6171875 336.98046875 C183.3052678 342.35588486 184.80682025 345.71441665 188 350 C192.69661775 353.30898069 196.44699067 353.52885803 202 353 C205.03723095 352.27808606 205.03723095 352.27808606 207 350 C207.99972515 346.94789793 208.29219455 344.19728264 208 341 C205.93802845 337.41064212 203.84772066 335.51160454 200 334 C200 333.34 200 332.68 200 332 C211.18842339 324.97325185 211.18842339 324.97325185 217.86328125 325.4765625 C222.90442194 326.71150373 226.60101725 329.47383699 230.0625 333.25 C231.45207345 337.32608212 231.01219134 340.85376438 230 345 C228.4375 348.0625 228.4375 348.0625 227 350 C228.423125 350.86625 228.423125 350.86625 229.875 351.75 C232.91979021 353.94224895 233.74682484 354.65004884 235 358 C235.21451283 361.12418692 234.86673082 363.99128473 234 367 C231.625 369.5625 231.625 369.5625 229 371 C228.01 371 227.02 371 226 371 C226.61488281 371.74443359 226.61488281 371.74443359 227.2421875 372.50390625 C231.79586048 378.24502027 234.2825927 383.06712077 234.0625 390.5625 C233.19289791 397.60627695 229.61964872 403.98954404 226 410 C225.34 410.33 224.68 410.66 224 411 C223.43732422 409.22496094 223.43732422 409.22496094 222.86328125 407.4140625 C217.22160486 388.17551493 217.22160486 388.17551493 203 375 C199.66017019 374.21826605 199.66017019 374.21826605 196.1875 373.8125 C195.02605469 373.65394531 193.86460937 373.49539063 192.66796875 373.33203125 C191.34732422 373.16767578 191.34732422 373.16767578 190 373 C190.87011719 374.03447266 190.87011719 374.03447266 191.7578125 375.08984375 C200.91778122 386.10901404 208.15896594 396.229946 211.3125 410.3125 C214.97818199 425.21404397 223.11508185 435.76883933 236.0625 444.0625 C237.70108761 445.05374436 239.34433629 446.03754876 241 447 C240.67 447.99 240.34 448.98 240 450 C232.11217119 453.6674038 223.6477891 453.8767769 215.47265625 451.16015625 C209.02387315 448.29742631 204.34406282 443.86994111 199.4453125 438.9140625 C197.24624467 436.77888465 197.24624467 436.77888465 194.93359375 437.03515625 C192.7574314 438.12103928 190.89486225 439.36734469 188.9375 440.8125 C174.25677102 450.65499196 158.2096723 449.18203431 141.49414062 446.06811523 C129.32458557 443.81503804 117.89933357 445.64127913 106.8046875 451.23046875 C105 452 105 452 102 452 C102.23808733 444.50024917 103.9212341 439.61726291 109 434 C115.69212369 428.49575766 121.57271012 425.71163944 130.3125 425.875 C131.56675781 425.89304687 132.82101563 425.91109375 134.11328125 425.9296875 C135.54220703 425.96449219 135.54220703 425.96449219 137 426 C136.71125 425.45472656 136.4225 424.90945313 136.125 424.34765625 C133.38918249 418.79052692 132.04165008 414.19421291 133 408 C135.07951187 402.19925637 138.24951805 399.31273002 143.75 396.6875 C148.98581702 395.57992332 153.49746001 395.64820062 158.28515625 398.234375 C161.2789516 400.34252853 163.54462617 402.30783177 165.5625 405.375 C166.18272501 409.09635008 166.26094944 412.44051987 165 416 C163.17171362 418.12145183 161.33770092 419.37792181 159 421 C158.34 421.66 157.68 422.32 157 423 C161.49255328 425.6223501 165.05609654 425.16934064 170 424 C175.42172805 421.34028435 177.45775627 418.27280181 180 413 C182.47668631 404.71135647 180.90278944 397.57359488 177 390 C174.64876476 386.38271502 172.37208591 385.67862243 168.3125 384.75 C163.48917258 383.93297277 158.88271821 383.84249296 154 384 C154.40992188 383.56429688 154.81984375 383.12859375 155.2421875 382.6796875 C158.53686611 379.03820062 161.26959975 376.00845884 162 371 C160.66881935 367.42168849 160.66881935 367.42168849 159 364 C158.6168307 360.92979534 158.60505056 359.55184716 160.42578125 357.0078125 C161.35970703 356.07582031 161.35970703 356.07582031 162.3125 355.125 C166.69809374 350.41980834 169 346.62393578 169 340 C168.071875 340.639375 167.14375 341.27875 166.1875 341.9375 C161.77921556 344.78991934 158.47286914 345.20485065 153.3125 345.5625 C151.54326172 345.68818359 151.54326172 345.68818359 149.73828125 345.81640625 C148.83464844 345.87699219 147.93101562 345.93757813 147 346 C147.53625 347.134375 148.0725 348.26875 148.625 349.4375 C150.78820727 355.25047879 149.40005254 359.8247865 146.96484375 365.34765625 C146.02550184 367.25664142 145.0187952 369.13220881 144 371 C141.84765462 368.9829449 140.37195742 367.02819476 138.875 364.5 C135.87170461 360.18219234 132.04299061 358.94725226 127 358 C125.68 358 124.36 358 123 358 C123.42152344 359.03640625 123.84304687 360.0728125 124.27734375 361.140625 C124.83086716 362.51036091 125.38424494 363.88015568 125.9375 365.25 C126.21529297 365.93191406 126.49308594 366.61382812 126.77929688 367.31640625 C129.37309602 373.75402822 131.68339866 380.26380584 129.24609375 387.12109375 C124.95100527 396.03129691 118.3816665 402.00138562 109.40625 406.21875 C100.90177253 410.31349841 98.58626828 416.99868205 94.86865234 425.17822266 C89.74512743 435.92351297 80.45585794 441.80827569 69.69921875 446.0546875 C58.91289914 449.83224082 47.42252303 448.23483316 36.43115234 446.06738281 C23.06965802 443.5029018 13.37189015 445.62654382 2 453 C1.34 453.33 0.68 453.66 0 454 C-1.21330055 447.68498992 -1.25115065 442.70241502 2 437 C2.79470703 436.21302734 2.79470703 436.21302734 3.60546875 435.41015625 C5.24702361 434.07106857 5.24702361 434.07106857 5.0625 431.8125 C4.02335536 429.06182302 2.92363149 427.47503631 1.125 425.1875 C-3.35800335 419.43287551 -5.61373124 413.85189445 -5.359375 406.48828125 C-4.53140663 400.75550025 -2.46906607 395.10390223 0.00390625 389.87890625 C2.86793306 383.70134171 1.41400978 378.46650816 0 372 C-0.34310367 370.00165294 -0.67919704 368.00204809 -1 366 C4.91791922 366.12328998 7.84218443 367.92180525 12.1328125 371.9453125 C14.92378558 375.01655066 17.0323732 378.35799847 19 382 C19.94875 381.505 20.8975 381.01 21.875 380.5 C26.53573098 378.52415258 31.01138601 378.25789213 36 379 C40.42484878 381.21242439 43.19476657 383.94799616 46 388 C47.74702043 393.24106129 47.78453624 398.78483884 45.9375 404 C43.18164922 406.84474919 40.87722882 407.39836105 37 408 C32.48173033 407.05431565 30.61700523 404.68319254 28 401 C26.86800647 401.9080162 25.74467637 402.82683826 24.625 403.75 C23.99851563 404.26046875 23.37203125 404.7709375 22.7265625 405.296875 C20.8805909 407.11778816 19.93049366 408.58831235 19 411 C19.15356029 414.68544705 19.55254692 416.4659431 21.9375 419.3125 C25.67583278 422.37113591 28.19984881 422.23607301 33 422 C35.40040358 421.46502633 37.65713809 420.76501613 40 420 C40.66 422.31 41.32 424.62 42 427 C42.825 426.05125 43.65 425.1025 44.5 424.125 C48.83886492 420.31286971 53.69331165 420.04473751 59.22460938 419.67041016 C63.59336484 419.34621577 66.48596552 418.65821796 70 416 C73.17690735 411.5750219 74.04751302 408.15296323 74 402.8125 C74 399 74 399 75 398 C77.183243 397.561574 79.37181332 397.14957382 81.5625 396.75 C90.60821674 394.84709008 96.73078231 391.828552 102 384 C104.43587381 378.62732671 105.37455777 373.86807173 105 368 C104.34257812 368.58007812 104.34257812 368.58007812 103.671875 369.171875 C95.05766191 376.24533453 85.58379422 378.83435401 74.49609375 378.43359375 C62.24145293 376.91374444 48.5387318 369.26319367 39.58984375 360.69140625 C35.2433958 357.85277584 30.69741453 358.82707698 25.68164062 359.15625 C20.20599941 359.37619207 17.35833113 358.66305822 13 355 C11.1015625 353.18359375 11.1015625 353.18359375 9.625 351.4375 C9.12226563 350.85871094 8.61953125 350.27992188 8.1015625 349.68359375 C7 348 7 348 7 345 C8.17755859 345.03480469 8.17755859 345.03480469 9.37890625 345.0703125 C19.31792506 345.53578926 19.31792506 345.53578926 27.9375 341.3125 C29.45757511 338.00410123 29.37320225 335.60762175 29 332 C27.64184747 328.72808708 26.50104494 326.50104494 24 324 C21.93125966 323.3574765 21.93125966 323.3574765 20 323 C19.7525 323.763125 19.505 324.52625 19.25 325.3125 C17.79343664 328.44411122 17.14246745 329.54963041 14 331 C10.83881101 331.19793817 8.03246882 330.92534894 5 330 C1.16705814 326.35870523 -0.14158298 322.89597115 -0.3125 317.6875 C-0.22924957 313.02547593 0.7513016 310.49235078 4 307 C12.49904067 301.56618711 21.14682263 301.29397675 31 302 C36.21649808 303.18229972 39.12075056 305.74267545 42.25 310 C45.49123237 315.30463986 47.28990912 321.05491935 49 327 C49.886875 326.835 50.77375 326.67 51.6875 326.5 C58.62722632 325.55109865 66.00579824 324.66330278 72.5 327.5625 C75.53828674 330.52482957 77.7359897 333.40421893 80 337 C80 337.66 80 338.32 80 339 C75.38 339.99 70.76 340.98 66 342 C65.58403999 349.02780336 65.58403999 349.02780336 69 355 C72.76552953 357.51035302 76.95963012 357.50307388 81.34375 357.01953125 C84.94723425 355.63642921 86.33240165 353.52630138 88.6875 350.5 C93.01132407 345.20399536 93.01132407 345.20399536 97.578125 344.26171875 C100.14799533 344.21229817 102.71882409 344.19919566 105.2890625 344.22265625 C111.03514333 343.8778914 115.45745979 341.43898525 120 338 C120.66 337.01 121.32 336.02 122 335 C120.80117188 335.0309375 120.80117188 335.0309375 119.578125 335.0625 C109.90081629 334.8807665 104.53509203 331.8258872 97 326 C88.1530844 319.43795709 78.83852628 314.06506998 68.4375 310.375 C62.58019604 307.87094812 58.54873801 302.77751831 54.21484375 298.26953125 C50.14814249 294.06489368 45.74140476 290.42154563 41 287 C40.37609375 286.54753906 39.7521875 286.09507812 39.109375 285.62890625 C32.37527039 281.24567149 24.90498002 282.97786522 17.5 284.5 C16.77296875 284.64308594 16.0459375 284.78617187 15.296875 284.93359375 C13.52990929 285.28233698 11.76474691 285.64019723 10 286 C12.27715374 278.19097278 17.01781632 270.85419842 23.5 265.8125 C31.64626649 261.3514493 43.54059808 263.53908308 52 266 C57.85791912 266.57607498 61.06718003 265.17513975 65.6875 261.8125 C74.46920718 255.82646739 84.01494914 250.3697102 95 251 C103.21539931 252.61420785 107.88753741 256.50492174 113 263 C113.85980469 262.4946875 114.71960938 261.989375 115.60546875 261.46875 C123.71151303 256.9232614 130.50083407 254.28284308 140 256 C147.15940361 258.23975878 151.28998516 261.5373935 155 268 C156.96255228 273.88765685 156.75182596 279.92146567 154.4375 285.6875 C151.70260328 291.15729344 147.80338316 295.38805468 142.5 298.4375 C137.89734001 299.4730985 134.24405364 299.40670984 129.75 297.9375 C126.10940896 295.37253813 125.1080536 293.28447394 124 289 C125.1875 286.3125 125.1875 286.3125 127 284 C127.68096422 282.67391178 128.35330586 281.34313399 129 280 C124.86589566 277.99558578 121.57504719 277.59151364 117 278 C112.42563311 279.96044295 109.98838869 283.15778597 107 287 C104.8125 286.9375 104.8125 286.9375 102 286 C100.58441212 284.31316175 99.44564882 282.57600618 98.30859375 280.69140625 C96.22197358 277.99437183 94.06756296 277.15856721 90.73828125 276.6640625 C84.50043757 276.56361413 79.27693151 277.5036282 74 281 C72.2664364 283.04603855 72.2664364 283.04603855 71 285 C71.93199219 285.32871094 72.86398438 285.65742188 73.82421875 285.99609375 C86.6803181 290.71718345 96.52822002 297.54134172 106.578125 306.91796875 C113.74193212 313.07653197 120.51203455 316.34701045 129.9375 316.296875 C134.9785703 315.80819982 139.36644912 313.94890907 144 312 C144.99 311.67 145.98 311.34 147 311 C146.95359375 311.90363281 146.9071875 312.80726563 146.859375 313.73828125 C146.82328125 314.91777344 146.7871875 316.09726562 146.75 317.3125 C146.70359375 318.48425781 146.6571875 319.65601563 146.609375 320.86328125 C146.69296749 324.04448392 146.69296749 324.04448392 148.7734375 325.890625 C152.1521964 327.5740768 155.3539124 327.64631996 159 327 C162.33107164 325.30755015 162.33107164 325.30755015 165 323 C165.598125 322.566875 166.19625 322.13375 166.8125 321.6875 C168.69122063 319.0177391 168.6994456 316.18587661 169 313 C166.36 312.67 163.72 312.34 161 312 C161.57993038 307.65092658 162.65542085 304.02852532 164.3984375 300.0078125 C164.87796875 298.89019531 165.3575 297.77257812 165.8515625 296.62109375 C166.35429687 295.46738281 166.85703125 294.31367188 167.375 293.125 C176.05108318 273.69431833 176.05108318 273.69431833 174 253 C175.22976562 252.67128906 175.22976562 252.67128906 176.484375 252.3359375 C183.23761089 250.4393969 183.23761089 250.4393969 188.625 246.1875 C190.09018093 242.7909442 191.13749332 239.59377783 192 236 C191.03126953 236.24169922 191.03126953 236.24169922 190.04296875 236.48828125 C186.11000765 237.14966495 182.29422194 237.19073257 178.3125 237.1875 C177.48250488 237.18814453 176.65250977 237.18878906 175.79736328 237.18945312 C169.21031794 237.13465449 162.75398236 236.58801344 156.2277832 235.71166992 C145.4940104 234.29637969 136.51969513 234.39901954 127.5625 241.125 C126.92441406 241.64320313 126.28632813 242.16140625 125.62890625 242.6953125 C124 244 124 244 122 245 C121.72736328 244.06027344 121.72736328 244.06027344 121.44921875 243.1015625 C121.07216797 241.87566406 121.07216797 241.87566406 120.6875 240.625 C120.44386719 239.81289063 120.20023438 239.00078125 119.94921875 238.1640625 C119.08631815 235.66815371 119.08631815 235.66815371 116 234 C104.36709787 230.5785582 93.07969851 234.66264521 82.5 239.375 C81.61441406 239.76171875 80.72882813 240.1484375 79.81640625 240.546875 C76.34683354 242.06513149 72.88322038 243.59181443 69.4453125 245.18066406 C68.64867188 245.54643555 67.85203125 245.91220703 67.03125 246.2890625 C66.32548828 246.6185791 65.61972656 246.9480957 64.89257812 247.28759766 C63 248 63 248 60 248 C59.79503906 247.21753906 59.59007813 246.43507813 59.37890625 245.62890625 C59.10949219 244.61699219 58.84007813 243.60507812 58.5625 242.5625 C58.29566406 241.55316406 58.02882813 240.54382813 57.75390625 239.50390625 C57.24021923 237.08247999 57.24021923 237.08247999 56 236 C48.46138553 234.65980187 43.00594866 238.8298046 37 243 C33.04711456 246.05873827 29.30119109 249.35427402 25.55078125 252.65527344 C23.23066033 254.66711632 20.83322913 256.57928613 18.4375 258.5 C13.72534518 262.31823133 9.26760025 266.36081849 4.88256836 270.546875 C1.21238625 274 1.21238625 274 -1 274 C1.73722628 263.74452555 1.73722628 263.74452555 3.125 259.8125 C4.24666771 256.20713949 4.61162047 252.75433549 5 249 C1.50470706 250.11213866 -1.74469192 251.31573191 -5 253 C-4.855625 252.45472656 -4.71125 251.90945313 -4.5625 251.34765625 C-3.18471403 245.75040076 -2.81712563 240.76054255 -3 235 C-6.3 234.34 -9.6 233.68 -13 233 C-13 229.04 -13 225.08 -13 221 C-10.68880208 220.54427083 -8.37760417 220.08854167 -6.06640625 219.6328125 C-5.04353516 219.31957031 -5.04353516 219.31957031 -4 219 C-1.24702649 213.49405297 -3.56204462 206.66194932 -5 201 C-4.09507813 201.46019531 -4.09507813 201.46019531 -3.171875 201.9296875 C-0.82524427 203.08612063 1.5626303 204.052134 4 205 C4.29559791 199.3614699 3.32237778 195.00194762 1.5 189.6875 C-1 182.19425676 -1 182.19425676 -1 180 C3.02533283 181.6274671 5.8013633 184.47601265 8.875 187.4375 C15.08339122 193.29718495 21.62744625 198.56575732 28.39697266 203.75683594 C30.75740947 205.58737877 33.06277424 207.48414463 35.375 209.375 C42.82679882 215.56809793 42.82679882 215.56809793 51.8125 218.5 C55.28415995 217.95542589 55.91701223 217.66882808 58 215 C58.78356902 212.73606029 58.78356902 212.73606029 59.1875 210.3125 C59.34605469 209.50425781 59.50460938 208.69601563 59.66796875 207.86328125 C59.77753906 207.24839844 59.88710937 206.63351563 60 206 C63.68392931 206.61619383 66.79873132 207.6532576 70.203125 209.1796875 C71.18410156 209.61410156 72.16507812 210.04851562 73.17578125 210.49609375 C74.19027344 210.95113281 75.20476562 211.40617188 76.25 211.875 C89.02084546 217.59304306 100.56251135 222.53995734 114.8125 220.4375 C118.31860382 219.249239 118.31860382 219.249239 119.8125 215.5625 C120.204375 214.386875 120.59625 213.21125 121 212 C121.66 211.01 122.32 210.02 123 209 C123.65355469 209.59748047 123.65355469 209.59748047 124.3203125 210.20703125 C132.98210251 217.91264964 140.63055159 219.58619458 152 219 C154.48190709 218.68772504 156.96101597 218.35271136 159.4375 218 C165.88953781 217.09032967 172.23537732 216.80777198 178.75 216.8125 C179.60779053 216.81185547 180.46558105 216.81121094 181.34936523 216.81054688 C185.0898165 216.84338076 188.38113229 216.98034995 192 218 C190.43672667 212.16632147 189.07945949 207.67450261 184 204 C180.71802478 202.75667503 177.41176711 201.81484923 174 201 C174.33 199.906875 174.66 198.81375 175 197.6875 C177.6600135 186.59485749 175.10142516 178.20548264 170.75 167.875 C170.25886719 166.66457031 169.76773438 165.45414063 169.26171875 164.20703125 C166.86453581 158.33233491 164.38565674 152.51023583 161.67285156 146.77392578 C161 145 161 145 161 142 C163.64 141.67 166.28 141.34 169 141 C168.61104749 135.55466487 166.7851047 132.87313039 163 129 C159.90292373 126.65049387 156.76170273 126.73223073 153 126.63671875 C150.19936578 127.1454277 148.94530997 127.9083614 147 130 C146.51533634 133.19802776 146.51533634 133.19802776 146.75 136.6875 C146.78609375 137.86699219 146.8221875 139.04648438 146.859375 140.26171875 C146.90578125 141.16535156 146.9521875 142.06898438 147 143 C146.33613281 142.72285156 145.67226562 142.44570312 144.98828125 142.16015625 C144.10527344 141.79792969 143.22226563 141.43570313 142.3125 141.0625 C141.44238281 140.70285156 140.57226562 140.34320313 139.67578125 139.97265625 C132.37036745 137.31711167 124.4770903 136.53531404 117.25 139.75 C112.07261608 142.59756115 107.85837612 146.4366697 103.46289062 150.33496094 C94.99376125 157.77406106 82.74890474 168 71 168 C72.27831433 171.97697791 74.68124732 173.25108607 78.1484375 175.16796875 C82.90834342 177.30691381 87.85605233 177.63516571 93 177 C97.95392879 174.56977078 100.27314951 171.61467005 103 167 C105.125 167.0625 105.125 167.0625 108 168 C109.421875 169.58984375 109.421875 169.58984375 110.875 171.5 C113.13302905 174.30525547 113.78503826 174.93232686 117.375 176.0625 C121.6088237 175.98950304 124.94910668 175.20816116 129 174 C127.87504961 171.66356457 126.79813682 169.74245043 125.1875 167.6875 C124 165 124 165 124.9375 161.375 C127.34353548 157.43785104 128.6383454 156.39902129 133 155 C137.31860304 154.31040271 140.18231747 154.59115873 144.125 156.5625 C150.16439373 161.68285555 155.23184244 167.21510977 156.31640625 175.3828125 C156.597899 181.32140158 155.81427134 186.3000931 152 191 C144.28194934 197.29233615 137.82469941 198.94768379 127.94335938 198.3046875 C123.86044085 197.66455153 120.63231376 195.49285771 117.26953125 193.21484375 C115.11184168 191.80342681 115.11184168 191.80342681 112.8515625 192.13671875 C110.29630945 193.32809201 108.99457554 195.32231441 107.2890625 197.50390625 C104.02019929 201.29776871 99.84353491 202.65652351 95.02734375 203.23828125 C83.52137845 203.64690432 74.69234635 197.91396157 65.45727539 191.7097168 C60.78736227 188.67594018 57.74926534 187.2919624 52 188 C50.845 188.33 49.69 188.66 48.5 189 C41.52630194 190.88330789 31.69081788 191.90720418 25.0625 188.5625 C18.76689547 183.29474927 13.61927883 177.38936095 10 170 C10 169.34 10 168.68 10 168 C11.07378906 168.2165625 12.14757812 168.433125 13.25390625 168.65625 C14.69003672 168.93784421 16.12623851 169.21907484 17.5625 169.5 C18.26697266 169.64308594 18.97144531 169.78617188 19.69726562 169.93359375 C27.93129914 171.52727766 33.78579399 171.55831871 41 167 C43.43316369 165.22940651 45.69076476 163.31244326 47.9375 161.3125 C48.84471802 160.52456055 48.84471802 160.52456055 49.77026367 159.72070312 C53.29289265 156.62871683 56.59074032 153.40828261 59.8125 150 C63.11508042 146.63112691 65.95355506 144.76210477 70.3203125 143.0546875 C83.31246583 137.94115776 94.31017676 130.60110448 105.37451172 122.17993164 C108.73263636 119.74229025 111.52112787 119.71913828 115.625 119.4375 C117.40777344 119.31181641 117.40777344 119.31181641 119.2265625 119.18359375 C120.14179688 119.12300781 121.05703125 119.06242187 122 119 C117.1905978 113.58942253 112.67095337 110.32458956 105.2890625 109.671875 C102.64975013 109.53468461 100.03626729 109.4901722 97.390625 109.46875 C93.4617004 108.9255807 92.37119398 108.0990425 90 105 C89.566875 104.154375 89.13375 103.30875 88.6875 102.4375 C86.39773667 99.13006408 83.83482679 97.84071203 80 97 C75.2144814 96.72139104 71.97095412 97.36590751 67.9375 100 C65.19972677 104.23913274 65.62812002 107.01680833 66 112 C70.62 112.99 75.24 113.98 80 115 C77.50918336 121.2270416 75.05390774 124.99869828 69 128 C65.87890625 128.36328125 65.87890625 128.36328125 62.5625 128.3125 C61.47066406 128.30863281 60.37882812 128.30476562 59.25390625 128.30078125 C55.8991652 127.99067914 53.14149973 127.18931589 50 126 C49.75765625 126.6290625 49.5153125 127.258125 49.265625 127.90625 C42.28223762 145.740747 42.28223762 145.740747 34.0625 150.8125 C25.51459674 154.05288163 15.45643994 152.61894798 7.21875 149.21484375 C3.54839785 147.20519671 1.82341115 144.6468223 0 141 C-0.5917588 135.31001158 -0.25047199 130.87570798 3 126 C5.48512213 123.33736914 6.77706951 123.02837297 10.4375 122.5625 C14.58534295 123.07188422 16.15353212 123.98609283 19 127 C19.8125 129.25 19.8125 129.25 20 131 C23.63471826 129.5461127 25.64393964 128.52222186 27.875 125.25 C29.18363271 121.46950549 29.57742639 118.96980642 29 115 C26.29088747 111.53835621 24.30904544 109.71069326 20 109 C17.75092848 108.93209325 15.49998395 108.91500016 13.25 108.9375 C11.49429687 108.95103516 11.49429687 108.95103516 9.703125 108.96484375 C8.81109375 108.97644531 7.9190625 108.98804688 7 109 C7.516096 105.05458188 8.39272591 103.07660211 11.25 100.3125 C11.83265625 99.73113281 12.4153125 99.14976562 13.015625 98.55078125 C18.33469927 94.39394565 23.61916403 94.85888406 30.02929688 95.25390625 C35.34359443 95.42517271 37.85453004 94.21273922 42 91 C43.20160728 90.1872218 44.41177265 89.3869941 45.62890625 88.59765625 C46.2645752 88.18435059 46.90024414 87.77104492 47.55517578 87.34521484 C60.5361872 79.05012436 72.01902042 73.78196147 87.7890625 76.4765625 C94.12916752 78.10575357 100.32989064 81.32989064 105 86 C105.49505937 78.24406987 103.79973879 71.85703884 98.9375 65.6875 C93.00766761 59.42131157 85.20513077 57.75679066 76.93359375 56.4921875 C76.29550781 56.32976562 75.65742187 56.16734375 75 56 C74 54 74 54 74.125 50.875 C73.94345874 45.24722101 72.85332002 40.93645961 68.91015625 36.81640625 C65.09672249 34.43620934 62.0301236 34.35409902 57.625 34.125 C48.42205721 33.39126905 48.42205721 33.39126905 44.4375 29.875 C43.633125 28.92625 42.82875 27.9775 42 27 C41.34 29.31 40.68 31.62 40 34 C38.4840625 33.505 38.4840625 33.505 36.9375 33 C32.10474588 31.64292359 27.91093826 31.1931594 23.1875 33.1875 C20.58291568 35.34558415 19.78107369 36.71949049 19 40 C19 44.62316903 21.5739091 47.27930494 24.4296875 50.64453125 C26.03276117 52.32671187 26.03276117 52.32671187 29 52 C29.86625 50.7934375 29.86625 50.7934375 30.75 49.5625 C33 47 33 47 36.4375 46 C40.4184894 46 41.96134393 46.4822564 45 49 C47.75652498 53.46248625 47.50798962 57.91204048 47 63 C45.07278083 68.67458978 41.35898258 72.32050871 36 75 C29.55611483 75.61258141 24.73094051 74.99005592 19 72 C18.47212891 72.87011719 18.47212891 72.87011719 17.93359375 73.7578125 C10.37430287 85.71846596 10.37430287 85.71846596 4 87.5859375 C2.0625 87.875 2.0625 87.875 -1 88 C-0.86722656 87.45472656 -0.73445312 86.90945312 -0.59765625 86.34765625 C-0.22335744 84.74937301 0.12905425 83.14587746 0.46484375 81.5390625 C0.7885541 80.00321048 1.14631366 78.47327081 1.56640625 76.9609375 C3.0764214 69.91420014 0.08961248 63.99085587 -2.5546875 57.57421875 C-5.51440249 50.25492356 -6.49360035 42.84152448 -3.375 35.375 C-1.80186525 32.14893381 0.1093564 29.52489377 2.375 26.75 C3.92337487 24.86314881 3.92337487 24.86314881 5 23 C4.48978575 19.86582673 3.26202008 18.36682812 1.4375 15.8125 C-0.64902173 11.73017487 -0.96910649 7.55679329 -1 3 C-0.67 2.01 -0.34 1.02 0 0 Z " fill="#000000" transform="translate(13,29)"/>
</svg>
