<?xml version="1.0" encoding="UTF-8"?>
<svg version="1.1" xmlns="http://www.w3.org/2000/svg" width="512" height="512">
<path d="M0 0 C3.76478859 1.25492953 4.69380667 2.83097519 7.125 5.9375 C10.90001931 10.66853069 14.81664901 15.20143176 18.890625 19.67578125 C20.74626657 21.72042335 22.56756376 23.78784149 24.375 25.875 C26.48816879 28.31212155 28.64280188 30.70095084 30.84375 33.05859375 C31.34342285 33.59564941 31.8430957 34.13270508 32.35791016 34.68603516 C33.35346721 35.75336716 34.35302431 36.81698496 35.35693359 37.87646484 C37.57093181 40.25278651 38.9592042 41.87761261 40 45 C42.00016466 46.20882096 42.00016466 46.20882096 44 47 C44 47.66 44 48.32 44 49 C44.99 49.33 45.98 49.66 47 50 C49.1875 51.9375 49.1875 51.9375 51 54 C51 54.66 51 55.32 51 56 C51.66 56 52.32 56 53 56 C53 56.66 53 57.32 53 58 C53.59425781 58.27457031 54.18851562 58.54914063 54.80078125 58.83203125 C56.90690972 59.95056129 58.42400242 61.09817502 60.1875 62.6875 C62.87824284 65.06134593 65.63823646 67.27289521 68.5 69.4375 C86.64889317 83.57710985 97.93916903 104.76849253 103 127 C103.19464844 127.85207031 103.38929688 128.70414063 103.58984375 129.58203125 C104.00757132 132.04463471 104.09973595 134.31769106 104.0625 136.8125 C104.05347656 137.60269531 104.04445313 138.39289063 104.03515625 139.20703125 C104.01775391 140.09455078 104.01775391 140.09455078 104 141 C104.56203125 140.97679687 105.1240625 140.95359375 105.703125 140.9296875 C130.68788293 140.39320497 157.12052524 144.94492196 180 155 C180.70302246 155.30808594 181.40604492 155.61617187 182.13037109 155.93359375 C206.89328319 167.03401098 226.67649854 185.32922809 240 209 C240.60714844 210.06605469 241.21429688 211.13210937 241.83984375 212.23046875 C251.8481795 230.91123548 257.02669821 253.5523779 257.23828125 274.6875 C257.24812042 275.49926193 257.25795959 276.31102386 257.26809692 277.14738464 C257.69703531 321.7412973 248.40987291 362.55359651 216.625 395.625 C203.66658863 408.08045933 188.71419057 418.34989411 172 425 C170.86812256 425.45052734 170.86812256 425.45052734 169.71337891 425.91015625 C141.06255594 436.99705637 109.03695286 439.53967299 79 433 C77.08767578 432.59974609 77.08767578 432.59974609 75.13671875 432.19140625 C44.96560855 425.02297986 20.95363207 405.87717053 3.6171875 380.65234375 C2 378 2 378 2 376 C1.34 376 0.68 376 0 376 C-0.24878906 376.71027344 -0.49757812 377.42054688 -0.75390625 378.15234375 C-7.85822259 394.38759959 -23.70941472 407.30357851 -38 417 C-38.57588867 417.39203613 -39.15177734 417.78407227 -39.74511719 418.18798828 C-53.96816439 427.62661412 -71.25700837 432.4423162 -88 435 C-89.1859375 435.18304688 -90.371875 435.36609375 -91.59375 435.5546875 C-128.23929547 439.94426748 -169.35295686 431.63149881 -199.078125 408.953125 C-223.78606232 389.51621431 -240.24853849 366.01169429 -249.1875 335.8125 C-249.42557373 335.02464111 -249.66364746 334.23678223 -249.90893555 333.42504883 C-254.27583279 317.95187525 -255.55933881 302.32127058 -255.4375 286.3125 C-255.43412628 285.44458832 -255.43075256 284.57667664 -255.42727661 283.6824646 C-255.20960437 244.85089384 -244.38736728 208.47919573 -216.52197266 180.49169922 C-187.11253956 151.66724683 -144.26768414 140.56223425 -103.94921875 140.96484375 C-102.98435547 140.98224609 -102.98435547 140.98224609 -102 141 C-102.103125 139.741875 -102.20625 138.48375 -102.3125 137.1875 C-102.25020282 122.50613018 -96.14389171 108.52917834 -89 96 C-88.44441406 95.00484375 -87.88882813 94.0096875 -87.31640625 92.984375 C-80.53829898 81.60625728 -71.17914213 72.79747698 -61.0234375 64.484375 C-57.82554767 61.85665158 -54.74277017 59.12648775 -51.68359375 56.33984375 C-50 55 -50 55 -47.91015625 54.06640625 C-45.85883971 53.15672974 -45.85883971 53.15672974 -45.06884766 51.1315918 C-43.94526689 48.89084633 -42.78080916 47.56386372 -40.98828125 45.828125 C-40.39877686 45.25030273 -39.80927246 44.67248047 -39.2019043 44.07714844 C-38.57840088 43.47418945 -37.95489746 42.87123047 -37.3125 42.25 C-32.91759465 37.93013098 -28.61515805 33.61573168 -24.62890625 28.91015625 C-22.67762284 26.6219606 -20.65182313 24.4090094 -18.625 22.1875 C-13.890673 16.94419245 -9.44232785 11.49061412 -5 6 C-3.34120892 3.99321079 -1.67209535 1.99572671 0 0 Z M-4.87353516 55.55126953 C-5.61547623 56.27831589 -5.61547623 56.27831589 -6.37240601 57.02005005 C-8.01699295 58.63529778 -9.6535808 60.25834879 -11.2890625 61.8828125 C-12.43289 63.01512841 -13.57671938 64.14744243 -14.72055054 65.27975464 C-17.12702953 67.66517529 -19.52877305 70.05526408 -21.92822266 72.44775391 C-24.97402372 75.48269076 -28.03783617 78.49869638 -31.10669899 81.51028633 C-33.48332476 83.84923923 -35.84601605 86.20191665 -38.20539474 88.55825424 C-39.3269168 89.67379707 -40.45334947 90.78442899 -41.58510208 91.88959122 C-60.08148903 109.98276501 -69.19492841 135.40101437 -70.07568359 161.21850586 C-70.09746369 163.48000635 -70.08797547 165.73856201 -70.0625 168 C-70.05573242 169.16208984 -70.05573242 169.16208984 -70.04882812 170.34765625 C-70.03719758 172.23180524 -70.01926906 174.11591365 -70 176 C-71.06992188 175.97679687 -72.13984375 175.95359375 -73.2421875 175.9296875 C-115.81747658 175.30337098 -164.29319885 181.17981369 -196.25 212.1640625 C-216.61519721 233.16567212 -222.57006257 262.0274176 -222.2109375 290.3515625 C-221.37845939 320.16661187 -210.58505409 349.81715189 -189 371 C-164.30868847 393.09852437 -135.71552101 404.67181182 -102.44042969 403.16845703 C-82.23322325 401.77360184 -64.37403882 393.00068716 -50 379 C-49.13375 378.195625 -48.2675 377.39125 -47.375 376.5625 C-46.59125 375.716875 -45.8075 374.87125 -45 374 C-44.12988281 373.08154297 -44.12988281 373.08154297 -43.2421875 372.14453125 C-27.45293194 354.15716364 -22.08965797 329.34904297 -23 306 C-23.96133398 291.92670093 -28.09185308 278.37898861 -38 268 C-38.64453125 267.31550781 -39.2890625 266.63101563 -39.953125 265.92578125 C-53.32061761 252.92960788 -71.68136916 248.32376797 -89.83813477 248.52929688 C-104.10352014 249.04949714 -115.61062305 255.04729361 -125.375 265.375 C-136.42661336 278.19277309 -140.93879755 292.19368311 -140 309 C-138.90209398 317.6022746 -134.52081467 323.43812866 -128 329 C-121.12764872 333.47072315 -114.10942901 335.95940955 -106 337 C-106.28875 336.30777344 -106.5775 335.61554688 -106.875 334.90234375 C-110.66555474 324.91265262 -112.11249234 314.49109887 -108.125 304.3125 C-107.44772008 302.86011084 -106.74146663 301.42069335 -106 300 C-105.62617188 299.25105469 -105.25234375 298.50210938 -104.8671875 297.73046875 C-104.58101563 297.15941406 -104.29484375 296.58835937 -104 296 C-103.34 296 -102.68 296 -102 296 C-102 295.34 -102 294.68 -102 294 C-101.34 293.7525 -100.68 293.505 -100 293.25 C-96.91493001 291.96455417 -94.00806588 290.47608359 -91.0625 288.90234375 C-82.72283352 285.25373967 -71.70886381 286.01361269 -63.28125 288.96875 C-55.67883471 292.40545828 -51.10254618 297.26247592 -48 305 C-43.74547821 318.36498991 -45.49640719 331.39768525 -51.75 343.6875 C-58.88633443 356.10612119 -70.8762147 362.82177563 -84.40625 366.6875 C-105.12912037 371.2925823 -129.83072468 367.69480301 -147.875 356.625 C-149.60076218 355.4416923 -151.31064887 354.23473275 -153 353 C-153.70640625 352.50113281 -154.4128125 352.00226563 -155.140625 351.48828125 C-169.17653408 340.51927356 -175.66213446 321.41305457 -178.40234375 304.51953125 C-181.08007828 282.62079817 -177.35273642 261.01815035 -164 243 C-161.15586227 239.49952279 -158.16164341 236.21541285 -155 233 C-154.32453125 232.31164062 -153.6490625 231.62328125 -152.953125 230.9140625 C-138.37207863 217.04562366 -117.23368333 207.54044669 -97 207.6875 C-96.17967285 207.69241455 -95.3593457 207.6973291 -94.51416016 207.70239258 C-75.51878129 208.05876153 -57.48643542 214.00542583 -40 221 C-39.01 221.33 -38.02 221.66 -37 222 C-37.13277344 221.21496094 -37.26554688 220.42992187 -37.40234375 219.62109375 C-37.66724609 218.04521484 -37.66724609 218.04521484 -37.9375 216.4375 C-38.11152344 215.40496094 -38.28554687 214.37242187 -38.46484375 213.30859375 C-38.64144531 212.21675781 -38.81804687 211.12492188 -39 210 C-39.18046875 208.99710938 -39.3609375 207.99421875 -39.546875 206.9609375 C-42.65497491 179.79185727 -39.33007995 152.56129467 -23 130 C-21.86177229 128.57721536 -20.7160075 127.16042508 -19.5625 125.75 C-11.39992638 115.41924276 0 96.36018758 0 83 C0.66 83 1.32 83 2 83 C2.22429687 84.24136719 2.44859375 85.48273438 2.6796875 86.76171875 C4.028996 92.80525025 6.51594607 98.22003237 9.125 103.8125 C9.86423706 105.40807739 9.86423706 105.40807739 10.6184082 107.03588867 C14.16476743 114.5474866 17.97354792 121.36673127 23 128 C40.65282493 151.31753741 45.22222483 179.97544791 41.328125 208.7734375 C40.67837612 212.87763216 39.89122634 216.94173718 39 221 C43.98676992 220.23982166 48.53723969 218.41323629 53.25 216.6875 C59.84934755 214.3243673 66.41983183 212.21239023 73.25 210.625 C74.24821777 210.3923645 74.24821777 210.3923645 75.26660156 210.1550293 C99.25042265 204.84847281 122.2045536 208.38438129 143.125 221.6875 C163.27557697 235.82778504 175.51479502 254.06395547 180.46484375 278.2734375 C183.68572921 299.18713216 178.84447393 321.08197148 168 339 C167.5771875 339.69996094 167.154375 340.39992188 166.71875 341.12109375 C156.80282763 356.162476 139.35162141 362.80722097 122.5859375 366.81640625 C103.598068 370.25345098 84.06036362 368.54630379 67.4375 358.3125 C57.95128667 351.7069169 50.66523122 341.83633188 48.28515625 330.375 C46.88195847 318.68809248 47.21838425 305.76326622 54.625 296 C61.24462356 289.228782 70.00327778 286.88423955 79.1875 286.75 C88.52498966 286.85538927 95.22672385 288.74627767 102.40625 294.79296875 C103.93251909 296.20124828 103.93251909 296.20124828 106 296 C106.2475 296.639375 106.495 297.27875 106.75 297.9375 C107.85937516 300.84086178 107.85937516 300.84086178 109.0234375 302.80859375 C113.33138611 310.88981651 113.28298372 319.85700493 111.09375 328.6328125 C110.15436192 331.47110648 109.15069489 334.24141448 108 337 C119.18772164 334.6355846 129.87448802 331.53226736 137 322 C143.0175257 311.15744607 143.42281758 300.04635225 140.109375 288.15234375 C136.97202467 279.23740813 132.81659363 270.6580682 126 264 C125.34 264 124.68 264 124 264 C123.67 263.01 123.34 262.02 123 261 C111.87554979 250.77229196 98.55075661 247.97650713 83.96875 248.5859375 C65.74092308 249.84278689 49.30436838 257.17897134 37.1953125 271.0703125 C25.35856521 286.08708145 23.4578515 304.77811575 25.21826172 323.29589844 C28.5530994 349.65811263 40.41353108 371.49920752 61.47021484 387.83984375 C80.36739893 402.17106283 105.14655653 405.51503779 128.16796875 402.3828125 C152.31112655 398.41135405 173.8606019 387.35944743 191 370 C191.87269531 369.12601562 192.74539063 368.25203125 193.64453125 367.3515625 C209.56387834 350.67415127 219.60595599 328.77166736 223 306 C223.11085938 305.28714844 223.22171875 304.57429687 223.3359375 303.83984375 C226.76597542 276.81670718 223.10704227 245.59980349 207 223 C205.68979714 221.31508932 204.35721059 219.64728109 203 218 C202.01386719 216.78763672 202.01386719 216.78763672 201.0078125 215.55078125 C198.60928913 212.67592301 198.60928913 212.67592301 196 210 C195.34 210 194.68 210 194 210 C194 209.34 194 208.68 194 208 C163.3029619 178.87954694 111.76482085 175.13763039 72 176 C72.04640625 175.1234375 72.0928125 174.246875 72.140625 173.34375 C72.93448533 145.44522992 66.25102186 116.66660168 47 96 C43.48925284 92.35283088 39.92507188 88.76137648 36.34765625 85.1796875 C35.35632998 84.18513809 34.36507466 83.19051796 33.37388611 82.1958313 C31.31928607 80.13530833 29.26269667 78.07679553 27.20483398 76.01953125 C24.56460468 73.37940482 21.93139672 70.73238778 19.29976749 68.08369255 C17.26577587 66.03862554 15.22729943 63.99807588 13.18749809 61.95880508 C12.21342781 60.983554 11.24098042 60.0066792 10.27018929 59.02816391 C8.92321692 57.67145468 7.56932511 56.32162565 6.21508789 54.97216797 C5.44725479 54.20290985 4.67942169 53.43365173 3.88832092 52.64108276 C-0.03798144 49.22885179 -1.74017827 52.46571087 -4.87353516 55.55126953 Z " fill="#000000" transform="translate(255,38)"/>
</svg>
