<?xml version="1.0" encoding="UTF-8"?>
<svg version="1.1" xmlns="http://www.w3.org/2000/svg" width="512" height="512">
<path d="M0 0 C3.46673011 1.04001903 6.58293143 2.27484883 9.75 4 C18.05012081 8.21143933 26.98451118 8.28196813 36.11328125 8.2734375 C38.43685377 8.29372692 40.76042145 8.31457771 43.08398438 8.3359375 C46.69755173 8.35848095 50.31092617 8.37499745 53.92456055 8.38085938 C77.13097866 8.44413954 95.14530978 11.55130613 112.4296875 28.36328125 C125.21349001 41.80419511 136.08412094 58.72589773 140 77 C140.24492187 75.9584375 140.48984375 74.916875 140.7421875 73.84375 C146.2911863 51.94916279 161.68241953 29.48826929 181.09765625 17.63671875 C192.38840309 11.26952773 202.14057226 8.7188131 215.0234375 8.65625 C216.16479156 8.6416272 217.30614563 8.62700439 218.48208618 8.61193848 C222.11302226 8.56566278 225.74390623 8.5313441 229.375 8.5 C234.15384098 8.45862751 238.93231274 8.40487033 243.7109375 8.34375 C244.79353851 8.3384729 245.87613953 8.3331958 246.99154663 8.32775879 C256.15230694 8.20897434 264.35366632 7.31260808 272.5 2.875 C277.83732057 0 277.83732057 0 280 0 C279.00906542 7.83529669 275.49939416 15.11064756 269.625 20.5 C261.73085395 26.49402337 252.61936614 27.08542954 243 27 C243.41572266 27.79664063 243.41572266 27.79664063 243.83984375 28.609375 C244.20207031 29.31578125 244.56429688 30.0221875 244.9375 30.75 C245.29714844 31.44609375 245.65679687 32.1421875 246.02734375 32.859375 C248.25488871 37.7617631 248.97641058 42.85313458 247.3515625 48.08984375 C244.98565581 53.51929627 242.34908191 55.56859913 237 58 C231.56939165 59.81020278 226.90256228 59.70097747 221.75 57.3125 C217.64856021 55.04824738 215.09951819 52.19903639 213 48 C212.76811594 40.69565217 212.76811594 40.69565217 214 37 C214.66 37 215.32 37 216 37 C217.38123963 38.96722008 218.71488126 40.96868328 220 43 C221.05310277 44.27003323 221.05310277 44.27003323 223.4375 44.1875 C226.16734675 44.26839983 226.16734675 44.26839983 228 42 C227.92655541 38.03399191 227.71665252 35.78383869 225 32.8125 C216.71701424 27.8081961 208.75260883 24.85816563 199 26 C188.63918803 28.86248848 177.99641385 35.20910708 171.6875 44.0625 C169.85557362 47.51365719 169.49697913 50.28214824 170.28125 54.10546875 C171.56077455 57.47812856 173.41835294 59.47982072 176 62 C180.4791349 63.49304497 184.99215951 63.72076325 189.4375 62.125 C191.15893274 61.06925899 191.15893274 61.06925899 192 59 C192.50380686 53.26749088 192.50380686 53.26749088 190.3125 48.125 C187.93441522 45.9397329 186.06867635 44.93765111 183 44 C183 43.34 183 42.68 183 42 C187.35049665 40.54983445 191.45334185 40.48929893 196 41 C201.59965608 43.79982804 204.97422342 47.45998181 207.3125 53.25 C208.58139835 60.17126371 207.69951495 65.93279549 204 72 C203.34 72.66 202.68 73.32 202 74 C202.72960937 73.6390625 203.45921875 73.278125 204.2109375 72.90625 C215.04252278 68.0922121 227.37597604 66.5015847 238.75 70.6875 C242.69310761 72.59083395 245.8294829 74.99635222 249 78 C248 81 248 81 244.67578125 82.90234375 C243.22807068 83.59494682 241.77307615 84.27245697 240.3125 84.9375 C239.54881104 85.29013916 238.78512207 85.64277832 237.99829102 86.00610352 C228.76639741 90.15637922 219.1532227 93.32311849 209 94 C208.28199219 94.0515625 207.56398438 94.103125 206.82421875 94.15625 C193.80335862 94.66770768 181.77228236 91.18152157 171 84 C171.33 84.495 171.66 84.99 172 85.5 C173.40017672 89.00044181 173.47803793 92.30807628 173 96 C171.35024446 99.71194997 169.43479361 101.85325399 166 104 C161.19651495 105.60116168 155.8351138 105.6117046 151 104 C151.33 104.969375 151.66 105.93875 152 106.9375 C153.26873752 111.29766837 153.18385528 115.49554566 153 120 C153.5671875 119.2575 154.134375 118.515 154.71875 117.75 C167.20543629 102.69755626 186.2679955 99.16208919 204.7900238 97.41256714 C208.31724632 97.09492142 211.84577959 96.79452946 215.375 96.5 C244.56656494 94.05426794 284.58487218 89.9134948 305 66 C309.71968488 59.61115828 312.05773169 54.01908215 311 46 C309.30032858 40.56740537 307.15853 36.14906181 302.0625 33.3125 C298.41312609 31.85275044 295.78373165 31.68009361 292 33 C289.93597315 33.98048938 289.93597315 33.98048938 289 36 C289.23477199 39.64541845 289.23477199 39.64541845 290 43 C290.886875 43.268125 291.77375 43.53625 292.6875 43.8125 C298.43119266 45.87155963 298.43119266 45.87155963 301 48 C301.8125 51.6875 301.8125 51.6875 302 55 C298.49919074 57.62560695 295.64984895 58.5435423 291.24609375 58.34375 C284.18470226 57.26305009 278.49632416 54.61034703 274.18359375 48.84375 C270.25027521 42.71660032 268.88741156 37.16763709 270 30 C272.62952877 21.84359131 277.53126919 16.25796729 284.8359375 11.90625 C292.30445374 8.50287551 301.61848742 8.82540447 309.25 11.5 C316.31955047 14.79298279 322.2759131 19.49351642 325.4375 26.75 C327.34836931 32.35172646 328.23555789 38.14598276 329 44 C329.35191406 43.09378906 329.70382812 42.18757813 330.06640625 41.25390625 C335.69698815 27.36121722 342.50358373 18.07173368 356.5625 11.9375 C367.36514886 7.62801523 380.34193775 4 392 4 C389.68809519 20.07055786 387.02677544 36.16865054 378 50 C377.62359375 50.59039062 377.2471875 51.18078125 376.859375 51.7890625 C370.93893089 59.91924983 359.99875529 63.50563798 351 67 C351.89460938 67.08636719 352.78921875 67.17273438 353.7109375 67.26171875 C364.63478071 68.53112057 373.46742989 70.81120598 380.52734375 79.70703125 C385.31019671 87.15407287 387.25555714 95.22378242 386 104 C383.80907361 112.10759924 380.05624835 118.32341651 372.8125 122.8125 C366.43612281 126.07999677 360.2384922 126.90123633 353.3125 124.9375 C347.05473961 122.47198663 342.64271359 118.83291746 339.5625 112.8125 C337.53444731 107.6857917 337.23271971 102.44233697 338 97 C338.66 96.01 339.32 95.02 340 94 C343.41641102 93.48011137 345.22964971 93.43974524 348.0625 95.5 C349.75293764 97.68120986 351.06141015 99.80712098 352.4375 102.1875 C354.36556195 105.3841364 354.36556195 105.3841364 357.625 107.1875 C360.02362791 107.21386283 360.02362791 107.21386283 361.625 105.76171875 C363.78250806 102.99741155 363.41313521 100.6053928 363.28125 97.21484375 C362.88585056 94.10107314 362.04352277 92.3841099 360 90 C353.46650846 85.09988134 348.02394847 84.07374555 340 85 C327.68515647 89.21660243 320.76519884 100.40956498 315.28515625 111.45703125 C311.76607194 118.91347148 309.05094376 126.52327288 306.75 134.4375 C306.51603516 135.23389893 306.28207031 136.03029785 306.04101562 136.85083008 C301.68772909 152.54729698 300.19712636 168.62303951 298.77050781 184.7878418 C296.95534202 205.1242088 294.91300408 225.96654771 278.484375 240.17578125 C276.35851675 241.84371091 274.21425105 243.4520745 272 245 C273.134375 244.649375 274.26875 244.29875 275.4375 243.9375 C281.84320227 242.33607443 288.05115752 243.12152783 294 246 C293.505 245.154375 293.01 244.30875 292.5 243.4375 C290.32438573 238.4517173 290.29050851 234.90442454 292.1875 229.8125 C294.25544416 226.60362113 295.6625655 224.88637602 299 223 C303.87937238 222.30169984 307.67724424 222.54945819 312 225 C311.60167969 224.40574219 311.20335937 223.81148437 310.79296875 223.19921875 C301.2654745 208.29367422 300.36497278 191.78455389 304.0234375 174.80859375 C306.58494427 164.81871733 310.82094628 155.8809203 316 147 C321.37530671 149.33311185 323.8356934 153.4967408 326.25 158.6875 C329.05949569 171.09610597 327.26199905 181.23688261 323 193 C323.804375 192.360625 324.60875 191.72125 325.4375 191.0625 C330.50606511 187.71128401 336.25476809 187.45898741 342.125 188.5625 C347.21349053 190.05851622 351.36501318 193.40452588 354.18359375 197.87890625 C355.15485663 200.40233086 355.23225971 202.36470993 355.1875 205.0625 C355.18105469 205.91972656 355.17460937 206.77695313 355.16796875 207.66015625 C355 210 355 210 354 213 C353.34 213 352.68 213 352 213 C351.608125 212.071875 351.21625 211.14375 350.8125 210.1875 C348.81821685 206.68031238 347.68282857 205.54164917 344 204 C340.55545467 203.71881263 337.23527042 203.68192687 334 205 C332.20515459 210.38453624 332.16692447 215.20055686 334.5625 220.375 C337.51220883 223.55160951 339.85722312 224.76443497 344 226 C349.38944489 225.86855012 353.18921658 222.71280516 356.94921875 219.15625 C364.25189231 211.47801037 370.42305606 201.53385836 370.28125 190.66796875 C369.44786139 182.76235175 366.51268279 174.76908664 361 169 C357.42137778 167.77255113 357.42137778 167.77255113 354 168 C353.34 168.66 352.68 169.32 352 170 C351.84516561 173.50260082 351.84516561 173.50260082 353 177 C355.93449408 179.01041003 355.93449408 179.01041003 359 180 C359 180.66 359 181.32 359 182 C354.57599292 183.47466903 350.31121555 184.10297614 346.02734375 182.05859375 C341.72822381 179.14687557 339.11900055 176.05181969 337.3125 171.125 C336.40342721 164.943305 337.02855487 160.53303576 340 155 C343.9752632 150.29245148 347.13091089 148.27587395 353.25 147.6875 C359.07201537 148.17266795 364.13353756 149.75569171 369 153 C368.97679687 152.38253906 368.95359375 151.76507813 368.9296875 151.12890625 C368.71501961 141.05484869 369.93841243 132.66168296 377 125 C382.43012556 120.81991801 388.92181682 116 396 116 C394.95355933 118.65260542 393.87710518 121.28445748 392.74609375 123.90234375 C392.09833984 125.40474609 392.09833984 125.40474609 391.4375 126.9375 C391.00308594 127.93652344 390.56867188 128.93554688 390.12109375 129.96484375 C387.58789733 136.82300966 387.85130329 143.72562067 387.82421875 150.94140625 C387.80100991 153.32357644 387.77689216 155.70573792 387.75195312 158.08789062 C387.71696566 161.81784827 387.68755426 165.5474867 387.67407227 169.27758789 C387.65846202 172.89508206 387.61816254 176.51165896 387.57421875 180.12890625 C387.57612717 181.2241713 387.57803558 182.31943634 387.58000183 183.44789124 C387.32012459 200.16438596 380.16399185 215.4870351 368.66015625 227.50390625 C355.94451597 239.43532202 338.46175744 254.51550351 320.1328125 255.08984375 C319.42898438 255.06019531 318.72515625 255.03054687 318 255 C318 255.66 318 256.32 318 257 C319.216875 257.061875 320.43375 257.12375 321.6875 257.1875 C333.24040639 258.52749228 342.79725806 264.23952419 352 271 C352.82081055 271.59868896 352.82081055 271.59868896 353.65820312 272.20947266 C369.61796936 283.91360662 383.63593089 298.63267491 387 319 C387.09092459 320.80171231 387.13507269 322.60616383 387.1418457 324.41015625 C387.14888016 325.46895996 387.15591461 326.52776367 387.16316223 327.61865234 C387.16732651 328.75512207 387.17149078 329.8915918 387.17578125 331.0625 C387.19899304 333.49349811 387.22311091 335.92448771 387.24804688 338.35546875 C387.2830252 342.16883945 387.31243596 345.9818992 387.32592773 349.79541016 C387.34153575 353.48898704 387.38183901 357.18166493 387.42578125 360.875 C387.42291862 362.55541382 387.42291862 362.55541382 387.41999817 364.26977539 C387.58540359 375.14259321 390.25585993 384.76834631 396 394 C396 394.66 396 395.32 396 396 C388.16001237 394.71429793 380.48447407 390.73956589 375 385 C369.42051511 376.7823891 369 368.67087922 369 359 C368.46890625 359.27714844 367.9378125 359.55429687 367.390625 359.83984375 C366.68421875 360.20207031 365.9778125 360.56429688 365.25 360.9375 C364.55390625 361.29714844 363.8578125 361.65679687 363.140625 362.02734375 C357.54728269 364.56884418 352.27754901 364.66755747 346.375 362.9375 C341.87655248 360.3550579 338.93381968 357.0274791 337.38671875 352.01171875 C336.18981349 345.78539339 336.74988437 341.25977351 339.78515625 335.76171875 C341.94739055 332.62613139 344.63266335 330.68366833 348 329 C355.30434783 328.76811594 355.30434783 328.76811594 359 330 C359 330.66 359 331.32 359 332 C357.35666496 333.03789581 355.68756133 334.03567924 354 335 C351.7508092 336.82703227 351.7508092 336.82703227 351.75 339.5 C351.7508092 342.17296773 351.7508092 342.17296773 354 344 C357.96600809 343.92655541 360.21616131 343.71665252 363.1875 341 C368.16347253 332.76390753 371.06771696 324.70229756 370 315 C367.21540229 304.02123576 359.40821448 293.28523723 350 287 C346.05340671 285.55023104 344.42064916 285.87670628 340.375 287.0625 C336.40658708 289.34066297 334.92114479 290.85032726 333 295 C332.26831226 299.34486738 332.24865414 302.71645083 334.5 306.5625 C337.99210716 308.57046162 341.12406593 308.7628578 345 308 C349.00638894 305.64842388 350.64995627 303.41832494 352 299 C352.66 299 353.32 299 354 299 C355.59447827 304.72975119 356.05596703 309.92717584 353.3125 315.3125 C348.80122727 320.55533047 344.85666703 323.17618603 338 324 C332.31927491 324.09592219 328.49567851 322.45017188 324 319 C323.01 318.34 322.02 317.68 321 317 C321.598125 318.051875 322.19625 319.10375 322.8125 320.1875 C327.39363465 329.46429767 329.41976521 339.84491979 327 350 C324.82094952 355.51592481 322.50212741 360.99661126 318 365 C315 364 315 364 313.09765625 360.67578125 C312.40505318 359.22807068 311.72754303 357.77307615 311.0625 356.3125 C310.70986084 355.54881104 310.35722168 354.78512207 309.99389648 353.99829102 C305.84362078 344.76639741 302.67688151 335.1532227 302 325 C301.92265625 323.92298828 301.92265625 323.92298828 301.84375 322.82421875 C301.34897243 310.22800651 304.76389658 298.83750012 311 288 C310.01 288.33 309.02 288.66 308 289 C302.64765358 289.34531267 299.34468232 289.47574585 295 286 C292.10917967 282.69620533 291.08370957 280.10915182 290.75 275.6875 C291.01870108 271.72415901 292.01101774 269.39784469 294 266 C293.47792969 266.22816406 292.95585937 266.45632813 292.41796875 266.69140625 C285.97618645 269.20719864 280.77698513 269.05138274 274 268 C275.2375 268.680625 275.2375 268.680625 276.5 269.375 C289.03941156 277.7938957 293.66152415 292.48496349 296.53948975 306.4750061 C297.84552189 313.6360262 298.45172978 320.90514214 299.15206909 328.1451416 C303.72889014 378.89730289 303.72889014 378.89730289 330 421 C336.16596458 425.69268101 341.16161011 427.52255933 349 427 C354.568597 425.65549084 358.33447699 423.52799901 362 419 C364.42193946 414.81665003 364.13929804 411.64483048 363 407 C360.27028554 404.8117112 360.27028554 404.8117112 357.625 404.875 C354.03324422 406.4143239 353.09036043 408.67965495 351.18359375 411.98828125 C349.72739694 414.46333523 348.30382354 416.27213234 346 418 C343.4375 418.5 343.4375 418.5 341 418 C337.60974316 414.35649506 337.42962726 411.54056113 337.5859375 406.73046875 C338.49429 400.74048386 341.32211651 395.17150845 345.8125 391.0625 C351.88975395 387.13015921 357.70708073 384.97643238 365 386 C372.91598217 387.82325885 378.49389521 392.38387314 382.875 399.125 C387.13822073 406.15507922 387.18105371 414.91293133 385.3515625 422.79296875 C382.42900456 430.84873743 377.5084459 436.98246487 369.9597168 441.12548828 C366.60822257 442.62107223 363.1700647 443.18889662 359.5625 443.75 C358.83095703 443.87503906 358.09941406 444.00007813 357.34570312 444.12890625 C355.56581601 444.43137073 353.78315454 444.7174353 352 445 C352.90621094 445.35191406 353.81242187 445.70382812 354.74609375 446.06640625 C368.72905494 451.73357465 378.06620026 458.81912725 384.24755859 473.046875 C388.32227457 483.62368481 392 496.64993975 392 508 C349.24164261 501.09167298 349.24164261 501.09167298 338.27734375 486.74609375 C334.58466934 480.38349732 331.66222627 473.85582162 329 467 C328.87044922 468.34191406 328.87044922 468.34191406 328.73828125 469.7109375 C327.46887943 480.63478071 325.18879402 489.46742989 316.29296875 496.52734375 C308.85197975 501.30630943 300.77061007 503.2656003 292 502 C283.04949472 499.49743362 276.6636817 495.08484966 272 487 C269.39156617 480.04417645 269.09865162 473.84072114 271.96875 466.984375 C275.09038529 460.97759193 279.18012562 457.14776015 285.48828125 454.65234375 C289.94506644 453.49482722 294.44552904 453.35789426 299 454 C302 456 302 456 302.8125 459.25 C302 463 302 463 299.83203125 464.7578125 C297.26574514 466.29091849 294.68541155 467.68811043 292 469 C291.34 469.33 290.68 469.66 290 470 C289.07542341 472.88006394 289.07542341 472.88006394 289 476 C290.54017288 478.10786481 291.48110035 478.89028979 294.05078125 479.43359375 C299.51097045 479.44302413 302.83893184 478.87076108 307 475 C310.51819873 470.24330764 311.72092403 465.45701504 311.44140625 459.578125 C309.97350887 451.00456506 304.71838252 444.25602166 298 439 C273.55187147 422.74230244 245.00155692 418.25490861 216.37718201 415.31915283 C213.17430898 414.98860011 209.97235923 414.64946182 206.77035522 414.31060791 C204.43943311 414.0691739 202.10734988 413.84419014 199.7746582 413.62060547 C181.01831194 411.73087294 165.8793348 406.34289557 153 392 C153 392.99 153 393.98 153 395 C152.33463035 405.3307393 152.33463035 405.3307393 150 410 C150.78375 409.484375 151.5675 408.96875 152.375 408.4375 C157.20984212 406.52023502 160.99977364 406.6547203 166 408 C169.5591427 409.99082831 171.68422395 412.05267186 173 416 C173.371875 423.809375 173.371875 423.809375 171 428 C171.59425781 427.60167969 172.18851562 427.20335937 172.80078125 426.79296875 C187.60063267 417.33303262 203.97028326 416.40348086 220.828125 419.953125 C230.80121172 422.2904217 240.28936771 426.6650328 249 432 C247.5304003 435.80609809 245.61508531 437.1731926 242.125 439.1875 C241.26132812 439.69667969 240.39765625 440.20585937 239.5078125 440.73046875 C231.44276591 444.81324155 219.26409689 444.4334856 210.703125 441.8828125 C207.39834545 440.75169038 204.18559596 439.43403034 201 438 C201.78375 438.845625 202.5675 439.69125 203.375 440.5625 C207.14128049 445.14195468 208.26955902 449.68357057 207.875 455.5625 C207.05655197 461.1584005 204.59605338 464.59395297 200.375 468.3125 C196.96582489 470.73480863 195.20392431 471.13716277 191.0625 471.125 C189.74958984 471.12886719 189.74958984 471.12886719 188.41015625 471.1328125 C186 471 186 471 183 470 C183 469.34 183 468.68 183 468 C183.928125 467.5875 184.85625 467.175 185.8125 466.75 C189.71828905 464.61775863 189.71828905 464.61775863 192 461 C192.66704005 457.00599475 192.60022643 454.04387205 190.5625 450.5 C186.74180704 448.26349681 183.3207328 448.35846007 179 449 C175.30617431 450.60601117 172.96128713 452.46968317 171 456 C169.82187037 460.16272468 169.7360982 462.32139538 171.3125 466.375 C177.75519048 476.1599736 188.07845409 482.3594847 199 486 C208.87169944 487.12345833 218.24447855 484.16464526 226 478 C228.4294516 474.3558226 228.16179575 472.28758728 228 468 C224.66799815 467.58228196 224.66799815 467.58228196 221 468 C218.7705435 470.2294565 217.40073893 472.19852214 216 475 C215.34 475 214.68 475 214 475 C212.75649144 471.26947433 212.47801129 467.87447957 213 464 C215.86769219 458.26461561 219.93661775 455.02112742 226 453 C233.18653132 452.52089791 238.12885784 453.57547995 243.8125 458.375 C247.75743401 463.10892081 248.51979146 466.86646075 248 473 C246.77640095 477.2154961 244.99034084 481.09720122 243 485 C244.918125 484.938125 244.918125 484.938125 246.875 484.875 C256.22425015 484.93361599 263.89521631 486.60297254 271 493 C275.32333666 498.19177984 280 505.06257856 280 512 C277.35594558 510.95884304 274.73662851 509.88481983 272.1328125 508.74609375 C270.64394531 508.09833984 270.64394531 508.09833984 269.125 507.4375 C268.13757813 507.00308594 267.15015625 506.56867188 266.1328125 506.12109375 C258.99259767 503.56592959 251.67498722 503.85305514 244.1796875 503.82421875 C241.84634522 503.801013 239.51301186 503.77689536 237.1796875 503.75195312 C233.53314282 503.71695609 229.88692605 503.68754406 226.24023438 503.67407227 C200.20590257 503.55929801 200.20590257 503.55929801 190 499 C188.78183594 498.49339844 187.56367188 497.98679687 186.30859375 497.46484375 C166.67212185 487.01877503 149.44065952 466.24248777 142.5625 445.0625 C141.43034527 441.2397014 140.81636389 437.98857633 141 434 C140.34 434 139.68 434 139 434 C138.9175 435.258125 138.835 436.51625 138.75 437.8125 C136.36658348 457.30220979 120.41323625 477.28112701 105.93359375 489.86328125 C93.58809883 498.85527289 79.99386956 503.43976935 64.78125 503.44140625 C63.64272583 503.45461411 62.50420166 503.46782196 61.33117676 503.48143005 C57.72075921 503.52203287 54.11059288 503.54390861 50.5 503.5625 C46.88948484 503.5864027 43.27920206 503.6147001 39.66882324 503.65428162 C37.43168222 503.67835445 35.19441943 503.69344291 32.95715332 503.69789124 C23.80861113 503.78853963 15.63455279 504.6938094 7.5 509.125 C2.16267943 512 2.16267943 512 0 512 C0.99370155 504.14282492 4.50232609 496.8590735 10.4375 491.5 C18.60884987 485.34933101 26.99996217 485 37 485 C36.72285156 484.46890625 36.44570312 483.9378125 36.16015625 483.390625 C35.79792969 482.68421875 35.43570313 481.9778125 35.0625 481.25 C34.70285156 480.55390625 34.34320313 479.8578125 33.97265625 479.140625 C31.68348384 474.102607 30.80842653 468.37045066 32.68359375 463.06640625 C35.22315407 458.16642471 38.70180948 455.31927621 43.875 453.25 C51.04667609 452.4062734 55.97513865 452.84538386 62 457 C66.13862641 461.45698229 67.11008283 463.94715605 67.1328125 470.02734375 C67 472 67 472 66 475 C65.34 475 64.68 475 64 475 C62.61876037 473.03277992 61.28511874 471.03131672 60 469 C58.81575674 467.58422523 58.81575674 467.58422523 55.4375 467.9375 C53.7359375 467.9684375 53.7359375 467.9684375 52 468 C51.70956045 471.70310422 51.6335226 474.26704519 53.3125 477.625 C60.23079208 483.73883952 69.19562157 486.41604782 78.29296875 486.26953125 C89.2041274 485.18313883 98.84623016 477.64497516 106.125 469.875 C108.75207421 466.63536281 110.18319103 464.30498918 110 460 C108.77568179 455.82291433 107.57046688 453.52971924 104.375 450.5625 C100.08442853 448.57612432 96.65060987 448.15283008 92 449 C89.26938424 450.31379818 89.26938424 450.31379818 88 453 C87.40661543 457.67290346 87.30625018 459.81805585 89.6875 463.875 C92.06558478 466.0602671 93.93132365 467.06234889 97 468 C97 468.66 97 469.32 97 470 C92.64950335 471.45016555 88.54665815 471.51070107 84 471 C78.40034392 468.20017196 75.02577658 464.54001819 72.6875 458.75 C71.2619891 450.97448602 72.69220056 445.53117979 77 439 C76.38511719 439.20496094 75.77023438 439.40992188 75.13671875 439.62109375 C63.35877508 443.54707497 50.64250668 445.95875484 39 440.1875 C35.91977369 438.41549481 33.39697488 436.62563366 31 434 C32 431 32 431 34.1953125 429.5703125 C54.34089529 419.63182499 73.91532204 414.98121437 96 421 C100.66879831 422.88410896 104.81858139 425.21238759 109 428 C108.67 427.505 108.34 427.01 108 426.5 C106.59982328 422.99955819 106.52196207 419.69192372 107 416 C108.66986009 412.2428148 110.57568561 410.21179025 114 408 C118.90715923 406.72057565 122.89598912 406.56220258 127.625 408.4375 C128.800625 409.2109375 128.800625 409.2109375 130 410 C129.7834375 409.45472656 129.566875 408.90945313 129.34375 408.34765625 C127.23652196 402.6405803 126.71077508 398.0737233 127 392 C126.525625 392.680625 126.05125 393.36125 125.5625 394.0625 C109.2800208 412.72778103 85.29557386 413.50480964 62.39306641 415.72680664 C45.10285331 417.42111665 27.73572979 419.48783016 11.25 425.25 C9.95678833 425.69496826 9.95678833 425.69496826 8.63745117 426.14892578 C-6.72791799 431.59973333 -22.46897122 438.51760595 -30 454 C-31.91795402 459.75386207 -31.89303484 465.80606817 -29.375 471.375 C-27.23590134 475.09027662 -24.89261185 477.09185694 -21 479 C-17.55103822 479.83250802 -15.0828434 480.25646291 -11.625 479.4375 C-9.71593133 478.01194414 -9.71593133 478.01194414 -9.1875 475.0625 C-8.80608202 471.95906921 -8.80608202 471.95906921 -10 469 C-11.9812585 468.27954236 -13.98504093 467.61998741 -16 467 C-18.8125 465.8125 -18.8125 465.8125 -21 464 C-21.8125 460.3125 -21.8125 460.3125 -22 457 C-19.48744272 454.37820109 -17.39408664 453.7182118 -13.875 453.5625 C-7.71553126 453.80603748 -1.89100465 455.54629017 2.859375 459.578125 C7.85923828 465.07302425 10.66736018 471.11412359 10.3359375 478.609375 C9.17802326 486.84941587 5.72722721 492.20179617 -0.7265625 497.37109375 C-8.08818839 502.64566075 -15.1736019 502.86591197 -24 502 C-32.6141399 500.01484842 -39.27072829 495.12915646 -44.1171875 487.796875 C-46.27688626 483.86183065 -47.065475 479.96359307 -47.75 475.5625 C-47.87503906 474.83095703 -48.00007813 474.09941406 -48.12890625 473.34570312 C-48.43137073 471.56581601 -48.7174353 469.78315454 -49 468 C-49.35191406 468.90621094 -49.70382813 469.81242187 -50.06640625 470.74609375 C-55.68590944 484.61144758 -62.48804269 493.90099199 -76.5 500.0625 C-87.18887759 504.34956559 -100.45421537 508 -112 508 C-110.29540242 490.51317998 -106.33932048 467.7864479 -92.5625 455.625 C-86.02971195 450.86467382 -78.46900441 447.96536155 -71 445 C-72.134375 444.84144531 -73.26875 444.68289063 -74.4375 444.51953125 C-85.33542241 442.88103665 -93.56274883 441.02256706 -100.6796875 432 C-105.63918509 424.48738827 -107.1640122 416.91233583 -106 408 C-103.86336645 399.88764801 -100.0381684 393.66537901 -92.8125 389.1875 C-86.39387403 385.89835336 -80.20472107 385.09459486 -73.25 387.125 C-66.16631081 389.89850794 -62.31603245 394.24511909 -59 401 C-58.11772932 403.87318413 -57.83819567 406.49874583 -57.8125 409.5 C-57.79832031 410.2528125 -57.78414062 411.005625 -57.76953125 411.78125 C-58.02582722 414.24864173 -58.77154847 415.86356256 -60 418 C-63.1875 418.5 -63.1875 418.5 -67 418 C-68.60418448 416.16345454 -69.65549993 414.25648379 -70.8203125 412.1171875 C-72.47492658 409.14764832 -74.31823718 407.07836618 -77 405 C-79.73295895 404.895403 -79.73295895 404.895403 -82 406 C-83.74085086 409.48170171 -83.44293279 413.19334576 -83 417 C-80.84120035 421.76734922 -78.03239423 424.2388311 -73.33203125 426.296875 C-67.82970182 427.9558688 -62.67565477 428.1038051 -57.3203125 425.89453125 C-54.71864686 424.41972687 -52.37332843 422.81778167 -50 421 C-49.07767578 420.30970703 -49.07767578 420.30970703 -48.13671875 419.60546875 C-24.29276145 398.83107837 -21.50142824 356.01867451 -18.82543945 327.05957031 C-16.82893394 305.61303828 -14.21939469 285.29382778 3 270.375 C3.99 269.59125 4.98 268.8075 6 268 C5.28972656 268.17144531 4.57945313 268.34289062 3.84765625 268.51953125 C0.88416903 269.0195435 -1.57616235 268.96578181 -4.5625 268.6875 C-5.49191406 268.60886719 -6.42132813 268.53023438 -7.37890625 268.44921875 C-9.95172441 268.00827376 -11.75198777 267.29591294 -14 266 C-13.505 266.845625 -13.01 267.69125 -12.5 268.5625 C-10.3290215 273.53765907 -10.32297993 277.08177648 -12.125 282.1875 C-14.42640683 285.63961024 -16.2698704 287.1701251 -20 289 C-23.87483175 289.52104745 -27.26896889 289.24367704 -31 288 C-30.60167969 288.680625 -30.20335938 289.36125 -29.79296875 290.0625 C-20.95491663 306.23333989 -20.31984051 323.37550466 -25 341 C-27.67852027 349.42366473 -31.38372482 357.46280734 -36 365 C-41.37530671 362.66688815 -43.8356934 358.5032592 -46.25 353.3125 C-49.22320192 340.18085817 -47.43762473 329.16866505 -42 317 C-43.3303125 318.175625 -43.3303125 318.175625 -44.6875 319.375 C-49.1131639 322.98946333 -52.16935226 324.21773609 -57.9375 323.8125 C-63.80394131 323.04655514 -67.90947166 321.48364097 -71.8125 316.9375 C-74.5911787 313.20613146 -75.13839718 311.62423961 -75.125 307.0625 C-75.12886719 305.74958984 -75.12886719 305.74958984 -75.1328125 304.41015625 C-75 302 -75 302 -74 299 C-73.34 299 -72.68 299 -72 299 C-71.5875 299.928125 -71.175 300.85625 -70.75 301.8125 C-68.61775863 305.71828905 -68.61775863 305.71828905 -65 308 C-61.00599475 308.66704005 -58.04387205 308.60022643 -54.5 306.5625 C-52.24865414 302.71645083 -52.26831226 299.34486738 -53 295 C-54.92114479 290.85032726 -56.40658708 289.34066297 -60.375 287.0625 C-64.42064916 285.87670628 -66.05340671 285.55023104 -70 287 C-79.30041305 293.44167953 -86.61907554 303.21395337 -90 314 C-91.43192633 322.75484781 -89.11174105 331.35594554 -84.8671875 339.0546875 C-82.63946256 342.13809486 -80.98684807 343.00356663 -77.3125 344 C-76.219375 344 -75.12625 344 -74 344 C-71.79015749 342.18227196 -71.79015749 342.18227196 -71.625 339.625 C-72.11542747 336.19200774 -73.33091723 335.13526622 -76 333 C-76.99 332.67 -77.98 332.34 -79 332 C-79 331.34 -79 330.68 -79 330 C-75.26947433 328.75649144 -71.87447957 328.47801129 -68 329 C-62.66839107 331.66580446 -59.41022985 335.35690623 -57.25 340.9375 C-56.410918 347.85992648 -57.26114667 353.08872425 -61 359 C-65.32654242 362.53187136 -69.17656133 364.34531922 -74.8203125 364.296875 C-79.16941524 363.70452409 -85.82336594 362.17663406 -89 359 C-88.938125 360.2375 -88.87625 361.475 -88.8125 362.75 C-88.83702723 370.52513061 -90.29409051 379.20271014 -95.28125 385.40625 C-100.64483525 390.37975632 -108.46348701 396 -116 396 C-114.9692045 393.37267008 -113.90084899 390.77884075 -112.74609375 388.203125 C-112.31425781 387.22859375 -111.88242188 386.2540625 -111.4375 385.25 C-110.78587891 383.80367188 -110.78587891 383.80367188 -110.12109375 382.328125 C-107.53468269 374.64999878 -107.85670398 366.44380109 -107.82421875 358.421875 C-107.80101956 356.18618851 -107.77690218 353.9505114 -107.75195312 351.71484375 C-107.71693554 348.23512468 -107.68752223 344.75575239 -107.67407227 341.27587891 C-107.55911513 316.32841098 -107.55911513 316.32841098 -103 306 C-102.72325439 305.3301709 -102.44650879 304.6603418 -102.16137695 303.97021484 C-98.54978275 295.81337011 -93.312022 289.2123585 -87 283 C-86.40960938 282.41089844 -85.81921875 281.82179688 -85.2109375 281.21484375 C-73.26801833 270.08741025 -55.02891987 256.42734606 -38 257 C-38 256.34 -38 255.68 -38 255 C-39.258125 254.9175 -40.51625 254.835 -41.8125 254.75 C-60.12351286 252.58234116 -81.48408718 237.1642752 -93 223 C-102.53887017 209.78274198 -107.26496095 197.20064192 -107.34375 180.9765625 C-107.3583728 179.83520844 -107.37299561 178.69385437 -107.38806152 177.51791382 C-107.43433722 173.88697774 -107.4686559 170.25609377 -107.5 166.625 C-107.54137249 161.84615902 -107.59512967 157.06768726 -107.65625 152.2890625 C-107.6615271 151.20646149 -107.6668042 150.12386047 -107.67224121 149.00845337 C-107.79102566 139.84769306 -108.68739192 131.64633368 -113.125 123.5 C-116 118.16267943 -116 118.16267943 -116 116 C-107.81114327 116.81888567 -100.44823927 120.84918973 -95 127 C-89.36414623 135.1552406 -89 143.36352103 -89 153 C-88.46890625 152.72285156 -87.9378125 152.44570312 -87.390625 152.16015625 C-86.68421875 151.79792969 -85.9778125 151.43570313 -85.25 151.0625 C-84.20585938 150.52302734 -84.20585938 150.52302734 -83.140625 149.97265625 C-78.2382369 147.74511129 -73.14686542 147.02358942 -67.91015625 148.6484375 C-62.48070373 151.01434419 -60.43140087 153.65091809 -58 159 C-56.3729417 163.8811749 -56.58856815 167.74405013 -58.1875 172.625 C-60.68650594 177.27832141 -63.6352331 180.0901554 -68 183 C-69.9375 183.23046875 -69.9375 183.23046875 -72 183.1875 C-73.0209375 183.17783203 -73.0209375 183.17783203 -74.0625 183.16796875 C-76 183 -76 183 -79 182 C-79 181.34 -79 180.68 -79 180 C-77.35666496 178.96210419 -75.68756133 177.96432076 -74 177 C-71.7508092 175.17296773 -71.7508092 175.17296773 -71.75 172.5 C-71.7508092 169.82703227 -71.7508092 169.82703227 -74 168 C-77.96600809 168.07344459 -80.21616131 168.28334748 -83.1875 171 C-88.56022498 179.89278617 -91.95687038 189.06034119 -89.38671875 199.48828125 C-85.7781414 209.45558522 -78.85142836 219.05583995 -70 225 C-66.80314598 226.26542138 -65.20163485 226.39748151 -61.95703125 225.32421875 C-58.67424327 223.87118145 -56.39593365 222.44542536 -54 219.75 C-52.64857573 216.03358327 -52.19214991 212.89807278 -53 209 C-54.75 205.75 -54.75 205.75 -58 204 C-61.22542426 203.62695271 -63.93093171 203.94446997 -67 205 C-69.76164364 207.62356146 -70.80160952 209.40482855 -72 213 C-72.66 213 -73.32 213 -74 213 C-75.45016555 208.64950335 -75.51070107 204.54665815 -75 200 C-72.07775225 194.1555045 -68.40039069 190.84013674 -62.25 188.6875 C-57.13464102 187.6161701 -51.84023252 187.55947139 -47.09765625 189.96484375 C-45.4375 191.0625 -45.4375 191.0625 -43 193 C-43.27714844 192.27296875 -43.55429688 191.5459375 -43.83984375 190.796875 C-48.26669867 178.50880797 -49.78743174 166.755585 -44.125 154.625 C-42.48877984 151.58630541 -40.64097244 149.26369066 -38 147 C-35 148 -35 148 -33.09765625 151.2890625 C-32.4038894 152.72705504 -31.72649189 154.17301868 -31.0625 155.625 C-30.70986084 156.39191162 -30.35722168 157.15882324 -29.99389648 157.94897461 C-22.15878613 175.50780639 -19.77832392 193.43624662 -25 212 C-26.87334008 216.69215901 -29.20398426 220.80597639 -32 225 C-31.14535156 224.51853516 -31.14535156 224.51853516 -30.2734375 224.02734375 C-26.54056816 222.34049729 -23.01038123 222.31886073 -19 223 C-15.63512314 224.72156491 -13.52335388 227.09602511 -11.625 230.375 C-10.17216949 236.47688816 -10.84055275 240.60261096 -14 246 C-13.47792969 245.77183594 -12.95585938 245.54367188 -12.41796875 245.30859375 C-5.97618645 242.79280136 -0.77698513 242.94861726 6 244 C4.67355469 243.20142578 4.67355469 243.20142578 3.3203125 242.38671875 C-0.15769649 240.06157886 -2.6423929 237.14845763 -5.125 233.8125 C-5.55949463 233.23298584 -5.99398926 232.65347168 -6.44165039 232.05639648 C-16.65346133 218.11502095 -17.45477805 201.28914772 -19.07662964 184.59680176 C-20.72516925 167.83184359 -22.36184235 151.24911606 -27 135 C-27.21736816 134.21463867 -27.43473633 133.42927734 -27.65869141 132.62011719 C-32.64449149 115.01254183 -40.11457304 97.41021615 -55.88671875 87.12890625 C-60.66395357 84.57692684 -65.68979329 84.49118228 -71 85 C-76.51964821 87.01679454 -80.47437792 90.29548813 -83.375 95.4375 C-84.16352771 98.67046363 -83.90250695 100.80651389 -83 104 C-81.89350331 106.02478463 -81.89350331 106.02478463 -80 107 C-77.50807389 107.38894914 -77.50807389 107.38894914 -75 106 C-73.55745109 104.08241233 -72.38140427 102.09016255 -71.18359375 100.01171875 C-69.72739694 97.53666477 -68.30382354 95.72786766 -66 94 C-63.4375 93.4375 -63.4375 93.4375 -61 94 C-58.00666813 97.30298689 -57.52403342 100.48148904 -57.71484375 104.88671875 C-58.59698582 111.42423737 -61.33068082 116.33068082 -66 121 C-72.23790753 125.38756192 -78.46019625 127.01316113 -86 126 C-94.16333704 123.33696017 -99.67736786 118.47047649 -104.09375 111.19921875 C-107.26680136 104.33896419 -107.14984185 95.59252311 -105.34375 88.37890625 C-102.05601683 80.2020871 -96.10849113 73.55262279 -88 70 C-85.04792276 69.18304144 -82.0910512 68.69117712 -79.0625 68.25 C-78.28326172 68.12496094 -77.50402344 67.99992187 -76.70117188 67.87109375 C-74.80272608 67.56827418 -72.90159762 67.28235195 -71 67 C-72.23363281 66.58041016 -72.23363281 66.58041016 -73.4921875 66.15234375 C-86.14529062 61.60833097 -96.47001489 55.50409798 -102.5625 43.1875 C-107.63221542 31.33090749 -112 16.94184156 -112 4 C-69.62859054 10.84580912 -69.62859054 10.84580912 -56.55859375 28.46484375 C-53.37377777 33.64515847 -51.23384452 39.35993866 -49 45 C-48.87044922 43.65808594 -48.87044922 43.65808594 -48.73828125 42.2890625 C-47.37403854 30.54906556 -44.73205947 22.25627173 -35.37890625 14.62890625 C-28.26111102 9.75514499 -20.46162912 9.00711001 -12 10 C-4.95990625 11.84171229 1.3301367 14.95167467 5.4375 21.1796875 C9.28087423 27.84008035 11.39502591 33.6972208 9.3515625 41.46484375 C6.62397733 49.21631442 2.71780178 52.8955839 -4.3125 56.875 C-9.52925754 58.46655315 -15.18329456 59.24814961 -20.30078125 56.98046875 C-21.14189453 56.49513672 -21.14189453 56.49513672 -22 56 C-22.48598131 50.65420561 -22.48598131 50.65420561 -20.375 47.8125 C-17.28758034 45.45631131 -13.99902269 43 -10 43 C-8.83842991 38.43438968 -8.83842991 38.43438968 -10.0625 34.125 C-12.88751498 32.48466872 -14.70112287 32.06224296 -18 32 C-23.8234517 33.79528376 -27.10673422 36.56066033 -30 42 C-31.83255434 47.49766302 -32.10408463 53.22145492 -29.94140625 58.6640625 C-28.45161905 61.27219945 -26.83347391 63.62165423 -25 66 C-24.47792969 66.68835938 -23.95585938 67.37671875 -23.41796875 68.0859375 C-2.27610389 92.23443326 41.26197283 94.96847405 70.81982422 97.48120117 C78.92560386 98.19452877 86.83184739 99.19996443 94.78515625 100.953125 C95.51564682 101.11373917 96.24613739 101.27435333 96.99876404 101.43983459 C108.47712826 104.12375715 116.7134866 109.74493447 125 118 C125.58652344 118.58394531 126.17304688 119.16789062 126.77734375 119.76953125 C127.18082031 120.17558594 127.58429688 120.58164063 128 121 C127.85691406 120.05640625 127.85691406 120.05640625 127.7109375 119.09375 C126.93792204 113.12535154 127.19257468 108.74123337 129 103 C128.14535156 103.48339844 128.14535156 103.48339844 127.2734375 103.9765625 C123.55063206 105.6524646 120.00305957 105.56293025 116 105 C111.61589244 102.80794622 108.86907343 100.56884617 107 96 C106.43678717 91.52111704 106.78287259 87.96609644 109 84 C108.40574219 84.39832031 107.81148437 84.79664062 107.19921875 85.20703125 C92.29457431 94.73395017 75.98492013 95.52804735 59.03515625 91.98046875 C49.46882697 89.78614792 40.63218786 85.57915158 32 81 C32 79.68 32 78.36 32 77 C33.7578125 75.3671875 33.7578125 75.3671875 36.125 73.875 C36.89070312 73.37742187 37.65640625 72.87984375 38.4453125 72.3671875 C44.11035734 69.33543567 49.18720173 68.5841238 55.5 68.5625 C56.2822998 68.55863281 57.06459961 68.55476563 57.87060547 68.55078125 C65.61391289 68.70183947 71.96955437 70.83516917 79 74 C78.20335937 73.24074219 77.40671875 72.48148437 76.5859375 71.69921875 C72.98762543 67.9432767 72.03463428 64.72744945 71.96875 59.5390625 C72.30206496 53.98936841 73.28990483 50.32844437 77 46 C81.14369913 42.34959839 83.44687457 40.85887482 88.9375 40.875 C89.81277344 40.87242188 90.68804687 40.86984375 91.58984375 40.8671875 C94 41 94 41 97 42 C97 42.66 97 43.32 97 44 C96.071875 44.4125 95.14375 44.825 94.1875 45.25 C90.28171095 47.38224137 90.28171095 47.38224137 88 51 C87.33295995 54.99400525 87.39977357 57.95612795 89.4375 61.5 C93.28354917 63.75134586 96.65513262 63.73168774 101 63 C105.14967274 61.07885521 106.65933703 59.59341292 108.9375 55.625 C110.09468373 51.67696138 110.03070251 49.92861971 109 46 C102.82726037 36.71218014 92.0665439 28.40204054 81 26 C72.16661962 24.81431136 63.9270436 27.34281194 56.4375 32.0625 C53.81744618 33.94212557 53.81744618 33.94212557 52 37 C51.66656449 39.54207971 51.66656449 39.54207971 52 42 C53.82100147 44.19920496 53.82100147 44.19920496 56.375 44.4375 C59.23280299 44.23234498 59.23280299 44.23234498 61.25 41.625 C62.97157537 39.16021153 62.97157537 39.16021153 64 37 C64.66 37 65.32 37 66 37 C67.24350856 40.73052567 67.52198871 44.12552043 67 48 C64.57740433 52.84519135 61.66303117 55.32123742 57 58 C50.37152301 60.20949233 45.1128961 59.19066672 38.984375 56.2109375 C35.17047764 53.88355919 33.38712448 51.16137345 32 47 C31.48749577 39.56868872 32.83228532 33.25157202 37 27 C35.081875 27.061875 35.081875 27.061875 33.125 27.125 C23.77574985 27.06638401 16.10478369 25.39702746 9 19 C4.67666334 13.80822016 0 6.93742144 0 0 Z M120 58 C119.75765625 59.08539063 119.5153125 60.17078125 119.265625 61.2890625 C118.92772466 62.73452507 118.58914687 64.17982939 118.25 65.625 C118.09273437 66.33785156 117.93546875 67.05070312 117.7734375 67.78515625 C116.63121994 72.57368373 114.98314603 75.99506773 112 80 C111.34 80.99 110.68 81.98 110 83 C112.64 82.34 115.28 81.68 118 81 C117.7525 81.9075 117.505 82.815 117.25 83.75 C116.61740673 87.08837848 116.61740673 87.08837848 118.9375 89.375 C119.9584375 90.179375 119.9584375 90.179375 121 91 C125.81122847 89.47444034 125.81122847 89.47444034 129 86 C130.17166844 75.54511234 126.34748557 66.75043094 121 58 C120.67 58 120.34 58 120 58 Z M159 58 C157.84658302 60.22552258 156.70218841 62.45495969 155.5625 64.6875 C155.23701172 65.31333984 154.91152344 65.93917969 154.57617188 66.58398438 C151.39218555 72.85348322 150.04283345 78.98514928 151 86 C152.82147973 88.6021139 154.20045279 89.6002264 157 91 C159.18895188 91.18661914 159.18895188 91.18661914 161.3125 89.4375 C163.34712911 87.04598071 163.34712911 87.04598071 162.75 83.75 C162.5025 82.8425 162.255 81.935 162 81 C164.64 81.66 167.28 82.32 170 83 C169.41992188 82.30390625 169.41992188 82.30390625 168.828125 81.59375 C163.38687678 74.37466821 161.81013937 66.6780211 160 58 C159.67 58 159.34 58 159 58 Z M85 78 C89.42984668 81.32238501 90.68542913 81.48314281 96 81 C96.99 80.34 97.98 79.68 99 79 C92.07 78.505 92.07 78.505 85 78 Z M187.3125 77.9375 C186.13300781 78.13214844 184.95351563 78.32679687 183.73828125 78.52734375 C182.83464844 78.68332031 181.93101562 78.83929688 181 79 C184.74183875 81.49455917 186.56243036 81.37606522 191 81 C194.35161246 79.61785878 194.35161246 79.61785878 197 78 C193.32192463 76.77397488 191.11756073 77.29704423 187.3125 77.9375 Z M-30 86 C-29.81679199 86.54599854 -29.63358398 87.09199707 -29.44482422 87.65454102 C-28.62603519 90.10176401 -27.81197126 92.55050653 -27 95 C-26.75926758 95.72558105 -26.51853516 96.45116211 -26.27050781 97.19873047 C-17.3306854 124.53563513 -14.53906644 152.49802746 -11.53466797 180.95263672 C-10.87178653 187.2229824 -10.19199056 193.48986873 -9.4375 199.75 C-9.34710449 200.59780029 -9.25670898 201.44560059 -9.16357422 202.3190918 C-7.94944989 212.08579977 -3.54381329 221.43748213 4.140625 227.76171875 C12.59492047 233.69985485 21.14310208 235.33593719 31.3203125 233.60546875 C42.24682603 230.5703261 50.56457943 222.35743615 56.875 213.3125 C59.19146143 206.49180802 59.05966171 198.50998887 56.1015625 191.875 C51.44025706 183.94086308 45.57990178 179.85996726 37 177 C29.8562641 176.30610209 24.7624362 176.5581221 19 181 C16.03630086 184.44171513 15.3969479 187.62980176 15.58984375 192.06640625 C16.33484785 195.57856845 18.14322223 196.99417731 21 199 C24.82430288 200.09265797 27.03553534 200.32148822 30.8125 199.0625 C34.01868063 196.03952969 34.22525249 193.29632711 35 189 C39.75506056 192.17004037 42.27196559 195.62183943 44 201 C44.9758205 207.20976684 44.12591363 211.89493681 40.97265625 217.30859375 C39.8400965 219.14838732 39.8400965 219.14838732 39 222 C36.75 223.0625 36.75 223.0625 34 224 C33.2265625 224.35191406 32.453125 224.70382813 31.65625 225.06640625 C25.69857949 227.16035221 18.9715437 225.65402217 13.25 223.3125 C4.45981237 218.89390301 0.02390433 212.93900894 -4 204 C-6.94398508 194.91825208 -5.14397537 185.35209897 -1 177 C2.40905427 171.15450348 5.92923446 167.92296118 12 165 C13.0209375 164.4121875 13.0209375 164.4121875 14.0625 163.8125 C18.7908704 161.82963499 23.82339753 161.88595304 28.875 161.9375 C30.60363281 161.95103516 30.60363281 161.95103516 32.3671875 161.96484375 C33.67042969 161.98224609 33.67042969 161.98224609 35 162 C29.76674738 154.74338957 20.85538531 149.44906305 12 148 C4.72155208 147.31743185 4.72155208 147.31743185 -2 149.6875 C-4.00749817 152.00866976 -5.56854858 154.28777626 -7 157 C-8.59816475 153.80367049 -8.36705452 150.47700733 -8 147 C-6.65718395 143.74897168 -5.78081526 142.4220623 -2.6875 140.75 C0.19514018 139.94554228 3.03707401 139.41343153 6 139 C4.06486604 137.5163973 2.15000007 136.09200409 0.0703125 134.81640625 C-11.80442814 127.16220596 -15.36357829 109.602283 -20 97 C-14.63406744 97.9646888 -9.77014412 99.82051054 -4.6875 101.75 C-3.31948242 102.25273438 -3.31948242 102.25273438 -1.92382812 102.765625 C9.3252991 107.02335918 16.90053819 111.72750546 22 123 C22.33 123 22.66 123 23 123 C23.19916016 121.96939453 23.19916016 121.96939453 23.40234375 120.91796875 C23.57894531 120.01691406 23.75554687 119.11585937 23.9375 118.1875 C24.11152344 117.29417969 24.28554687 116.40085937 24.46484375 115.48046875 C25 113 25 113 26 110 C30.26918879 107.54198221 34.21358193 107.60767065 39 108 C39.99 109.485 39.99 109.485 41 111 C40.1646875 111.0928125 40.1646875 111.0928125 39.3125 111.1875 C35.64880402 112.47474453 34.26058784 113.79750056 32 117 C30.34004238 126.49155253 32.89233216 135.1604862 38.01171875 143.1328125 C39.93392709 145.83149638 41.86110779 148.46954857 44 151 C44.33 151 44.66 151 45 151 C45.02578125 150.04480469 45.0515625 149.08960938 45.078125 148.10546875 C45.55532234 137.22753837 46.73440331 126.88988775 55 119 C62.36400686 113.25047339 71.06915383 110.31450634 80.42578125 110.65234375 C89.30002785 111.85083836 97.93822786 115.81916819 103.53125 122.953125 C108.74254188 130.89125566 109.97070744 138.59252665 109 148 C106.30903705 153.68092178 101.79803935 157.58415027 96 160 C89.06661855 160.94095891 83.36093881 160.62776788 77.625 156.4453125 C75.43731011 154.49953063 73.65386793 152.41189073 72 150 C72.721875 150.226875 73.44375 150.45375 74.1875 150.6875 C77.83753379 151.09305931 79.14495124 150.23774092 82 148 C84.05430581 145.38542897 84 143.93645571 84 140.5625 C82.69720522 135.92129361 81.08413426 134.49585982 77 132 C72.6708751 131.21288638 69.92649001 131.72444618 66.25 134 C62.48057639 137.02233064 60.81081075 140.26315825 60 145 C59.70248903 152.28255122 62.03693869 159.36831441 66.64453125 165.015625 C73.04866752 171.6569515 78.50382135 174.10409912 87.6875 174.4375 C96.20396485 174.34924648 100.168015 171.65780386 106.1484375 165.94921875 C113.12857686 158.64472347 117.59052098 150.95479178 118.06640625 140.73046875 C117.81082898 130.22173274 114.3777785 123.02460813 106.875 115.75 C93.43597503 104.60171792 73.10606512 105.51220697 56.4801178 103.8203125 C26.76060654 100.7931384 -1.94908952 96.81826923 -30 86 Z M302.18945312 88.23510742 C278.53524295 97.47000273 253.36644544 100.63676263 228.25 103.25390625 C227.21088974 103.36237885 226.17177948 103.47085144 225.10118103 103.58261108 C219.86786037 104.12560969 214.63357284 104.6542155 209.39672852 105.16210938 C185.95358416 107.17681779 185.95358416 107.17681779 167.5625 120.8125 C162.45230525 128.34026563 160.86968737 137.03456577 162 146 C164.69125324 156.66889676 172.10409631 165.70309562 181 172 C187.44507172 175.17491218 195.44175557 175.12153089 202.25 172.9375 C209.94986774 169.5046423 215.00838973 163.77480634 218 156 C220.00167649 149.99497052 219.99084274 143.3119664 217.5 137.5 C214.32260129 134.32260129 211.36643151 132.19158692 207 131 C202.36793691 131.46320631 200.6517912 132.26464582 197.5625 135.75 C195.8505647 139.31082543 195.3389779 141.11649517 196 145 C197.4285061 147.9315113 197.4285061 147.9315113 200 150 C203.64182335 150.89055736 203.64182335 150.89055736 207 151 C204.06280482 155.22956106 200.92654565 158.35194269 196 160 C189.50701214 160.88418954 183.43209779 160.70282704 177.6875 157.33984375 C173.58148581 154.07974452 171.01657681 150.13371291 170 145 C169.11563375 136.3332108 172.62239372 127.58454767 178.01953125 120.85546875 C185.74634039 113.61634776 194.15838785 110.61900778 204.51171875 110.72265625 C213.18978197 111.41262544 220.69229321 115.05102535 227 121 C233.93283401 129.24445126 234.52953508 139.64977178 235 150 C239.34174239 146.99820914 241.54473952 143.75485919 243.75 139.0625 C244.20439453 138.15081055 244.20439453 138.15081055 244.66796875 137.22070312 C247.79806096 130.77271318 249.05831403 124.13774018 248 117 C245.89498129 113.97769298 245.89498129 113.97769298 243 112 C242.236875 111.401875 241.47375 110.80375 240.6875 110.1875 C240.130625 109.795625 239.57375 109.40375 239 109 C240.57027317 107.42972683 242.14269947 107.83025614 244.3125 107.8125 C245.48232422 107.79123047 245.48232422 107.79123047 246.67578125 107.76953125 C249.26387805 108.02616606 250.8154966 108.6017295 253 110 C255.40993792 113.92730624 256.45743082 117.4424189 257 122 C258.4836027 120.06486604 259.90799591 118.15000007 261.18359375 116.0703125 C268.83779404 104.19557186 286.397717 100.63642171 299 96 C297.95045959 102.13970636 295.4961403 107.68076174 293.1875 113.4375 C292.74857422 114.55705078 292.30964844 115.67660156 291.85742188 116.83007812 C285.99769999 131.50115 285.99769999 131.50115 278.25 135.375 C277.26515625 135.87773437 276.2803125 136.38046875 275.265625 136.8984375 C274.51796875 137.26195312 273.7703125 137.62546875 273 138 C273 138.33 273 138.66 273 139 C273.67546875 139.09796875 274.3509375 139.1959375 275.046875 139.296875 C283.97679195 140.79379749 283.97679195 140.79379749 287 145 C288.11445498 147.22890995 288.16480286 148.53055106 288.1875 151 C288.20167969 151.70125 288.21585937 152.4025 288.23046875 153.125 C288 155 288 155 286 157 C285.5875 156.071875 285.175 155.14375 284.75 154.1875 C283.00038554 151.00070224 282.16347427 149.66961142 279 148 C270.77379928 145.64965694 262.23738986 148.91473275 254.92578125 152.8203125 C251.43782371 154.9569518 248.09603563 157.32390537 245 160 C245 160.33 245 160.66 245 161 C245.97839844 161.03738281 246.95679688 161.07476562 247.96484375 161.11328125 C258.37474359 161.63531163 268.13889339 162.44051858 276 170 C282.39140028 177.59448739 285.74138022 186.46905912 285.3359375 196.43359375 C284.04060805 206.32930829 279.41821708 213.44663253 272 220 C264.49861937 224.98334249 256.81636354 225.82039556 248 225 C243.97323474 223.74834117 241.47611209 221.54045156 238.6875 218.375 C235.7334022 212.46680441 234.12584041 206.8110652 236 200.3125 C237.9428463 195.40746653 241.17580196 190.41209902 246 188 C245.773125 188.721875 245.54625 189.44375 245.3125 190.1875 C244.90694069 193.83753379 245.76225908 195.14495124 248 198 C250.51835094 199.91047312 251.7557197 200.01039491 254.9375 199.875 C258.44390699 198.87316943 260.36184695 197.48740144 263 195 C264.5547669 191.89046621 264.28644437 189.43733239 264 186 C261.73112683 181.63031833 259.54027437 178.96057302 255 177 C247.14308355 175.13564694 240.87160826 176.95032504 233.8125 180.6875 C227.05035616 186.24748494 222.680583 191.41791055 221.59375 200.33203125 C221.36826034 208.7033347 222.21039883 213.82919053 228 220 C236.25293937 228.50021845 243.81471871 233.6038396 255.85546875 234.06640625 C266.08329473 233.85041489 273.17282013 230.18764981 280.25 222.875 C286.86238252 215.85275906 288.5402949 205.89202407 289.5 196.625 C289.67317749 195.12549805 289.67317749 195.12549805 289.84985352 193.59570312 C290.50230898 187.86332424 291.09220312 182.12430073 291.69042969 176.38606262 C294.92343555 145.38909146 298.70489773 115.28730058 310 86 C307.13474075 86 304.82078347 87.19828729 302.18945312 88.23510742 Z M151 121 C152 123 152 123 152 123 Z M129 123 C130 125 130 125 130 125 Z M130 125 C131 127 131 127 131 127 Z M131 127 C132 129 132 129 132 129 Z M132 129 C132.144375 129.59683594 132.28875 130.19367188 132.4375 130.80859375 C135.37331284 144.52944127 135.88073116 157.67149504 128.234375 169.80078125 C124.15313852 175.73785558 119.67904265 180.57457581 114 185 C115.06372949 187.2057421 116.07799789 189.10295721 117.5625 191.0625 C121.57158195 196.46604524 120.35789888 204.36049572 119.5 210.6875 C119.335 211.450625 119.17 212.21375 119 213 C120.19625 213.474375 121.3925 213.94875 122.625 214.4375 C131.40434545 218.91233392 134.00244422 228.01740598 136.921875 236.86328125 C137.79150715 239.39340669 138.72704047 241.65659723 140 244 C140.391875 242.7625 140.78375 241.525 141.1875 240.25 C148.37039248 218.96984191 148.37039248 218.96984191 157.19140625 214.31640625 C158.58166016 213.66478516 158.58166016 213.66478516 160 213 C159.95359375 211.78183594 159.9071875 210.56367188 159.859375 209.30859375 C159.82183342 207.68492052 159.78543583 206.06122055 159.75 204.4375 C159.71648437 203.63763672 159.68296875 202.83777344 159.6484375 202.01367188 C159.55267724 196.14835625 160.59091515 192.80428439 164 188 C164.66 187.67 165.32 187.34 166 187 C164.61013153 183.7405115 163.08784584 182.04511325 160.3125 179.875 C153.10154346 173.73913152 148.10439876 166.26266854 146 157 C145.84660156 156.35160156 145.69320313 155.70320313 145.53515625 155.03515625 C144.18073554 147.10646871 145.90492829 138.88270631 147 131 C144.37330171 133.5412772 142.44859426 135.61994673 141 139 C140.34 139 139.68 139 139 139 C137.52734375 136.8125 137.52734375 136.8125 135.9375 134 C134.98273307 132.31923671 134.00963683 130.64838667 133 129 C132.67 129 132.34 129 132 129 Z M147 129 C148 131 148 131 148 131 Z M69 185 C68.51081716 197.24768878 68.99264964 209.09869551 77 219 C82.39960643 224.54959549 89.18118027 226.02409712 96.6875 226.1875 C101.45101687 226.49931796 101.45101687 226.49931796 103.8203125 228.66015625 C104.81438713 230.0523812 105.76834505 231.47414242 106.6796875 232.921875 C108.73850168 236.16237542 110.77327825 237.89275314 114 240 C117.47991184 240.34799118 119.85088521 240.57455739 123 239 C124.06926019 234.49383205 124.53353302 232.18832355 122.625 227.9375 C120.27752276 225.02702143 120.27752276 225.02702143 117.83203125 223.671875 C111.61312001 219.81675873 111.61312001 219.81675873 110.37744141 216.15527344 C109.74471789 213.21259607 109.34258849 210.26143474 108.94750977 207.27905273 C108.04565269 200.55966534 106.60954414 195.90148857 101.16796875 191.52734375 C91.73753146 185.52615638 79.92529736 184.39799382 69 185 Z M174.6875 195.25 C171.23819476 200.87109002 169.95537036 206.1243927 169.8125 212.6875 C169.50068204 217.45101687 169.50068204 217.45101687 167.33984375 219.8203125 C165.9476188 220.81438713 164.52585758 221.76834505 163.078125 222.6796875 C159.83762458 224.73850168 158.10724686 226.77327825 156 230 C155.65200882 233.47991184 155.42544261 235.85088521 157 239 C160.00887909 240.03309153 162.83842323 240.28648592 166 240 C170.31834441 237.74695074 172.78295759 234.43942929 175.0625 230.25 C176.89302625 227.46149834 177.81736361 227.0433875 181.140625 226.25390625 C183.60928663 225.95714161 186.08090081 225.68407111 188.5546875 225.43359375 C195.72987776 224.53059361 200.89929619 221.24651543 205.45703125 215.65625 C210.7368287 206.56697844 211.70095882 195.28072941 211 185 C197.40463476 184.45698985 184.83896062 185.37290318 174.6875 195.25 Z M-42 194 C-41 196 -41 196 -41 196 Z M321 194 C321 197 321 197 321 197 Z M-40 197 C-39 199 -39 199 -39 199 Z M319 197 C320 199 320 199 320 199 Z M-39 199 C-38 201 -38 201 -38 201 Z M318 199 C319 201 319 201 319 201 Z M-38 201 C-37.67 205.62 -37.34 210.24 -37 215 C-34.52657734 211.28986601 -34.61496514 209.38939738 -35 205 C-35.99 203.68 -36.98 202.36 -38 201 Z M317 201 C314.66953299 204.6413547 314.69108907 207.7524747 315 212 C315.99 213.485 315.99 213.485 317 215 C317.33 210.38 317.66 205.76 318 201 C317.67 201 317.34 201 317 201 Z M-36.3125 228.25 C-42.22068829 233.28555031 -50.49955883 234.88386292 -58 236 C-55.54368248 238.82848685 -52.9675774 240.11881922 -49.5625 241.625 C-48.61503906 242.05039063 -47.66757813 242.47578125 -46.69140625 242.9140625 C-40.53203757 245.39926496 -34.29761153 246.14406931 -27.9375 243.9375 C-25.63266572 242.03026917 -25.63266572 242.03026917 -25.5625 238.4375 C-25.65113568 234.94074886 -25.65113568 234.94074886 -28 233 C-31.59679066 233.32326553 -31.59679066 233.32326553 -35 234 C-34.34 231.36 -33.68 228.72 -33 226 C-34.41829191 225.88377417 -34.41829191 225.88377417 -36.3125 228.25 Z M313 226 C313.66 228.64 314.32 231.28 315 234 C313.88625 233.79375 312.7725 233.5875 311.625 233.375 C310.42875 233.25125 309.2325 233.1275 308 233 C305.65113568 234.94074886 305.65113568 234.94074886 305.5625 238.4375 C305.63266572 242.03026917 305.63266572 242.03026917 307.9375 243.9375 C316.1852183 246.79895329 323.26687208 244.44211408 331 241 C333.41822353 239.75945552 335.68972234 238.4375061 338 237 C338 236.67 338 236.34 338 236 C336.91460937 235.75765625 335.82921875 235.5153125 334.7109375 235.265625 C333.26547493 234.92772466 331.82017061 234.58914687 330.375 234.25 C329.66214844 234.09273437 328.94929688 233.93546875 328.21484375 233.7734375 C323.42631627 232.63121994 320.00493227 230.98314603 316 228 C315.01 227.34 314.02 226.68 313 226 Z M69 230 C68.46632812 230.64066406 67.93265625 231.28132812 67.3828125 231.94140625 C59.58867884 240.98961332 50.96852784 248.86843181 38.640625 250.26782227 C36.25285546 250.36443008 33.88904537 250.36121626 31.5 250.3125 C30.70980469 250.31572266 29.91960937 250.31894531 29.10546875 250.32226562 C23.52261568 250.27201081 18.39613823 249.40786342 13 248 C15.72759939 250.84158861 18.64133202 252.9276304 22 255 C22.66 255 23.32 255 24 255 C20.72291137 258.67033927 17.28477792 260.69281189 13 263 C16.0197047 264.32382628 16.0197047 264.32382628 19.1875 263.0625 C29.58844821 260.2799585 41.47098841 260.91786048 51 266 C53.18568149 267.44972444 55.23214446 268.95379647 57.24609375 270.6328125 C58.9838544 272.08308113 58.9838544 272.08308113 61.16015625 273.0625 C63.56984897 274.2903689 63.86440072 275.58685153 65 278 C66.29470975 279.37086915 67.62150897 280.71340837 69 282 C71.21654627 280.97088923 73.10869177 279.91765775 75.0625 278.4375 C80.46604524 274.42841805 88.36049572 275.64210112 94.6875 276.5 C95.450625 276.665 96.21375 276.83 97 277 C97.391875 276.113125 97.78375 275.22625 98.1875 274.3125 C103.27850692 265.00824597 112.9475763 261.08106518 122.75 258.125 C124.16351343 257.73828406 125.57903893 257.35838399 127 257 C126.0692117 254.56702089 126.0692117 254.56702089 122.46484375 253.703125 C120.95633647 253.21686194 119.44718322 252.73259977 117.9375 252.25 C107.80898556 248.82617317 102.1588741 245.47845198 97 236 C95.17275391 236.06960937 95.17275391 236.06960937 93.30859375 236.140625 C91.68492052 236.17816658 90.06122055 236.21456417 88.4375 236.25 C87.63763672 236.28351563 86.83777344 236.31703125 86.01367188 236.3515625 C80.10260473 236.44806972 76.88929004 235.32940306 72 232 C71.01 231.34 70.02 230.68 69 230 Z M203 235 C196.75547107 237.08150964 189.36775821 236.37681259 183 235 C182.75507813 235.58007812 182.51015625 236.16015625 182.2578125 236.7578125 C178.61653123 244.36683474 173.86092267 247.86849806 165.97802734 250.73535156 C161.3591337 252.30216286 156.69564254 253.68335582 152 255 C152.9437769 257.47036 152.9437769 257.47036 156.75390625 258.296875 C158.35623646 258.7830148 159.9591347 259.26728504 161.5625 259.75 C172.00634471 263.07898828 177.70481507 266.29216096 183 276 C184.82724609 275.93039062 184.82724609 275.93039062 186.69140625 275.859375 C188.31507948 275.82183342 189.93877945 275.78543583 191.5625 275.75 C192.36236328 275.71648437 193.16222656 275.68296875 193.98632812 275.6484375 C199.89739527 275.55193028 203.11070996 276.67059694 208 280 C208.99 280.66 209.98 281.32 211 282 C211.52207031 281.35933594 212.04414063 280.71867187 212.58203125 280.05859375 C219.90199157 271.45667891 229.57228371 263.02846 241.30737305 261.74829102 C243.73307403 261.67053941 246.13648159 261.68804263 248.5625 261.75 C249.37396484 261.75515625 250.18542969 261.7603125 251.02148438 261.765625 C255.76843255 261.82692538 260.31787092 262.22069261 265 263 C262.38485683 260.87961365 259.80362384 258.86908256 257 257 C257 256.34 257 255.68 257 255 C259.1875 253.4921875 259.1875 253.4921875 262 251.875 C262.928125 251.33617187 263.85625 250.79734375 264.8125 250.2421875 C265.8953125 249.62730469 265.8953125 249.62730469 267 249 C263.90013477 247.66844743 263.90013477 247.66844743 260.25 248.9375 C247.63120867 251.94786525 236.5142155 250.38781405 225.5 243.9375 C220.40557634 240.59853878 216.6371039 236.62476802 212.77734375 231.94140625 C211.89755859 230.98041016 211.89755859 230.98041016 211 230 C207.58066806 230 205.5351629 232.87874125 203 235 Z M-58 275 C-58 275.33 -58 275.66 -58 276 C-56.37191406 276.36351562 -56.37191406 276.36351562 -54.7109375 276.734375 C-53.26547493 277.07227534 -51.82017061 277.41085313 -50.375 277.75 C-49.66214844 277.90726562 -48.94929688 278.06453125 -48.21484375 278.2265625 C-43.42631627 279.36878006 -40.00493227 281.01685397 -36 284 C-35.01 284.66 -34.02 285.32 -33 286 C-33.66 283.36 -34.32 280.72 -35 278 C-34.071875 278.20625 -33.14375 278.4125 -32.1875 278.625 C-28.84826598 279.36692966 -28.84826598 279.36692966 -26 277 C-25.33323122 273.54250051 -25.33323122 273.54250051 -26 270 C-28.81218873 267.27569216 -30.80616123 267.01971242 -34.6875 266.625 C-43.33378872 266.99880572 -50.73265491 270.55884467 -58 275 Z M306 270 C305.41657647 273.54230809 305.41657647 273.54230809 306 277 C306.66 277.66 307.32 278.32 308 279 C311.59679066 278.67673447 311.59679066 278.67673447 315 278 C314.34 280.64 313.68 283.28 313 286 C313.4640625 285.61328125 313.928125 285.2265625 314.40625 284.828125 C321.62533179 279.38687678 329.3219789 277.81013937 338 276 C332.12483341 269.65482008 323.26995918 267.05245602 314.8125 266.6875 C310.83923703 267.01317729 308.8694662 267.22020462 306 270 Z M140 268 C139.608125 269.2375 139.21625 270.475 138.8125 271.75 C131.62960752 293.03015809 131.62960752 293.03015809 122.80859375 297.68359375 C121.88175781 298.11800781 120.95492187 298.55242187 120 299 C120.04640625 300.21816406 120.0928125 301.43632812 120.140625 302.69140625 C120.17816658 304.31507948 120.21456417 305.93877945 120.25 307.5625 C120.28351563 308.36236328 120.31703125 309.16222656 120.3515625 309.98632812 C120.44732276 315.85164375 119.40908485 319.19571561 116 324 C115.01 324.495 115.01 324.495 114 325 C115.39756559 328.28713131 116.95644751 329.99488612 119.75 332.1875 C128.17244408 339.35878391 134.14229125 350.07460604 135.05078125 361.21875 C134.9297236 367.84898457 133.91131162 374.44006267 133 381 C135.12038635 378.38485683 137.13091744 375.80362384 139 373 C139.66 373 140.32 373 141 373 C142.2890625 374.75 142.2890625 374.75 143.625 377 C144.07101562 377.7425 144.51703125 378.485 144.9765625 379.25 C145.48316406 380.11625 145.48316406 380.11625 146 381 C147.00983617 377.85828747 146.80877991 376.14408181 146 373 C145.40746196 363.11141432 144.8860179 353.82161913 150 345 C150.4125 344.2471875 150.825 343.494375 151.25 342.71875 C155.09297487 336.34290533 160.32724293 331.74224554 166 327 C164.93627051 324.7942579 163.92200211 322.89704279 162.4375 320.9375 C158.42841805 315.53395476 159.64210112 307.63950428 160.5 301.3125 C160.665 300.549375 160.83 299.78625 161 299 C160.113125 298.608125 159.22625 298.21625 158.3125 297.8125 C149.73272663 293.11790702 145.88831282 284.81994922 142.953125 275.7734375 C142.24588484 273.19134371 141.58615334 270.61198156 141 268 C140.67 268 140.34 268 140 268 Z M104.19921875 281.4140625 C102.92342233 283.00086373 102.92342233 283.00086373 102 285 C99.65722298 285.37224452 97.29868547 285.64702347 94.9375 285.875 C87.01515709 286.80660106 81.18092852 288.16199617 75.75 294.25 C69.43679668 303.49556552 68.25944428 316.13851611 69 327 C80.98384092 327.47864453 93.44574186 327.20203135 103 319 C108.41199315 313.21428865 109.91813476 307.1217039 110.25 299.3125 C110.4765625 296.4375 110.4765625 296.4375 111 294 C113.625 291.8125 113.625 291.8125 117 290 C120.98676962 286.41190734 123.7433835 283.56536063 124.625 278.1875 C124.19999059 275.10173979 124.19999059 275.10173979 122.875 273.0625 C115.02526133 268.61431476 108.87001381 275.79930099 104.19921875 281.4140625 Z M157 273 C155.93073981 277.50616795 155.46646698 279.81167645 157.375 284.0625 C159.76576405 286.73787882 161.66739139 288.08709508 164.625 290 C167.74950217 292.29503335 168.84440352 293.4140151 169.8515625 297.20703125 C170.11929401 299.62973892 170.35714561 302.05591816 170.56640625 304.484375 C171.36958087 310.99660164 173.98665025 316.79153959 179.1875 320.9375 C188.76157102 326.84046753 200.09878005 327.17741588 211 327 C211.51866477 315.26280824 211.14434963 302.28896093 203 293 C198.22154663 288.54163442 192.96803561 286.08109854 186.32421875 285.9453125 C178.8528238 285.76332994 178.8528238 285.76332994 176.1015625 283.30078125 C174.61156855 281.25487585 173.28168363 279.18140856 172 277 C170.0706182 274.40531413 168.98807204 273.2235136 165.82421875 272.5078125 C161.27981538 271.79118101 161.27981538 271.79118101 157 273 Z M-0.25 289.1875 C-6.71090768 296.16901801 -8.558124 305.13766173 -9.5 314.3125 C-9.61617676 315.32030518 -9.73235352 316.32811035 -9.85205078 317.36645508 C-10.49978405 323.0698014 -11.08118688 328.77993974 -11.6647644 334.49012756 C-18.26576119 398.9910129 -18.26576119 398.9910129 -29.22827148 422.16113281 C-30.12899285 423.97498939 -30.12899285 423.97498939 -30 426 C-29.45400146 425.81679199 -28.90800293 425.63358398 -28.34545898 425.44482422 C-25.89823599 424.62603519 -23.44949347 423.81197126 -21 423 C-20.27441895 422.75926758 -19.54883789 422.51853516 -18.80126953 422.27050781 C5.05207404 414.46989329 29.32486975 411.32627384 54.16923523 408.72889709 C61.51579159 407.95623299 68.85144699 407.10678834 76.18106079 406.18728638 C78.1253002 405.9452434 80.07081795 405.71353852 82.01635742 405.48217773 C93.81890468 403.98648727 102.41880925 401.626197 111 393 C116.7342552 385.18908696 118.90211226 376.59788293 118 367 C116.15980353 356.48719443 108.57934498 347.04874682 100 341 C94.40992301 337.09994629 88.56847672 337.3847469 82 338 C74.77681635 339.3776175 68.91732329 343.97291684 64.64453125 349.87109375 C60.63107269 356.60848808 60.24694101 363.29404024 61 371 C62.54506631 374.57264285 62.54506631 374.57264285 65 377 C65.556875 377.61875 66.11375 378.2375 66.6875 378.875 C70.40940285 380.68565544 73.95625112 380.75685139 78 380 C81.70219508 377.45474088 82.7681855 375.81135075 84 371.5 C84 367.48855605 83.70297813 365.95638233 81 363 C77.42003741 361.63099646 77.42003741 361.63099646 74 361 C75.50635465 356.78220697 78.24012422 355.2252326 82 353 C88.35051012 350.88316329 94.28358098 351.31008104 100.375 354.0625 C104.89787986 356.5973008 107.41866465 359.03580801 109 364 C111.0819751 371.74142853 109.55383494 379.2676541 105.77734375 386.265625 C100.45800571 394.02978415 92.20044366 399.16899065 83 401 C73.28818714 402.1706203 64.71794083 399.76346765 56.625 394.3125 C50.64917382 389.463264 47.48738519 382.43692595 46 375 C45.56257068 370.67148434 45.2481835 366.34321125 45 362 C40.63290159 365.01179201 38.45163207 368.28080659 36.25 373 C35.94707031 373.61617188 35.64414063 374.23234375 35.33203125 374.8671875 C32.07673355 381.60927073 31.20052386 387.52711882 32 395 C34.24720749 398.99503554 36.98255394 400.87968125 41 403 C37.25606575 404.87196713 32.63176265 404.48511863 28.6875 403.3125 C25.11315014 400.53245011 24.10291568 397.57071422 23.3125 393.1875 C23.1578125 391.6096875 23.1578125 391.6096875 23 390 C21.52046748 391.91744014 20.12090396 393.78754195 18.921875 395.89453125 C14.35577394 403.36771665 6.77220527 405.89656848 -1 409 C-2.21308838 409.48678223 -2.21308838 409.48678223 -3.45068359 409.98339844 C-8.61403991 412.04236276 -13.79843498 414.03973094 -19 416 C-18.03925995 410.65069431 -16.18155229 405.81322346 -14.25 400.75 C-13.91484375 399.84636719 -13.5796875 398.94273437 -13.234375 398.01171875 C-6.82746335 381.14503845 -6.82746335 381.14503845 0.125 377.5625 C0.97320312 377.11003906 1.82140625 376.65757812 2.6953125 376.19140625 C3.45585938 375.79824219 4.21640625 375.40507812 5 375 C5.99 374.34 6.98 373.68 8 373 C7.40832031 372.96261719 6.81664062 372.92523438 6.20703125 372.88671875 C1.46033751 372.49180622 -2.19027074 372.11705121 -6 369 C-8.79984643 365.40019745 -8.28080979 361.35255168 -8 357 C-7.01 356.01 -7.01 356.01 -6 355 C-5.484375 356.093125 -4.96875 357.18625 -4.4375 358.3125 C-2.57415278 361.48470358 -0.7857129 363.44686879 2.82421875 364.69140625 C13.45175701 366.19872317 23.345228 360.79278097 31.625 354.75 C32.77658678 353.86696508 33.91203302 352.9603284 35 352 C35 351.67 35 351.34 35 351 C34.04480469 350.97421875 33.08960938 350.9484375 32.10546875 350.921875 C22.12055559 350.48385289 11.2939892 349.71078858 4 342 C-2.2497683 334.17573995 -5.74756004 325.68282178 -5.3359375 315.56640625 C-4.04125737 305.67565223 0.57859999 298.54543148 8 292 C13.53888811 288.37768217 18.80319094 286.84023079 25.375 286.75 C26.49648437 286.72421875 27.61796875 286.6984375 28.7734375 286.671875 C32.31200927 287.03172976 34.08549348 288.04326418 37 290 C37.66 290 38.32 290 39 290 C39.68774405 291.32258472 40.34711373 292.65986503 41 294 C41.53625 295.010625 42.0725 296.02125 42.625 297.0625 C44.90729559 302.54471519 45.29614723 308.79963647 43.05078125 314.34375 C40.65588397 318.39316622 37.91029639 321.31865391 34 324 C34.226875 323.46375 34.45375 322.9275 34.6875 322.375 C35.1528547 318.83830431 33.86734965 316.96200289 32 314 C29.41173008 311.87392114 27.9540389 312 24.5625 312 C19.92129361 313.30279478 18.49585982 314.91586574 16 319 C15.30558065 323.32083152 15.66978027 325.36402126 17.6875 329.25 C21.4433329 333.71639588 24.86247387 335.52069701 30.75390625 336.06640625 C38.26544707 335.84432591 45.2728256 332.67222834 50.58984375 327.43359375 C56.93023554 320.5041191 58.67640847 314.55503848 58.3984375 305.2109375 C57.33793261 296.66451575 52.04560716 291.40411713 45.66796875 286.015625 C30.57790613 274.6152263 12.82397475 275.50936745 -0.25 289.1875 Z M225.41015625 295.0078125 C221.23237214 300.90994518 221.3292801 307.0227709 222 314 C223.75783771 322.22290527 228.18284513 327.26996076 235 332 C241.10676404 335.64931372 248.0559642 335.87899187 255 335 C259.45860742 332.88802807 262.12154533 330.59177808 264 326 C264.51060843 323.20867394 264.61758952 320.77915286 264 318 C261.05423033 314.35654804 258.88105815 312.20900646 254.1875 311.6875 C250.14788144 312.08354104 248.70270845 312.98841058 246 316 C245.10944264 319.64182335 245.10944264 319.64182335 245 323 C240.23132973 319.82088648 237.70986272 316.40099495 236 311 C234.69421614 303.53359485 236.21481582 298.43584871 240.19921875 292.09375 C243.39975043 288.37252444 246.84155513 286.65364853 251.6875 286.125 C260.06521487 285.54079733 267.19808278 288.37592835 273.9609375 293.203125 C280.1667815 298.67187642 284.38324699 306.57866486 285.31640625 314.78125 C285.73359122 325.22433176 282.74982891 333.99993621 276.06640625 342.0546875 C269.23527895 348.485503 261.30166253 350.17372081 252.25 350.0625 C251.55261719 350.05798828 250.85523438 350.05347656 250.13671875 350.04882812 C248.42444197 350.0371002 246.71220967 350.01916653 245 350 C249.81815986 356.66512114 257.258742 361.20404704 265.1875 363.4375 C270.64260558 364.24235164 275.60261327 364.95895469 280.8125 362.875 C283.50472023 360.56738266 285.18288819 358.02851968 287 355 C288.56033623 356.56033623 288.20707559 358.08947136 288.25 360.25 C288.19837336 364.30914466 287.70122797 366.81640989 285 370 C281.49778204 372.59423553 277.2161802 372.57838198 273 373 C274.68396077 374.12264051 276.38169593 375.22704933 278.12109375 376.26171875 C283.3271354 379.46611201 286.56289088 382.31674143 289 388 C289.68835938 389.51787109 289.68835938 389.51787109 290.390625 391.06640625 C294.00921985 399.24479613 297.09615496 407.54544231 300 416 C296.03871539 414.44491284 292.08156007 412.87956452 288.125 411.3125 C286.46210938 410.65991211 286.46210938 410.65991211 284.765625 409.99414062 C264.55516285 401.9693983 264.55516285 401.9693983 261.5 395.8125 C259.63231383 392.13342597 259.63231383 392.13342597 257 389 C256.86722656 389.68707031 256.73445313 390.37414062 256.59765625 391.08203125 C256.33275391 392.43361328 256.33275391 392.43361328 256.0625 393.8125 C255.80146484 395.15248047 255.80146484 395.15248047 255.53515625 396.51953125 C255 399 255 399 254 402 C250.03596983 404.21519333 246.47521505 404.33149741 242 404 C240.515 403.01 240.515 403.01 239 402 C239.928125 401.5875 240.85625 401.175 241.8125 400.75 C245.02615777 398.98563887 246.17191929 398.08085367 248 395 C249.82691694 383.92328739 246.14087089 374.6972146 239.8125 365.8125 C238.58055085 364.17828173 237.32113996 362.56299625 236 361 C235.67 361 235.34 361 235 361 C234.97421875 361.95519531 234.9484375 362.91039062 234.921875 363.89453125 C234.44467766 374.77246163 233.26559669 385.11011225 225 393 C217.63599314 398.74952661 208.93084617 401.68549366 199.57421875 401.34765625 C190.62693892 400.13929828 182.40902053 396.13426411 176.50390625 389.2578125 C171.71656113 382.41063046 169.17784431 373.85807113 170.5625 365.5625 C172.06455524 359.94103577 174.51127086 356.67866747 179.5 353.6875 C184.84779461 351.25305619 190.24736066 351.10308311 196 352 C201.24301208 354.07677751 204.81305872 357.3523773 208 362 C207.46375 361.773125 206.9275 361.54625 206.375 361.3125 C202.83830431 360.8471453 200.96200289 362.13265035 198 364 C195.87392114 366.58826992 196 368.0459611 196 371.4375 C197.30279478 376.07870639 198.91586574 377.50414018 203 380 C207.3291249 380.78711362 210.07350999 380.27555382 213.75 378 C217.53039545 374.93642897 219.37007045 371.84009163 220 367 C219.70139731 358.12552802 217.22918966 351.40358923 211.10546875 345.02734375 C204.35015556 338.73702344 198.32104017 337.51496286 189.1875 337.69140625 C182.17359795 338.37044824 177.46367165 341.82810553 172.734375 346.8828125 C165.54430616 355.65987851 161.65177357 363.03365083 162.0625 374.375 C162.95831907 383.27141007 166.36142608 390.43919207 173.01953125 396.47265625 C178.97411083 401.06484681 185.01364623 403.2329225 192.39453125 404.4921875 C193.12544479 404.61872711 193.85635834 404.74526672 194.60942078 404.87564087 C203.75463852 406.38472137 212.97515738 407.20233732 222.1980896 408.07662964 C252.19587359 410.95051217 281.79302527 414.7700569 310 426 C309.608125 424.824375 309.21625 423.64875 308.8125 422.4375 C308.53792969 421.6021875 308.26335937 420.766875 307.98046875 419.90625 C307.30250501 417.89666825 306.59472694 415.89698877 305.86328125 413.90625 C297.06682549 389.26507424 294.59540369 362.87950325 291.96875 336.99609375 C291.88218643 336.14887756 291.79562286 335.30166138 291.70643616 334.42877197 C291.28426861 330.2842852 290.87283005 326.13927788 290.48217773 321.99169922 C288.74722194 302.26566306 288.74722194 302.26566306 278.04296875 286.21875 C259.24617163 271.55509183 240.07567521 278.29674834 225.41015625 295.0078125 Z M-37 297 C-37.66 302.28 -38.32 307.56 -39 313 C-35.24233164 307.98977552 -34.6730459 306.21212795 -35 300 C-35.66 299.01 -36.32 298.02 -37 297 Z M316 297 C314.36452505 301.90642484 314.42477247 305.68177024 316.5 310.4375 C316.995 311.283125 317.49 312.12875 318 313 C319.22602512 309.32192463 318.70295577 307.11756073 318.0625 303.3125 C317.86785156 302.13300781 317.67320312 300.95351563 317.47265625 299.73828125 C317.31667969 298.83464844 317.16070312 297.93101562 317 297 C316.67 297 316.34 297 316 297 Z M-40 313 C-39 315 -39 315 -39 315 Z M319 313 C320 315 320 315 320 315 Z M132 381 C133 383 133 383 133 383 Z M147 381 C148 383 148 383 148 383 Z M148 383 C149 385 149 385 149 385 Z M149 385 C150 387 150 387 150 387 Z M150 387 C151 389 151 389 151 389 Z M128 389 C129 391 129 391 129 391 Z M118.625 422.5625 C116.66120256 424.96521177 116.66120256 424.96521177 117.25 428.25 C117.4975 429.1575 117.745 430.065 118 431 C115.36 430.34 112.72 429.68 110 429 C110.38671875 429.4640625 110.7734375 429.928125 111.171875 430.40625 C116.61312322 437.62533179 118.18986063 445.3219789 120 454 C122.80592657 451.55506983 124.11593244 449.00420037 125.625 445.625 C126.05039063 444.68914062 126.47578125 443.75328125 126.9140625 442.7890625 C129.04497104 437.31615352 129.59942641 431.83078415 129 426 C127.55287366 422.95341824 126.66208371 422.27162409 123.5625 421 C120.88297749 420.76526795 120.88297749 420.76526795 118.625 422.5625 Z M152 424 C149.17572072 429.64855856 151.14394703 436.79910195 153 442.4921875 C154.61759833 446.5488208 156.72607522 450.27903218 159 454 C159.33 454 159.66 454 160 454 C160.36351562 452.37191406 160.36351562 452.37191406 160.734375 450.7109375 C161.07227534 449.26547493 161.41085313 447.82017061 161.75 446.375 C161.90726562 445.66214844 162.06453125 444.94929688 162.2265625 444.21484375 C163.36878006 439.42631627 165.01685397 436.00493227 168 432 C168.66 431.01 169.32 430.02 170 429 C167.36 429.66 164.72 430.32 162 431 C162.37125 429.63875 162.37125 429.63875 162.75 428.25 C163.36777532 424.93540324 163.36777532 424.93540324 161.1875 422.625 C157.3911579 419.80486015 155.64853134 421.56764578 152 424 Z M85 434 C89.62 433.67 94.24 433.34 99 433 C93.64051205 429.42700803 90.00810083 430.24392438 85 434 Z M181 433 C187.93 433.495 187.93 433.495 195 434 C189.99189917 430.24392438 186.35948795 429.42700803 181 433 Z " fill="#000000" transform="translate(116,0)"/>
<path d="M0 0 C3.06465807 1.73025487 5.40191031 3.80382062 7 7 C7.78375 6.030625 8.5675 5.06125 9.375 4.0625 C11.3952649 1.56375131 12.63909744 0.16603011 15.953125 -0.23828125 C21.51311183 -0.41794069 24.6706614 0.17407286 29 4 C33.66154716 10.1734003 34.98675664 15.37815563 34 23 C31.84582902 28.40957735 27.93517299 32.144833 23.8203125 36.1171875 C16.38978732 43.80283801 12.23299934 53.35030546 8 63 C7.34 63 6.68 63 6 63 C5.20335937 61.37191406 5.20335937 61.37191406 4.390625 59.7109375 C3.6773009 58.26551761 2.96374699 56.82021111 2.25 55.375 C1.90195313 54.66214844 1.55390625 53.94929688 1.1953125 53.21484375 C-1.65183467 47.46782446 -4.57265166 42.05019673 -9.375 37.6875 C-14.97903324 32.27670929 -20.08725173 25.82127908 -20.375 17.875 C-20.31355438 12.01462421 -18.88025137 8.36271649 -15 4 C-10.43088325 -0.1537425 -5.99213632 -1.27332897 0 0 Z M-10.375 10 C-12.44869245 13.82835529 -13.10555734 16.81251226 -12 21 C-10.03525736 24.32541844 -7.54542817 27.10683574 -5 30 C-3.41110259 31.93293966 -1.82784944 33.87053145 -0.25 35.8125 C0.48734375 36.70582031 1.2246875 37.59914063 1.984375 38.51953125 C3.71122924 40.64463288 5.37629874 42.7956714 7 45 C7.6290625 44.16597656 8.258125 43.33195312 8.90625 42.47265625 C13.56233899 36.33853078 18.27768353 30.3749066 23.50390625 24.70703125 C26.18547823 21.64737862 26.34362849 19.0863381 26.27734375 15.04296875 C25.8240801 11.70413934 24.53608761 10.13565273 22 8 C17.8865729 7.41236756 16.49565336 7.66956442 13 10 C13.33 12.31 13.66 14.62 14 17 C15.32 17 16.64 17 18 17 C18 15.68 18 14.36 18 13 C19.32 13.33 20.64 13.66 22 14 C22.25 19.625 22.25 19.625 20 23 C16.91529342 23.8717649 14.83927699 24.25644575 11.75 23.3125 C9.68896678 21.76672508 8.9481262 20.37031549 8 18 C7.34 18 6.68 18 6 18 C5.7525 18.61875 5.505 19.2375 5.25 19.875 C3.72610985 22.46561326 2.86546233 23.12444207 0 24 C-3.125 23.8125 -3.125 23.8125 -6 23 C-8.29013653 19.5647952 -8.17842973 18.014669 -8 14 C-6.68 13.67 -5.36 13.34 -4 13 C-4 14.32 -4 15.64 -4 17 C-2.68 17 -1.36 17 0 17 C0.33 14.69 0.66 12.38 1 10 C-3.2409902 7.1726732 -6.32854427 6.59245834 -10.375 10 Z " fill="#000000" transform="translate(249,3)"/>
<path d="M0 0 C0.66 0 1.32 0 2 0 C2.65742188 1.59714844 2.65742188 1.59714844 3.328125 3.2265625 C7.75220554 13.50814472 13.06346348 21.39986879 20.68164062 29.56445312 C26.0603224 35.42123994 28.49254432 39.43699674 28.31640625 47.3984375 C27.6491977 52.88437451 25.38286233 56.71591355 21.375 60.4375 C16.91349176 63.37270279 13.2777926 63.66542117 8 63 C4.90148223 61.1925313 3.40891929 60.13239188 2.1875 56.75 C2.125625 56.1725 2.06375 55.595 2 55 C1.34 55 0.68 55 0 55 C-0.2475 55.763125 -0.495 56.52625 -0.75 57.3125 C-2.20680612 60.44463315 -2.89473363 61.48717792 -6 63 C-10.66164576 63.72810467 -14.05364733 63.46424848 -18.3125 61.375 C-22.56051739 57.62093812 -25.56124872 53.52881389 -26.2734375 47.80078125 C-26.54846508 41.06260559 -25.0463322 37.30927831 -21 32 C-20.34 31.01 -19.68 30.02 -19 29 C-18.34 29 -17.68 29 -17 29 C-16.58621094 28.09701172 -16.58621094 28.09701172 -16.1640625 27.17578125 C-15 25 -15 25 -12.375 22.1875 C-6.98070357 16.10060255 -2.56128965 7.68386895 0 0 Z M0 18 C-1.27876643 19.68548895 -1.27876643 19.68548895 -2.5625 21.875 C-5.58495309 26.59479128 -9.10379852 30.57603574 -12.94921875 34.640625 C-17.04100479 39.34812741 -18.59120768 42.71980805 -18.34375 48.90625 C-18.10306223 51.19168061 -18.10306223 51.19168061 -16.4375 53.5625 C-13.12048598 55.51868776 -10.78337161 55.42037462 -7 55 C-6.34 54.34 -5.68 53.68 -5 53 C-5.32326553 49.40320934 -5.32326553 49.40320934 -6 46 C-7.32 46 -8.64 46 -10 46 C-10 47.32 -10 48.64 -10 50 C-10.99 49.67 -11.98 49.34 -13 49 C-13.75 46.25 -13.75 46.25 -14 43 C-12.4375 40.5625 -12.4375 40.5625 -10 39 C-7 38.9375 -7 38.9375 -4 40 C-1.75 42.5625 -1.75 42.5625 0 45 C0.66 45 1.32 45 2 45 C2.3403125 44.071875 2.3403125 44.071875 2.6875 43.125 C4.43433055 40.29679816 5.81115493 39.81575106 9 39 C11.6875 39.1875 11.6875 39.1875 14 40 C16 43 16 43 15.625 46.1875 C15.41875 47.115625 15.2125 48.04375 15 49 C14.01 49.33 13.02 49.66 12 50 C12 48.68 12 47.36 12 46 C10.68 46 9.36 46 8 46 C7.32326553 49.40320934 7.32326553 49.40320934 7 53 C8.93358244 55.34047454 8.93358244 55.34047454 12.375 55.4375 C16.05125952 55.32304846 16.05125952 55.32304846 18.4375 53 C20.42000405 49.19359222 21.00114891 46.14321626 20 42 C16.96550513 36.3961518 12.08541788 31.8765818 7.8359375 27.1875 C5.41166738 24.29900795 3.71158038 21.3518449 2 18 C1.34 18 0.68 18 0 18 Z " fill="#000000" transform="translate(255,446)"/>
<path d="M0 0 C3.10322009 2.18348744 5.04830864 4.85833602 6.7265625 8.21484375 C7.25943312 12.02106245 7.53831229 15.6696984 5.71484375 19.140625 C4.4140625 20.77734375 4.4140625 20.77734375 1.7265625 23.21484375 C0.7365625 23.21484375 -0.2534375 23.21484375 -1.2734375 23.21484375 C-1.2734375 23.87484375 -1.2734375 24.53484375 -1.2734375 25.21484375 C-0.4071875 25.30765625 -0.4071875 25.30765625 0.4765625 25.40234375 C3.85895438 26.62376304 4.9190938 28.11632598 6.7265625 31.21484375 C7.58450063 35.87344781 7.18948708 39.27118979 5.1015625 43.52734375 C1.43781154 47.6731672 -2.63389118 50.77694962 -8.25390625 51.453125 C-14.1706377 51.65209473 -18.4211858 50.68073782 -23.2734375 47.21484375 C-24.51104131 46.0151534 -25.71782229 44.78315738 -26.8984375 43.52734375 C-34.87534224 35.1273026 -45.64303349 29.53208946 -56.2734375 25.21484375 C-56.2734375 24.55484375 -56.2734375 23.89484375 -56.2734375 23.21484375 C-55.21125 22.70695312 -54.1490625 22.1990625 -53.0546875 21.67578125 C-43.20994387 16.90712438 -35.25945194 11.98635564 -27.2109375 4.52734375 C-18.97365774 -2.93141262 -10.18365689 -5.70041352 0 0 Z M-26.79736328 15.15332031 C-30.3385554 18.5882886 -33.90826077 20.9041884 -38.2734375 23.21484375 C-38.2734375 23.87484375 -38.2734375 24.53484375 -38.2734375 25.21484375 C-36.41906537 26.34807117 -34.56233217 27.47757671 -32.6953125 28.58984375 C-28.99861094 31.07021125 -25.86842436 34.11367488 -22.6015625 37.125 C-17.13356434 42.08946958 -17.13356434 42.08946958 -10.2734375 44.21484375 C-4.96406558 42.92777161 -4.96406558 42.92777161 -1.2734375 39.21484375 C-0.85670543 35.67284734 -0.85670543 35.67284734 -1.2734375 32.21484375 C-3.17098894 29.86510557 -3.17098894 29.86510557 -6.3984375 30.08984375 C-7.3471875 30.13109375 -8.2959375 30.17234375 -9.2734375 30.21484375 C-9.6034375 31.86484375 -9.9334375 33.51484375 -10.2734375 35.21484375 C-8.9534375 35.21484375 -7.6334375 35.21484375 -6.2734375 35.21484375 C-7.5934375 36.53484375 -8.9134375 37.85484375 -10.2734375 39.21484375 C-12.2534375 38.55484375 -14.2334375 37.89484375 -16.2734375 37.21484375 C-17.27793436 32.89550724 -17.60611518 30.10263988 -15.2734375 26.21484375 C-13.1484375 25.40234375 -13.1484375 25.40234375 -11.2734375 25.21484375 C-11.2734375 24.55484375 -11.2734375 23.89484375 -11.2734375 23.21484375 C-12.2015625 23.12203125 -12.2015625 23.12203125 -13.1484375 23.02734375 C-15.2734375 22.21484375 -15.2734375 22.21484375 -16.5859375 20.02734375 C-17.38697781 16.75036065 -17.03162111 14.47503327 -16.2734375 11.21484375 C-10.6484375 9.21484375 -10.6484375 9.21484375 -7.2734375 9.21484375 C-6.9434375 10.53484375 -6.6134375 11.85484375 -6.2734375 13.21484375 C-7.5934375 13.21484375 -8.9134375 13.21484375 -10.2734375 13.21484375 C-9.9434375 14.86484375 -9.6134375 16.51484375 -9.2734375 18.21484375 C-6.35691576 18.38165484 -6.35691576 18.38165484 -3.2734375 18.21484375 C-0.92530016 16.28316977 -0.92530016 16.28316977 -0.8984375 12.83984375 C-0.9798061 9.23905437 -0.9798061 9.23905437 -2.8984375 6.83984375 C-12.34742177 0.37474925 -20.13835046 8.59887601 -26.79736328 15.15332031 Z " fill="#000000" transform="translate(502.2734375,231.78515625)"/>
<path d="M0 0 C3.02828415 1.68896474 5.19439499 3.66856027 7.5625 6.1875 C15.53940474 14.58754115 26.30709599 20.18275429 36.9375 24.5 C36.9375 25.16 36.9375 25.82 36.9375 26.5 C35.85210937 27.03109375 34.76671875 27.5621875 33.6484375 28.109375 C32.20301761 28.8226991 30.75771111 29.53625301 29.3125 30.25 C28.59964844 30.59804688 27.88679688 30.94609375 27.15234375 31.3046875 C20.72604333 34.48835927 15.19569518 38.07886861 9.9375 43 C3.16236293 49.19441103 -1.97709046 52.95409967 -11.42578125 52.84375 C-17.14291854 52.09840469 -20.7895917 48.90019913 -24.5625 44.75 C-26.51650271 40.51632747 -27.02643368 37.08276944 -26.0625 32.5 C-24.65323457 29.86972979 -23.32968776 28.55628658 -21.0625 26.5 C-20.0725 26.5 -19.0825 26.5 -18.0625 26.5 C-18.0625 25.84 -18.0625 25.18 -18.0625 24.5 C-18.92875 24.4071875 -18.92875 24.4071875 -19.8125 24.3125 C-23.19489188 23.09108071 -24.2550313 21.59851777 -26.0625 18.5 C-26.92043813 13.84139594 -26.52542458 10.44365396 -24.4375 6.1875 C-17.98508573 -1.11391615 -9.1326394 -4.09705364 0 0 Z M-16.9375 8.6875 C-18.74568512 11.60068713 -18.36521562 14.17012813 -18.0625 17.5 C-17.4025 18.16 -16.7425 18.82 -16.0625 19.5 C-12.46570934 19.17673447 -12.46570934 19.17673447 -9.0625 18.5 C-9.0625 17.18 -9.0625 15.86 -9.0625 14.5 C-10.3825 14.5 -11.7025 14.5 -13.0625 14.5 C-12.7325 13.18 -12.4025 11.86 -12.0625 10.5 C-4.52093521 10.98655257 -4.52093521 10.98655257 -2.5 13.25 C-1.93815716 16.13947746 -2.02246651 17.72657737 -3.0625 20.5 C-4.68582967 21.88576923 -6.34974465 23.22641268 -8.0625 24.5 C-8.0625 25.16 -8.0625 25.82 -8.0625 26.5 C-7.258125 27.098125 -6.45375 27.69625 -5.625 28.3125 C-3.0625 30.5 -3.0625 30.5 -2.125 33 C-2.04971377 36.01144924 -2.03355036 37.2275764 -4.0625 39.5 C-6.76390657 40.16022156 -9.26569832 40.31956118 -12.0625 40.5 C-12.3925 39.18 -12.7225 37.86 -13.0625 36.5 C-11.7425 36.17 -10.4225 35.84 -9.0625 35.5 C-9.0625 34.51 -9.0625 33.52 -9.0625 32.5 C-12.46570934 31.82326553 -12.46570934 31.82326553 -16.0625 31.5 C-18.41063734 33.43167398 -18.41063734 33.43167398 -18.4375 36.875 C-18.3561314 40.47578938 -18.3561314 40.47578938 -16.4375 42.875 C-13.47879363 44.89937804 -11.65189134 45.42821217 -8.0625 45.5 C-3.72580331 43.66231746 -0.63223903 41.43512255 2.75 38.1875 C7.69225044 33.60414218 12.88597992 29.52576004 18.9375 26.5 C18.9375 25.84 18.9375 25.18 18.9375 24.5 C17.08312787 23.36677258 15.22639467 22.23726704 13.359375 21.125 C9.66267344 18.6446325 6.53248686 15.60116887 3.265625 12.58984375 C-3.37323827 6.63046145 -8.61420518 3.41607995 -16.9375 8.6875 Z " fill="#000000" transform="translate(29.0625,230.5)"/>
</svg>
