<?xml version="1.0" encoding="UTF-8"?>
<svg version="1.1" xmlns="http://www.w3.org/2000/svg" width="512" height="512">
<path d="M0 0 C16.42984345 7.01456787 28.89215917 30.89959508 35.375 46.625 C42.26444836 64.20956122 41.40712261 82.28837548 34 99.5625 C32.22908558 103.5516692 30.31525975 107.29971879 28 111 C28.97839844 110.79503906 29.95679688 110.59007812 30.96484375 110.37890625 C32.28901878 110.10655819 33.61324007 109.83443494 34.9375 109.5625 C36.22527344 109.29566406 37.51304687 109.02882813 38.83984375 108.75390625 C59.54236004 104.79857756 80.73391012 105.6789431 99 117 C104.36546527 121.08530863 108.72012374 125.06498581 112 131 C110.71867187 131.23074219 109.43734375 131.46148437 108.1171875 131.69921875 C84.13500286 136.15561151 63.36453491 144.40810014 48.6171875 164.94140625 C37.38682537 181.65904099 29.80924023 201.93753611 28 222 C28.69222656 221.45472656 29.38445312 220.90945312 30.09765625 220.34765625 C67.10677745 191.82283951 113.84898655 178.99556183 160.43554688 184.3984375 C190.88919253 189.2710208 218.00114349 204.73197093 236.3125 229.75 C250.64084226 250.20308492 257.63471172 275.58843726 257.4375 300.375 C257.43243942 301.38714569 257.43243942 301.38714569 257.42727661 302.41973877 C257.35034276 313.07625746 256.60964238 322.93342113 253 333 C252.75330566 333.70753418 252.50661133 334.41506836 252.25244141 335.14404297 C248.74617418 344.96116073 244.36462266 353.68221272 238 362 C237.59797363 362.5254541 237.19594727 363.0509082 236.78173828 363.59228516 C219.40488382 385.97569226 194.82016225 400.60898008 166.88671875 405.55078125 C143.37522916 408.26818959 117.29699115 405.8505459 98 391 C85.1439221 380.28029975 79.29247017 367.28013097 77.6875 350.7890625 C77.111218 336.20192436 81.64342617 321.3039022 90.7265625 309.81640625 C100.71912831 299.20786035 114.64590469 295.23713383 128.92578125 294.796875 C130.72129881 294.77582864 132.51688871 294.7603122 134.3125 294.75 C135.6418457 294.7190625 135.6418457 294.7190625 136.99804688 294.6875 C147.07855253 294.62867867 155.58497517 296.96851094 163 304 C171.97591217 313.47457395 175.07991449 326.96825773 175.125 339.75 C175.08375 340.8225 175.0425 341.895 175 343 C184.75333788 338.39978622 190.45312094 332.62433142 194.2734375 322.4921875 C198.97877341 306.35237938 195.79307138 288.64965529 187.94140625 274.09375 C179.43907037 260.544756 163.9644959 253.20591308 148.9375 249.1875 C132.52694366 245.99300905 114.13492026 246.65091414 98 251 C96.98808594 251.26683594 95.97617187 251.53367187 94.93359375 251.80859375 C81.22384214 255.91604264 68.98581978 262.92545588 58 272 C57.20078125 272.63550781 56.4015625 273.27101563 55.578125 273.92578125 C39.82851464 287.04140505 29.70642876 306.81560608 27 327 C25.54250522 355.16888946 33.42287987 382.35228151 52 404 C52.72703125 404.87140625 53.4540625 405.7428125 54.203125 406.640625 C75.35934391 431.07264555 105.05607233 441.19994177 136 447 C132.79773318 453.80382756 126.57600598 457.64694769 119.6875 460.3125 C99.59185374 466.76192917 73.1707182 466.57838723 53.8203125 457.49609375 C43.12315564 451.82156317 34.58764151 445.43769857 26 437 C25.39414062 436.43925781 24.78828125 435.87851562 24.1640625 435.30078125 C23 434 23 434 23 432 C22.34 432 21.68 432 21 432 C19.7824707 430.64575195 19.7824707 430.64575195 18.42578125 428.73828125 C17.92594727 428.03711182 17.42611328 427.33594238 16.91113281 426.61352539 C16.38358398 425.85418701 15.85603516 425.09484863 15.3125 424.3125 C14.77592773 423.54607178 14.23935547 422.77964355 13.68652344 421.98999023 C2 405.04312239 2 405.04312239 2 400 C1.34 400 0.68 400 0 400 C-0.24492187 400.84046875 -0.48984375 401.6809375 -0.7421875 402.546875 C-2.14255963 406.39137488 -4.00531977 409.77195206 -6.125 413.25 C-6.72441406 414.23842896 -6.72441406 414.23842896 -7.3359375 415.24682617 C-10.80680887 420.86845704 -14.66285876 426.01228758 -19 431 C-19.7321875 431.85335938 -20.464375 432.70671875 -21.21875 433.5859375 C-31.75385729 445.6002893 -43.70799142 454.79091782 -59 460 C-59.94746094 460.3403125 -60.89492187 460.680625 -61.87109375 461.03125 C-80.50621703 466.80092612 -104.73814971 466.04972155 -122.63671875 458.37890625 C-127.32430739 455.64383387 -131.2679002 451.91473447 -135 448 C-135 447.67 -135 447.34 -135 447 C-134.351521 446.87471924 -133.70304199 446.74943848 -133.03491211 446.62036133 C-104.25342315 441.00166428 -77.6152352 432.55777876 -56.83984375 410.73046875 C-55 409 -55 409 -53 409 C-52.73445312 408.42121094 -52.46890625 407.84242188 -52.1953125 407.24609375 C-50.95703305 404.91926145 -49.55115053 403.09337076 -47.875 401.0625 C-31.7912599 380.56492685 -22.56231575 354.21786311 -25.20214844 327.99169922 C-27.67985682 308.88529516 -36.11669949 292.31166644 -49 278 C-49.99 277.34 -50.98 276.68 -52 276 C-52 275.34 -52 274.68 -52 274 C-52.82757813 273.63261719 -52.82757813 273.63261719 -53.671875 273.2578125 C-56.47472469 271.74352122 -58.76389766 269.86804853 -61.25 267.875 C-79.58839215 253.79450055 -102.41333008 247.57586776 -125.3125 247.6875 C-126.50439941 247.69241455 -127.69629883 247.6973291 -128.92431641 247.70239258 C-137.34198178 247.81458976 -144.94678243 248.38928372 -153 251 C-154.09957031 251.3403125 -155.19914062 251.680625 -156.33203125 252.03125 C-163.36485544 254.45466788 -168.92487253 257.72408336 -174.7578125 262.328125 C-177 264 -177 264 -180 265 C-180.7154341 266.30781354 -181.37469962 267.64677361 -182 269 C-183.11283124 270.48834326 -184.239054 271.96672275 -185.375 273.4375 C-194.15617738 285.80432481 -195.67383941 302.66533941 -193.50390625 317.359375 C-191.20357069 327.60041695 -186.66411019 334.92855915 -178 341 C-176.35373452 341.71556426 -174.69021275 342.39551419 -173 343 C-173.04640625 342.3915625 -173.0928125 341.783125 -173.140625 341.15625 C-173.64479589 328.91209976 -170.79200583 315.70866014 -163 306 C-156.83243187 299.39278852 -150.02958379 295.41487119 -140.85717773 294.87353516 C-122.92281019 294.31168826 -104.9249987 295.30199913 -91 308 C-80.60441466 318.68190443 -76.25360594 333.09205585 -75.625 347.6875 C-75.95274739 362.55180822 -81.08563784 376.0157347 -91.3125 386.875 C-109.10396282 403.52444325 -133.60437714 406.91464912 -156.97412109 406.17919922 C-185.85593876 404.46875431 -211.8361449 389.55388562 -231.21875 368.6015625 C-247.35738621 349.32485814 -255.65774713 326.33574479 -255.375 301.1875 C-255.36484863 299.87233398 -255.35469727 298.55716797 -255.34423828 297.20214844 C-254.88627189 268.43901891 -245.28670184 243.1082751 -227 221 C-226.31292969 220.12214844 -225.62585938 219.24429688 -224.91796875 218.33984375 C-210.4683431 200.71188903 -187.69373153 190.83175374 -166 186 C-164.78437378 185.71962891 -164.78437378 185.71962891 -163.54418945 185.43359375 C-155.67268872 183.79251569 -147.95692664 183.69303757 -139.9375 183.75 C-139.25402496 183.75310181 -138.57054993 183.75620361 -137.86636353 183.75939941 C-96.28432476 183.98043512 -58.97459719 196.42786341 -26 222 C-28.81435334 200.19926295 -36.94937303 173.79700533 -53 158 C-53 157.34 -53 156.68 -53 156 C-53.5775 155.74605469 -54.155 155.49210938 -54.75 155.23046875 C-57.24670157 153.86508508 -58.95325687 152.28559139 -61 150.3125 C-74.96288488 137.75954812 -91.96255289 133.71555201 -110 131 C-102.72063297 118.19533028 -91.16432569 112.2326555 -77.3828125 108.2421875 C-60.419577 104.4901946 -42.73179625 107.56698204 -26 111 C-26.54269531 109.96101563 -27.08539063 108.92203125 -27.64453125 107.8515625 C-37.91884314 87.92729155 -40.90901053 69.69790562 -34 48 C-32.57460773 44.18093175 -30.90539582 40.60146647 -29 37 C-28.53207031 36.08347656 -28.06414062 35.16695312 -27.58203125 34.22265625 C-20.60090286 21.38082749 -10.6749776 9.93021172 0 0 Z " fill="#000000" transform="translate(255,24)"/>
</svg>
