<?xml version="1.0" encoding="UTF-8"?>
<svg version="1.1" xmlns="http://www.w3.org/2000/svg" width="512" height="512">
<path d="M0 0 C5.02617709 1.58772648 8.66807604 4.60236606 12.75 7.8125 C14.26942366 8.99102415 15.78895811 10.16940546 17.30859375 11.34765625 C18.47237549 12.25475342 18.47237549 12.25475342 19.65966797 13.18017578 C23.36089608 16.05822234 27.08653176 18.90410209 30.8125 21.75 C31.52857422 22.29785156 32.24464844 22.84570312 32.98242188 23.41015625 C37.82509967 27.11259135 42.69495568 30.77689368 47.578125 34.42578125 C51.30523947 37.2211171 55.00818001 40.04806522 58.71191406 42.87426758 C60.56099051 44.28406693 62.41188591 45.69148396 64.26464844 47.09643555 C68.16209988 50.05400862 72.04783189 53.01429793 75.84375 56.1015625 C76.38966797 56.53726563 76.93558594 56.97296875 77.49804688 57.421875 C78.88372934 58.53186252 80.25507261 59.65968783 81.625 60.7890625 C83.9241928 62.2667895 83.9241928 62.2667895 86.38671875 61.546875 C89.7998427 59.52655051 92.76851131 57.15878265 95.8125 54.625 C101.18794826 50.23648431 106.62319575 45.95930477 112.1875 41.8125 C113.19852783 41.05851929 113.19852783 41.05851929 114.22998047 40.28930664 C115.54531958 39.30993173 116.86121932 38.33130922 118.17773438 37.35351562 C124.79905287 32.43543018 131.38734289 27.47612623 137.92822266 22.45166016 C147.85191285 14.83010262 157.90222483 7.38898302 168 0 C172.20577606 1.87831315 174.40490323 4.70119516 177.125 8.3125 C177.60799561 8.9405957 178.09099121 9.56869141 178.58862305 10.21582031 C180.065712 12.13890947 181.53297515 14.06922867 183 16 C183.8153804 17.06198634 184.6317249 18.12323344 185.44921875 19.18359375 C187.06242765 21.27676563 188.67298884 23.37179243 190.28125 25.46875 C193.43852575 29.57792083 196.62694147 33.66274502 199.8125 37.75 C206.09256301 45.81167751 212.30765717 53.92147058 218.50683594 62.04541016 C220.79044954 65.03471861 223.08160643 68.0181912 225.375 71 C226.56416016 72.546875 226.56416016 72.546875 227.77734375 74.125 C229.81598342 76.76197504 231.87482646 79.38182565 233.9375 82 C236.19323016 84.88882424 238.23292689 87.77769021 240 91 C235.35361704 95.16528609 230.61243957 99.1330361 225.6640625 102.93359375 C222.3511098 105.50331805 219.08210889 108.1254896 215.8125 110.75 C209.15292319 116.09000635 202.45364859 121.37714185 195.73388672 126.64111328 C192.82033173 128.92453303 189.91035733 131.21250708 187 133.5 C185.85157947 134.40236535 184.70314191 135.30470903 183.5546875 136.20703125 C182.97944336 136.65900879 182.40419922 137.11098633 181.81152344 137.57666016 C176.54101563 141.71777344 171.27050781 145.85888672 166 150 C162.69188988 148.605562 161.04827778 147.11720771 158.96875 144.2109375 C158.41155273 143.44225342 157.85435547 142.67356934 157.28027344 141.8815918 C156.6927832 141.0544165 156.10529297 140.22724121 155.5 139.375 C154.2454954 137.63881421 152.99027533 135.90314518 151.734375 134.16796875 C151.10724609 133.2970459 150.48011719 132.42612305 149.83398438 131.52880859 C147.18686485 127.87880006 144.47076606 124.28273421 141.75 120.6875 C136.36950993 113.55000534 131.1561458 106.30073742 126 99 C127.58349949 94.64278899 130.97935787 92.17703256 134.4375 89.3125 C135.38085205 88.51803467 135.38085205 88.51803467 136.34326172 87.70751953 C140.94506474 83.84293818 145.58281905 80.02084657 150.26171875 76.25 C152.27932222 74.5921689 154.24981388 72.91373414 156.20703125 71.1875 C156.74569824 70.71908691 157.28436523 70.25067383 157.83935547 69.76806641 C159.35729148 68.44491595 160.86451135 67.10950125 162.37109375 65.7734375 C165 64 165 64 167.0625 63.8984375 C169.91369169 65.51947794 171.53587578 67.68500014 173.5625 70.25 C174.32691406 71.20390625 175.09132813 72.1578125 175.87890625 73.140625 C177.76888893 75.68844696 179.42804861 78.24782951 181 81 C172.97126657 88.36692894 164.76663738 95.51676584 156 102 C157.48635116 106.21654356 159.61249159 109.62478605 162.125 113.3125 C162.84945313 114.38113281 163.57390625 115.44976562 164.3203125 116.55078125 C164.87460937 117.35902344 165.42890625 118.16726562 166 119 C169.83342624 117.32925733 172.9442166 114.8389206 176.1875 112.25 C176.78755859 111.77481934 177.38761719 111.29963867 178.00585938 110.81005859 C184.46359867 105.67322051 190.83020345 100.4243336 197.1875 95.1640625 C197.83332031 94.63071289 198.47914063 94.09736328 199.14453125 93.54785156 C200.35928846 92.53448831 201.56545335 91.51071359 202.76171875 90.47558594 C206.79662245 87 206.79662245 87 209 87 C203.21869009 79.5850935 197.3874176 72.21805318 191.4375 64.9375 C186.63440925 59.05779353 181.96312932 53.09722085 177.3671875 47.0546875 C174.22113696 42.99493251 170.93519278 39.06528836 167.6171875 35.14453125 C166 33 166 33 166 31 C160.66445502 33.66777249 156.36160196 37.08512004 151.82275391 40.94506836 C148.16553506 44.04858899 144.44013136 47.03054018 140.625 49.9375 C134.30264578 54.75953825 128.04624546 59.66082204 121.80126953 64.58251953 C119.94135204 66.04615208 118.07850054 67.50597609 116.21484375 68.96484375 C115.59279053 69.45218994 114.9707373 69.93953613 114.32983398 70.44165039 C113.1514818 71.36467983 111.97264579 72.28709212 110.79321289 73.20874023 C108.04992044 75.35959608 105.36015548 77.54505826 102.71875 79.8203125 C100 82 100 82 98 82 C98.00138269 82.93339187 98.00138269 82.93339187 98.00279331 83.88564014 C98.02513167 99.21135955 98.04154674 114.53707376 98.05181217 129.86280537 C98.0569117 137.27499806 98.06385582 144.68717961 98.07543945 152.09936523 C98.17333106 215.95421337 98.17333106 215.95421337 97 244 C98.28342285 243.97494385 99.5668457 243.9498877 100.88916016 243.92407227 C104.97959476 243.84517671 109.07009492 243.77091794 113.16064453 243.69824219 C118.23737374 243.60801104 123.31373314 243.50629563 128.39013672 243.39941406 C144.41230779 243.07994156 160.41877756 242.98936534 176.44400024 243.11753845 C184.52726595 243.18125677 192.61051451 243.20037726 200.69400597 243.21163654 C206.48572124 243.22301345 212.27517661 243.25977247 218.06622314 243.35110474 C223.60782699 243.43826312 229.14654012 243.46401206 234.68876648 243.44620705 C236.75273895 243.4507666 238.81680303 243.47791378 240.88014221 243.52924156 C251.31413351 244.15683324 251.31413351 244.15683324 260.82069397 240.71401024 C264.34113802 237.26073297 266.64824037 233.29938403 269 229 C269.93136815 227.74244891 270.8885497 226.502749 271.890625 225.30078125 C277.55612253 218.12510971 283.18100437 210.91885386 288.7878418 203.69726562 C291.56777893 200.11895416 294.35300851 196.54530173 297.16015625 192.98828125 C297.65193359 192.36501953 298.14371094 191.74175781 298.65039062 191.09960938 C299.55258117 189.95783295 300.45609642 188.81710119 301.36132812 187.67773438 C304.37082727 183.8695056 307.20237946 179.96454248 310 176 C308.97003906 175.22398437 307.94007813 174.44796875 306.87890625 173.6484375 C298.50195267 167.3063835 290.27304416 160.82862128 282.19238281 154.11303711 C277.07547859 149.86581612 271.89139049 145.71765694 266.63989258 141.63818359 C263.94894087 139.54545084 261.31243151 137.41578239 258.73046875 135.19140625 C256.32355441 132.79136038 256.32355441 132.79136038 254 133 C252.31534369 134.96389807 250.74489211 136.93810832 249.1875 139 C248.19661822 140.28746432 247.20437476 141.57388152 246.2109375 142.859375 C245.68854492 143.53677734 245.16615234 144.21417969 244.62792969 144.91210938 C241.90813007 148.40037068 239.1101134 151.82406747 236.3125 155.25 C235.22132823 156.59112473 234.13018177 157.93227006 233.0390625 159.2734375 C231.16436234 161.57489867 229.28405399 163.87154206 227.3984375 166.1640625 C226.66882813 167.05867187 225.93921875 167.95328125 225.1875 168.875 C224.56230469 169.63554687 223.93710937 170.39609375 223.29296875 171.1796875 C221.80697175 172.89962581 221.80697175 172.89962581 222 175 C223.84037223 176.4088974 225.74971704 177.72840298 227.6875 179 C228.74324219 179.70125 229.79898437 180.4025 230.88671875 181.125 C233.56446603 182.73769598 236.06504244 183.95452347 239 185 C246.11335539 176.75524798 253.15487605 168.4699766 260 160 C266.09425346 163.78831972 271.49400055 168.41493284 277 173 C276.41096527 176.86442484 274.61765921 178.98800111 272.125 181.9375 C271.31289063 182.90558594 270.50078125 183.87367188 269.6640625 184.87109375 C268.77651865 185.91446843 267.88848638 186.95742782 267 188 C266.09075005 189.07388376 265.18190005 190.14810629 264.2734375 191.22265625 C262.88608591 192.86265418 261.49817215 194.5021536 260.1081543 196.13989258 C252.1849071 205.28956578 252.1849071 205.28956578 245 215 C240.38593185 214.4882579 237.94872795 212.70259925 234.375 209.8125 C233.2230215 208.89633708 232.06926558 207.98240614 230.9140625 207.0703125 C230.28918945 206.57563477 229.66431641 206.08095703 229.02050781 205.57128906 C225.32346995 202.69621225 221.53110706 199.95045464 217.75 197.1875 C208.73762997 190.58146465 199.84993134 183.821586 191 177 C192.44583283 172.53106216 194.93030759 169.45379914 198 166 C202.21083509 161.14766511 206.20552467 156.20811239 210.08789062 151.08789062 C213.46819171 146.64959234 216.96697675 142.31739757 220.5 138 C225.23519657 132.21047695 229.83286905 126.34301832 234.3671875 120.39453125 C239.42963857 113.81334486 244.7395754 107.42299492 250 101 C256.35375264 104.99209639 262.17313683 109.47349504 267.99414062 114.19018555 C272.60976066 117.91840583 277.30109443 121.52272155 282.0625 125.0625 C288.2181582 129.64352381 294.28091717 134.3245062 300.30078125 139.08203125 C304.53796858 142.43034672 308.7992432 145.74747647 313.0625 149.0625 C313.82449707 149.65522705 314.58649414 150.2479541 315.37158203 150.85864258 C320.96260076 155.20354274 326.57443743 159.52043703 332.203125 163.81640625 C335.19218603 166.15004468 338.09898568 168.5581699 341 171 C339.40511262 176.2140549 336.10734666 179.94463208 332.75 184.125 C327.70834652 190.49752475 322.7875918 196.93445065 318 203.5 C312.7602542 210.67029481 307.38256373 217.71605787 301.90942383 224.70947266 C297.91101415 229.81959102 293.96743883 234.96032827 290.1171875 240.18359375 C288.57326213 242.23741329 287.00704419 244.23478174 285.3828125 246.22265625 C284.95331299 246.76035645 284.52381348 247.29805664 284.08129883 247.85205078 C282.88491709 249.34700999 281.67149055 250.82828266 280.45703125 252.30859375 C278.68975086 254.88330711 278.68975086 254.88330711 279.52734375 257.55859375 C281.09071985 260.15039763 282.76702902 262.33638312 284.75 264.625 C288.94557956 269.62613084 292.84288107 274.78759764 296.6875 280.0625 C301.35724045 286.45845332 306.10988166 292.77090433 311 299 C317.65744054 307.4878158 324.05447827 316.15298498 330.42529297 324.85693359 C333.91090478 329.60060808 337.45459329 334.3009292 341 339 C339.45376678 343.28955021 336.19956755 345.47965046 332.6875 348.125 C332.0594043 348.60799561 331.43130859 349.09099121 330.78417969 349.58862305 C328.86109053 351.065712 326.93077133 352.53297515 325 354 C323.93801366 354.8153804 322.87676656 355.6317249 321.81640625 356.44921875 C319.72839228 358.05845245 317.63859393 359.66513932 315.546875 361.26953125 C311.35000937 364.4942756 307.17572055 367.7479532 303 371 C295.68722447 376.6938293 288.35198396 382.35690631 281 388 C278.91657754 389.60405092 276.8332462 391.20822017 274.75 392.8125 C266.84802041 398.89416696 258.92345097 404.94635205 251 411 C247.4053807 407.48927666 244.0480163 403.84635643 240.8125 400 C240.33474121 399.43385986 239.85698242 398.86771973 239.36474609 398.28442383 C235.75600389 393.97527328 232.30875552 389.5657873 228.91137695 385.08789062 C225.53241451 380.64874483 222.03281002 376.31736512 218.5 372 C213.7280562 366.16276624 209.07271763 360.25588973 204.5 354.26171875 C200.06658309 348.45630996 195.52310935 342.73557782 191 337 C192.394438 333.69188988 193.88279229 332.04827778 196.7890625 329.96875 C197.55774658 329.41155273 198.32643066 328.85435547 199.1184082 328.28027344 C199.9455835 327.6927832 200.77275879 327.10529297 201.625 326.5 C203.36118579 325.2454954 205.09685482 323.99027533 206.83203125 322.734375 C208.13841553 321.79368164 208.13841553 321.79368164 209.47119141 320.83398438 C213.1212171 318.1868524 216.71676774 315.47012926 220.3125 312.75 C225.45626691 308.88556868 230.61130828 305.03688622 235.8125 301.25 C236.39362549 300.81913086 236.97475098 300.38826172 237.57348633 299.94433594 C241.65396515 297 241.65396515 297 245 297 C246.9453125 299.01953125 246.9453125 299.01953125 249.125 301.8125 C249.92550781 302.823125 250.72601563 303.83375 251.55078125 304.875 C252.35902344 305.90625 253.16726563 306.9375 254 308 C255.43205861 309.77523662 256.86947093 311.54616933 258.3125 313.3125 C259.40691406 314.65248047 259.40691406 314.65248047 260.5234375 316.01953125 C263.96764692 320.16453407 267.48267719 324.2474608 271.01489258 328.31762695 C277.0181627 335.26289694 277.0181627 335.26289694 276.953125 337.90234375 C275.55103543 340.98809006 273.39318077 342.4741045 270.75 344.5625 C269.79609375 345.32691406 268.8421875 346.09132813 267.859375 346.87890625 C265.31155304 348.76888893 262.75217049 350.42804861 260 352 C252.67953527 343.92155799 245.80125698 335.51688937 239 327 C234.78345644 328.48635116 231.37521395 330.61249159 227.6875 333.125 C226.61886719 333.84945313 225.55023438 334.57390625 224.44921875 335.3203125 C223.64097656 335.87460937 222.83273437 336.42890625 222 337 C223.3200823 339.84124191 224.79846624 342.16223933 226.79296875 344.57421875 C227.33719482 345.23703857 227.8814209 345.8998584 228.44213867 346.58276367 C229.01810791 347.27732666 229.59407715 347.97188965 230.1875 348.6875 C231.37564452 350.13488783 232.56315062 351.58279998 233.75 353.03125 C234.3171875 353.7221875 234.884375 354.413125 235.46875 355.125 C238.38434278 358.69511361 241.19707235 362.34131125 244 366 C244.87996954 367.14341298 245.76020002 368.28662517 246.640625 369.4296875 C249.095891 372.61814998 251.54851476 375.80862988 254 379 C256.76655418 377.70891619 259.04962067 376.2935196 261.3984375 374.34765625 C262.03539551 373.82413574 262.67235352 373.30061523 263.32861328 372.76123047 C264.0039209 372.20064941 264.67922852 371.64006836 265.375 371.0625 C266.81696147 369.87799647 268.2596833 368.69441802 269.703125 367.51171875 C270.42564453 366.9192334 271.14816406 366.32674805 271.89257812 365.71630859 C276.62476728 361.86235937 281.44584079 358.12068347 286.25585938 354.36474609 C288.07494278 352.94135916 289.88957326 351.51245831 291.703125 350.08203125 C297.7495116 345.31431981 303.80971557 340.58081048 310 336 C305.95794665 330.53776574 301.79861908 325.17558108 297.5925293 319.83935547 C293.10407338 314.14198088 288.65269067 308.41621836 284.2043457 302.6875 C281.47279891 299.17192241 278.7373438 295.65982767 275.98046875 292.1640625 C275.50673828 291.56335938 275.03300781 290.96265625 274.54492188 290.34375 C272.02773472 287.14791919 272.02773472 287.14791919 269.45663452 283.99559021 C268 282 268 282 266.49966431 279.07093811 C264.04515077 274.82541685 261.79714503 270.93803559 256.94763374 269.31172943 C250.65957107 268.20657895 244.27449775 268.50355037 237.91796875 268.64453125 C235.80500823 268.64732146 233.69203434 268.644651 231.5790863 268.63687134 C225.94236134 268.63003065 220.30853803 268.69445863 214.67243195 268.77216721 C208.86877675 268.8393357 203.06521444 268.83893559 197.26123047 268.84204102 C189.19580296 268.85107993 181.13088912 268.87767867 173.06562805 268.93057537 C156.85101965 269.0347408 140.65160414 268.85297499 124.44082642 268.51644897 C119.62059624 268.41671901 114.80016599 268.33096067 109.97966003 268.24580383 C105.65303376 268.1675733 101.32651734 268.08401201 97 268 C97.01879211 269.65057152 97.01879211 269.65057152 97.03796387 271.33448792 C97.1976255 285.41043142 97.35103129 299.48643933 97.5 313.5625 C97.51781588 315.24537802 97.51781588 315.24537802 97.53599167 316.96225357 C97.8439078 346.204168 98.10022775 375.44377913 98.0625 404.6875 C98.06164398 405.35609669 98.06078796 406.02469337 98.05990601 406.71355057 C98.04917293 414.47573271 98.03027015 422.23786949 98 430 C98.59893066 430.28431885 99.19786133 430.5686377 99.81494141 430.86157227 C102.96229877 432.50136303 105.61809528 434.72584977 108.375 436.9375 C109.6327379 437.93629186 110.89055253 438.93498711 112.1484375 439.93359375 C112.7887793 440.44390137 113.42912109 440.95420898 114.08886719 441.47998047 C117.04838767 443.83383516 120.0244865 446.16642054 123 448.5 C124.16675716 449.41655148 125.33342357 450.3332185 126.5 451.25 C127.36625 451.930625 127.36625 451.930625 128.25 452.625 C130 454 131.75 455.375 133.5 456.75 C134.0782251 457.20431396 134.6564502 457.65862793 135.25219727 458.12670898 C136.41156233 459.03765025 137.57090501 459.94862001 138.73022461 460.85961914 C141.75841685 463.23912615 144.7870689 465.61804469 147.81640625 467.99609375 C148.44353516 468.48851562 149.07066406 468.9809375 149.71679688 469.48828125 C150.90935999 470.42466414 152.10205882 471.36087423 153.29492188 472.296875 C155.79135817 474.25730303 158.27244132 476.22618509 160.71484375 478.25390625 C162.96406601 480.16842179 162.96406601 480.16842179 166 481 C166.27457031 480.41081787 166.54914063 479.82163574 166.83203125 479.21459961 C167.95515919 477.08502319 169.15340791 475.41388394 170.6875 473.56640625 C171.48027344 472.60347656 171.48027344 472.60347656 172.2890625 471.62109375 C172.85367187 470.94175781 173.41828125 470.26242187 174 469.5625 C178.08205156 464.59930074 182.10839707 459.61412951 186 454.5 C190.35948164 448.77773441 194.87061752 443.1925158 199.44726562 437.64257812 C202.81321579 433.54071836 205.95983617 429.3495135 209 425 C208.41460449 424.72921631 207.82920898 424.45843262 207.22607422 424.17944336 C205.01563212 423.00828238 203.29431109 421.73529141 201.3828125 420.12890625 C200.70001221 419.55970459 200.01721191 418.99050293 199.3137207 418.40405273 C198.59144287 417.79634033 197.86916504 417.18862793 197.125 416.5625 C191.03736363 411.49023395 184.90108569 406.50140444 178.64306641 401.64086914 C175.95120952 399.54706509 173.31347717 397.41668324 170.73046875 395.19140625 C168.32355441 392.79136038 168.32355441 392.79136038 166 393 C164.5911026 394.84037223 163.27159702 396.74971704 162 398.6875 C161.29875 399.74324219 160.5975 400.79898437 159.875 401.88671875 C158.26230402 404.56446603 157.04547653 407.06504244 156 410 C157.93646034 411.64706881 159.87420596 413.29259135 161.8125 414.9375 C162.39475342 415.43314453 162.97700684 415.92878906 163.5769043 416.43945312 C166.45508064 418.88111582 169.34656016 421.29430324 172.3125 423.62890625 C173.3025 424.41136719 174.2925 425.19382812 175.3125 426 C176.21613281 426.70125 177.11976563 427.4025 178.05078125 428.125 C178.69402344 428.74375 179.33726562 429.3625 180 430 C180 434.10940759 178.32222047 435.34054786 175.6875 438.4375 C173.03910717 441.57207123 170.42117702 444.68557321 168 448 C163.69697417 447.50230063 161.04861325 444.7535564 157.9375 442 C156.77021664 440.98879161 155.60223754 439.97838584 154.43359375 438.96875 C153.85335449 438.46472656 153.27311523 437.96070313 152.67529297 437.44140625 C150.32026667 435.41516386 147.9133513 433.45619665 145.5 431.5 C143.66570273 430.00117892 141.83243829 428.50109328 140 427 C139.43120117 426.5349707 138.86240234 426.06994141 138.27636719 425.59082031 C136.47011043 424.10908736 134.67185881 422.6181088 132.875 421.125 C132.30587891 420.66029297 131.73675781 420.19558594 131.15039062 419.71679688 C128.519117 417.51709077 127.10641496 416.31924488 126 413 C126.92114258 411.21337891 126.92114258 411.21337891 128.39453125 409.2265625 C128.93263428 408.49123291 129.4707373 407.75590332 130.02514648 406.99829102 C130.61497314 406.21510498 131.2047998 405.43191895 131.8125 404.625 C132.71174194 403.40671509 132.71174194 403.40671509 133.62915039 402.16381836 C137.78215629 396.5583951 142.01634279 391.01678623 146.31640625 385.5234375 C148.48035747 382.72440457 150.54015056 379.86020212 152.58984375 376.9765625 C153.21576416 376.10314209 153.84168457 375.22972168 154.48657227 374.32983398 C155.72838406 372.59226074 156.95969433 370.84712551 158.17944336 369.09399414 C159.03034546 367.90858032 159.03034546 367.90858032 159.8984375 366.69921875 C160.40036621 365.98596436 160.90229492 365.27270996 161.41943359 364.5378418 C163 363 163 363 167 363 C168.74487305 363.97119141 168.74487305 363.97119141 170.51171875 365.3515625 C171.17848633 365.86614014 171.84525391 366.38071777 172.53222656 366.91088867 C173.2434668 367.47654541 173.95470703 368.04220215 174.6875 368.625 C175.43354492 369.20677002 176.17958984 369.78854004 176.94824219 370.38793945 C183.01260478 375.14471359 188.96287717 380.03984572 194.88989258 384.96606445 C200.17078399 389.3491246 205.5615683 393.55302899 211.0234375 397.70703125 C214.80417422 400.61948854 218.47621892 403.65262891 222.15234375 406.6953125 C225.95127317 409.76989186 229.84018332 412.72231162 233.76171875 415.63867188 C236.40461239 417.63386128 238.14011189 419.21016783 240 422 C238.98292969 423.28970703 238.98292969 423.28970703 237.9453125 424.60546875 C231.99200128 432.16329494 226.08671894 439.75526831 220.23388672 447.39111328 C218.1590742 450.09649803 216.07931017 452.79807154 214 455.5 C211.5452556 458.69016812 209.09135579 461.88096522 206.640625 465.07421875 C201.25881444 472.08288381 195.84685472 479.06724942 190.40576172 486.0300293 C187.35135385 489.9460115 184.32813189 493.88088748 181.35546875 497.859375 C180.47822144 499.02774902 180.47822144 499.02774902 179.58325195 500.21972656 C178.46961922 501.70626789 177.36235157 503.19760547 176.26245117 504.69433594 C175.76076416 505.36239258 175.25907715 506.03044922 174.7421875 506.71875 C174.3076123 507.30591797 173.87303711 507.89308594 173.42529297 508.49804688 C171.78225474 510.22945681 170.175704 511.05419329 168 512 C157.63874971 504.44846271 147.37227235 496.7992783 137.27514648 488.89746094 C132.35684063 485.04933951 127.39529324 481.26929789 122.38671875 477.5390625 C118.66805681 474.76143542 114.9799269 471.94392754 111.2902832 469.12792969 C109.44046676 467.71722008 107.58875957 466.30898606 105.73510742 464.90332031 C101.83770507 461.94586936 97.95208021 458.98563058 94.15625 455.8984375 C93.61033203 455.46273438 93.06441406 455.02703125 92.50195312 454.578125 C91.11627066 453.46813748 89.74492739 452.34031217 88.375 451.2109375 C86.0758072 449.7332105 86.0758072 449.7332105 83.61328125 450.453125 C80.2001573 452.47344949 77.23148869 454.84121735 74.1875 457.375 C68.81205174 461.76351569 63.37680425 466.04069523 57.8125 470.1875 C57.13848145 470.69015381 56.46446289 471.19280762 55.77001953 471.71069336 C54.45468042 472.69006827 53.13878068 473.66869078 51.82226562 474.64648438 C45.20094713 479.56456982 38.61265711 484.52387377 32.07177734 489.54833984 C22.14808715 497.16989738 12.09777517 504.61101698 2 512 C-2.20577606 510.12168685 -4.40490323 507.29880484 -7.125 503.6875 C-7.60799561 503.0594043 -8.09099121 502.43130859 -8.58862305 501.78417969 C-10.065712 499.86109053 -11.53297515 497.93077133 -13 496 C-13.8153804 494.93801366 -14.6317249 493.87676656 -15.44921875 492.81640625 C-17.06242765 490.72323437 -18.67298884 488.62820757 -20.28125 486.53125 C-23.43852556 482.42207941 -26.6269137 478.33723305 -29.8125 474.25 C-34.94221091 467.66586436 -40.03235949 461.05320907 -45.08935547 454.41308594 C-47.94139218 450.67353643 -50.8132554 446.95127423 -53.71484375 443.25 C-54.33617188 442.45658203 -54.9575 441.66316406 -55.59765625 440.84570312 C-56.78102568 439.33696991 -57.96701397 437.83028517 -59.15625 436.32617188 C-63.03466428 431.37958912 -66.58273732 426.27512451 -70 421 C-65.34406614 416.84523069 -60.61313734 412.86749981 -55.6640625 409.06640625 C-52.35111093 406.49668282 -49.08206811 403.87455976 -45.8125 401.25 C-40.32527831 396.84882669 -34.81131053 392.48428739 -29.27294922 388.14770508 C-24.97025735 384.77409966 -20.70009087 381.3615753 -16.4375 377.9375 C-9.69906516 372.52703933 -2.87266445 367.23852332 4 362 C7.2574919 363.38160774 8.90773314 364.81973126 10.9609375 367.68359375 C11.5079834 368.43705078 12.0550293 369.19050781 12.61865234 369.96679688 C13.19824707 370.78212891 13.7778418 371.59746094 14.375 372.4375 C15.62475587 374.16554117 16.87476319 375.89340051 18.125 377.62109375 C19.0840625 378.95503174 19.0840625 378.95503174 20.0625 380.31591797 C23.13264329 384.56908774 26.25577893 388.78277239 29.375 393 C34.27696413 399.64723707 39.15823291 406.30873803 44 413 C42.41650051 417.35721101 39.02064213 419.82296744 35.5625 422.6875 C34.93359863 423.21714355 34.30469727 423.74678711 33.65673828 424.29248047 C29.05493526 428.15706182 24.41718095 431.97915343 19.73828125 435.75 C17.72067778 437.4078311 15.75018612 439.08626586 13.79296875 440.8125 C13.25430176 441.28091309 12.71563477 441.74932617 12.16064453 442.23193359 C10.64270852 443.55508405 9.13548865 444.89049875 7.62890625 446.2265625 C5 448 5 448 2.9375 448.1015625 C0.08630831 446.48052206 -1.53587578 444.31499986 -3.5625 441.75 C-4.32691406 440.79609375 -5.09132812 439.8421875 -5.87890625 438.859375 C-7.76888893 436.31155304 -9.42804861 433.75217049 -11 431 C-2.97126657 423.63307106 5.23336262 416.48323416 14 410 C12.51364884 405.78345644 10.38750841 402.37521395 7.875 398.6875 C7.15054688 397.61886719 6.42609375 396.55023438 5.6796875 395.44921875 C4.84824219 394.23685547 4.84824219 394.23685547 4 393 C0.16657376 394.67074267 -2.9442166 397.1610794 -6.1875 399.75 C-6.78755859 400.22518066 -7.38761719 400.70036133 -8.00585938 401.18994141 C-14.46359867 406.32677949 -20.83020345 411.5756664 -27.1875 416.8359375 C-27.83332031 417.36928711 -28.47914063 417.90263672 -29.14453125 418.45214844 C-30.35928846 419.46551169 -31.56545335 420.48928641 -32.76171875 421.52441406 C-36.79662245 425 -36.79662245 425 -39 425 C-32.87235121 432.8284332 -26.71129125 440.62783439 -20.48999023 448.38208008 C-16.61070256 453.22256276 -12.77491648 458.09576386 -8.95776367 462.98535156 C-5.26310356 467.70401254 -1.449449 472.31203586 2.41796875 476.890625 C4 479 4 479 4 481 C9.33554498 478.33222751 13.63839804 474.91487996 18.17724609 471.05493164 C21.83446494 467.95141101 25.55986864 464.96945982 29.375 462.0625 C35.69735422 457.24046175 41.95375454 452.33917796 48.19873047 447.41748047 C50.05864796 445.95384792 51.92149946 444.49402391 53.78515625 443.03515625 C54.40720947 442.54781006 55.0292627 442.06046387 55.67016602 441.55834961 C56.8485182 440.63532017 58.02735421 439.71290788 59.20678711 438.79125977 C61.95007956 436.64040392 64.63984452 434.45494174 67.28125 432.1796875 C70 430 70 430 72 430 C71.99777939 429.41582306 71.99555878 428.83164612 71.99327087 428.22976685 C71.96446659 420.19486129 71.94759386 412.15994988 71.9375 404.125 C71.93621597 403.11061859 71.93621597 403.11061859 71.93490601 402.07574463 C71.90197816 372.38185219 72.18205621 342.69193949 72.5 313 C72.51793673 311.32437862 72.51793673 311.32437862 72.53623581 309.61490631 C72.6852399 295.74320708 72.83992356 281.87157573 73 268 C66.88120592 268.05114611 60.76241687 268.10285679 54.64363098 268.15497398 C52.39177042 268.17409684 50.13990884 268.19309985 47.88804626 268.21198463 C34.39277427 268.32534488 20.89774443 268.45007665 7.40283203 268.60058594 C2.46647683 268.65480882 -2.46988481 268.70841339 -7.40625 268.76171875 C-8.6233176 268.77502857 -9.84038521 268.78833839 -11.09433365 268.80205154 C-24.67075125 268.94740612 -38.23854531 269.03075067 -51.81477737 268.85534859 C-56.1608956 268.80540217 -60.50734563 268.79631711 -64.85369873 268.78152466 C-67.01262051 268.7607197 -69.17145859 268.71698237 -71.32940674 268.64889526 C-81.47362044 267.92840664 -81.47362044 267.92840664 -90.73696899 271.22439575 C-94.29169957 274.67617355 -96.60126334 278.70055862 -99 283 C-99.96692934 284.30411344 -100.959302 285.59055313 -101.99609375 286.83984375 C-103.74026696 289.05285072 -105.48367136 291.26645282 -107.2265625 293.48046875 C-108.15101686 294.65366538 -109.07549571 295.82684271 -110 297 C-116.14256969 304.79876511 -122.26907297 312.61000409 -128.375 320.4375 C-128.95805908 321.18290039 -129.54111816 321.92830078 -130.1418457 322.69628906 C-133.53964228 327.05823919 -136.81836317 331.47778585 -140 336 C-139.30777344 336.53403442 -139.30777344 336.53403442 -138.6015625 337.07885742 C-129.57695165 344.04907626 -120.61068363 351.07645914 -111.78369141 358.2956543 C-106.80195333 362.36509363 -101.76641816 366.36010044 -96.69042969 370.3112793 C-93.98247572 372.42300542 -91.32760385 374.5717965 -88.7265625 376.8125 C-86.32260328 379.20859489 -86.32260328 379.20859489 -84 379 C-82.31534369 377.03610193 -80.74489211 375.06189168 -79.1875 373 C-78.19661822 371.71253568 -77.20437476 370.42611848 -76.2109375 369.140625 C-75.68854492 368.46322266 -75.16615234 367.78582031 -74.62792969 367.08789062 C-71.90813007 363.59962932 -69.1101134 360.17593253 -66.3125 356.75 C-65.22132823 355.40887527 -64.13018177 354.06772994 -63.0390625 352.7265625 C-61.16436234 350.42510133 -59.28405399 348.12845794 -57.3984375 345.8359375 C-56.66882813 344.94132812 -55.93921875 344.04671875 -55.1875 343.125 C-54.24970703 341.98417969 -54.24970703 341.98417969 -53.29296875 340.8203125 C-51.80697175 339.10037419 -51.80697175 339.10037419 -52 337 C-53.84037223 335.5911026 -55.74971704 334.27159702 -57.6875 333 C-58.74324219 332.29875 -59.79898438 331.5975 -60.88671875 330.875 C-63.56446603 329.26230402 -66.06504244 328.04547653 -69 327 C-76.11335539 335.24475202 -83.15487605 343.5300234 -90 352 C-96.09425346 348.21168028 -101.49400055 343.58506716 -107 339 C-106.41096527 335.13557516 -104.61765921 333.01199889 -102.125 330.0625 C-100.90683594 328.61037109 -100.90683594 328.61037109 -99.6640625 327.12890625 C-98.77651865 326.08553157 -97.88848638 325.04257218 -97 324 C-96.09075005 322.92611624 -95.18190005 321.85189371 -94.2734375 320.77734375 C-92.88608591 319.13734582 -91.49817215 317.4978464 -90.1081543 315.86010742 C-82.1849071 306.71043422 -82.1849071 306.71043422 -75 297 C-70.38593185 297.5117421 -67.94872795 299.29740075 -64.375 302.1875 C-63.2230215 303.10366292 -62.06926558 304.01759386 -60.9140625 304.9296875 C-59.97675293 305.6717041 -59.97675293 305.6717041 -59.02050781 306.42871094 C-55.32346995 309.30378775 -51.53110706 312.04954536 -47.75 314.8125 C-38.73762997 321.41853535 -29.84993134 328.178414 -21 335 C-22.44583283 339.46893784 -24.93030759 342.54620086 -28 346 C-32.21083509 350.85233489 -36.20552467 355.79188761 -40.08789062 360.91210938 C-43.46819171 365.35040766 -46.96697675 369.68260243 -50.5 374 C-55.23519657 379.78952305 -59.83286905 385.65698168 -64.3671875 391.60546875 C-69.42963857 398.18665514 -74.7395754 404.57700508 -80 411 C-86.35375264 407.00790361 -92.17313683 402.52650496 -97.99414062 397.80981445 C-102.60975639 394.08159762 -107.30101803 390.47717208 -112.0625 386.9375 C-117.75218376 382.70498072 -123.36756841 378.39414212 -128.9309082 373.99707031 C-132.68270894 371.03223784 -136.45595304 368.09832702 -140.25 365.1875 C-145.65892826 361.03766321 -151.05239737 356.86821253 -156.4375 352.6875 C-157.57396973 351.8071106 -157.57396973 351.8071106 -158.73339844 350.90893555 C-162.88887379 347.67981949 -166.97961971 344.39597892 -171 341 C-169.70904461 337.42263486 -168.19378964 334.65805721 -165.8671875 331.65625 C-165.23417725 330.83310303 -164.60116699 330.00995605 -163.94897461 329.16186523 C-162.92235718 327.84424194 -162.92235718 327.84424194 -161.875 326.5 C-160.41523966 324.60556501 -158.9556078 322.711031 -157.49609375 320.81640625 C-156.74827637 319.84977051 -156.00045898 318.88313477 -155.22998047 317.88720703 C-151.77908157 313.41924881 -148.3576164 308.92903915 -144.9375 304.4375 C-144.28040039 303.57576172 -143.62330078 302.71402344 -142.94628906 301.82617188 C-137.67686683 294.90892345 -132.45759869 287.95488437 -127.2487793 280.99194336 C-122.86337195 275.13512032 -118.43033964 269.31812606 -113.953125 263.53125 C-112.98632812 262.27828125 -112.98632812 262.27828125 -112 261 C-111.37609375 260.3296875 -110.7521875 259.659375 -110.109375 258.96875 C-108.70882903 257.00167654 -108.70882903 257.00167654 -109.5703125 254.55078125 C-111.11300446 251.79838275 -112.81736453 249.58053759 -114.875 247.1875 C-118.58161054 242.76196023 -122.11823602 238.25724023 -125.5625 233.625 C-130.33283235 227.21724138 -135.15123773 220.84863994 -140 214.5 C-150.47600523 200.76974634 -160.81821693 186.94984452 -171 173 C-169.4624191 168.82931182 -166.43332019 166.70558148 -163 164.125 C-161.73043279 163.1497864 -160.46090341 162.17452354 -159.19140625 161.19921875 C-158.51352051 160.68278809 -157.83563477 160.16635742 -157.13720703 159.63427734 C-154.1560091 157.35461788 -151.19931592 155.04404984 -148.2409668 152.73486328 C-140.18944611 146.45237305 -132.10157489 140.21772711 -124 134 C-121.83289152 132.33390746 -119.66646261 130.66693223 -117.5 129 C-116.41146444 128.16275248 -115.32292279 127.32551287 -114.234375 126.48828125 C-112.11928247 124.86133583 -110.00480548 123.2336002 -107.890625 121.60546875 C-98.94273742 114.71648565 -89.97334334 107.85578314 -81 101 C-77.4053807 104.51072334 -74.0480163 108.15364357 -70.8125 112 C-70.33474121 112.56614014 -69.85698242 113.13228027 -69.36474609 113.71557617 C-65.75600389 118.02472672 -62.30875552 122.4342127 -58.91137695 126.91210938 C-55.53241451 131.35125517 -52.03281002 135.68263488 -48.5 140 C-43.7280562 145.83723376 -39.07271763 151.74411027 -34.5 157.73828125 C-30.06658309 163.54369004 -25.52310935 169.26442218 -21 175 C-22.52828317 179.40145553 -25.96671833 181.4451712 -29.625 184 C-30.99680185 184.98078118 -32.36787227 185.96258606 -33.73828125 186.9453125 C-34.44549316 187.4496582 -35.15270508 187.95400391 -35.88134766 188.47363281 C-39.23199316 190.88758023 -42.51931958 193.38357649 -45.8125 195.875 C-51.78906685 200.36503978 -57.78382611 204.830144 -63.8125 209.25 C-64.58376221 209.82347168 -65.35502441 210.39694336 -66.1496582 210.98779297 C-67.22993286 211.77500732 -67.22993286 211.77500732 -68.33203125 212.578125 C-68.96858643 213.04637695 -69.6051416 213.51462891 -70.26098633 213.99707031 C-72 215 -72 215 -75 215 C-76.875 213.05078125 -76.875 213.05078125 -79 210.3125 C-79.7940625 209.30832031 -80.588125 208.30414063 -81.40625 207.26953125 C-81.82777344 206.73408691 -82.24929687 206.19864258 -82.68359375 205.64697266 C-84.89518461 202.88002311 -87.20015438 200.19362171 -89.5 197.5 C-94.40627869 191.72618954 -99.26165173 185.91306377 -104 180 C-104.598125 179.32066406 -105.19625 178.64132813 -105.8125 177.94140625 C-107 176 -107 176 -107.015625 174.03515625 C-105.52228745 171.04273755 -103.36128581 169.50069507 -100.75 167.4375 C-99.79609375 166.67308594 -98.8421875 165.90867188 -97.859375 165.12109375 C-95.31155304 163.23111107 -92.75217049 161.57195139 -90 160 C-82.82629109 168.20164891 -75.69725108 176.40081055 -69 185 C-64.78345644 183.51364884 -61.37521395 181.38750841 -57.6875 178.875 C-56.08455078 177.78832031 -56.08455078 177.78832031 -54.44921875 176.6796875 C-53.64097656 176.12539062 -52.83273438 175.57109375 -52 175 C-53.3200823 172.15875809 -54.79846624 169.83776067 -56.79296875 167.42578125 C-57.33719482 166.76296143 -57.8814209 166.1001416 -58.44213867 165.41723633 C-59.01810791 164.72267334 -59.59407715 164.02811035 -60.1875 163.3125 C-61.37564452 161.86511217 -62.56315062 160.41720002 -63.75 158.96875 C-64.3171875 158.2778125 -64.884375 157.586875 -65.46875 156.875 C-68.38434278 153.30488639 -71.19707235 149.65868875 -74 146 C-74.87996954 144.85658702 -75.76020002 143.71337483 -76.640625 142.5703125 C-79.095891 139.38185002 -81.54851476 136.19137012 -84 133 C-86.76655418 134.29108381 -89.04962067 135.7064804 -91.3984375 137.65234375 C-92.03539551 138.17586426 -92.67235352 138.69938477 -93.32861328 139.23876953 C-94.0039209 139.79935059 -94.67922852 140.35993164 -95.375 140.9375 C-96.81696147 142.12200353 -98.2596833 143.30558198 -99.703125 144.48828125 C-100.42564453 145.0807666 -101.14816406 145.67325195 -101.89257812 146.28369141 C-106.62476728 150.13764063 -111.44584079 153.87931653 -116.25585938 157.63525391 C-118.07494278 159.05864084 -119.88957326 160.48754169 -121.703125 161.91796875 C-127.7495116 166.68568019 -133.80971557 171.41918952 -140 176 C-135.83516473 181.59275183 -131.60023291 187.12602612 -127.3125 192.625 C-126.70237061 193.40842773 -126.09224121 194.19185547 -125.46362305 194.99902344 C-119.06764509 203.2063183 -112.64275361 211.39084925 -106.19140625 219.5546875 C-105.71985107 220.15249023 -105.2482959 220.75029297 -104.76245117 221.36621094 C-102.16495713 224.66780787 -102.16495713 224.66780787 -99.51538086 227.92749023 C-98 230 -98 230 -96.39282227 233.05883789 C-92.88829419 239.08653526 -92.88829419 239.08653526 -87.08947754 242.65771484 C-80.85631235 243.77759461 -74.48709856 243.36012858 -68.1875 243.1875 C-65.94779204 243.17113609 -63.70802651 243.16159477 -61.46826172 243.15795898 C-57.55928951 243.14827367 -53.65075849 243.1331394 -49.74200439 243.0917511 C-35.6269001 242.94793168 -21.51694613 243.0892241 -7.40234375 243.2421875 C-5.58025548 243.26169055 -5.58025548 243.26169055 -3.72135735 243.2815876 C1.23218695 243.33471052 6.1857268 243.38820362 11.13925648 243.44267368 C24.51713313 243.58882459 37.89524195 243.70396613 51.2734375 243.81640625 C53.48686237 243.83521389 55.70028706 243.85404257 57.91371155 243.87289429 C62.94247125 243.91564048 67.97123431 243.95796528 73 244 C72.97021844 243.19591202 72.94043688 242.39182404 72.90975285 241.56336975 C72.1965834 221.86946299 71.85664354 202.21325895 71.89860606 182.50461197 C71.9050394 178.94668039 71.90545862 175.38874704 71.90663147 171.83081055 C71.90968789 165.1524166 71.91782087 158.47403986 71.92798096 151.79565334 C71.93932352 144.16748929 71.9446973 136.53932423 71.94967639 128.91115379 C71.96001128 113.27409271 71.97749509 97.63704861 72 82 C71.101604 81.57352173 71.101604 81.57352173 70.18505859 81.13842773 C67.03770123 79.49863697 64.38190472 77.27415023 61.625 75.0625 C60.3672621 74.06370814 59.10944747 73.06501289 57.8515625 72.06640625 C56.8910498 71.30094482 56.8910498 71.30094482 55.91113281 70.52001953 C52.95161233 68.16616484 49.9755135 65.83357946 47 63.5 C45.83324284 62.58344852 44.66657643 61.6667815 43.5 60.75 C42.9225 60.29625 42.345 59.8425 41.75 59.375 C40 58 38.25 56.625 36.5 55.25 C35.9217749 54.79568604 35.3435498 54.34137207 34.74780273 53.87329102 C33.58843767 52.96234975 32.42909499 52.05137999 31.26977539 51.14038086 C28.24158315 48.76087385 25.2129311 46.38195531 22.18359375 44.00390625 C21.24290039 43.26527344 21.24290039 43.26527344 20.28320312 42.51171875 C19.09064001 41.57533586 17.89794118 40.63912577 16.70507812 39.703125 C14.20864183 37.74269697 11.72755868 35.77381491 9.28515625 33.74609375 C7.03593399 31.83157821 7.03593399 31.83157821 4 31 C3.58814453 31.88377319 3.58814453 31.88377319 3.16796875 32.78540039 C2.04484081 34.91497681 0.84659209 36.58611606 -0.6875 38.43359375 C-1.21601563 39.07554688 -1.74453125 39.7175 -2.2890625 40.37890625 C-3.13597656 41.39791016 -3.13597656 41.39791016 -4 42.4375 C-8.08205156 47.40069926 -12.10839707 52.38587049 -16 57.5 C-20.35948164 63.22226559 -24.87061752 68.8074842 -29.44726562 74.35742188 C-32.81321579 78.45928164 -35.95983617 82.6504865 -39 87 C-38.41460449 87.27078369 -37.82920898 87.54156738 -37.22607422 87.82055664 C-35.01563212 88.99171762 -33.29431109 90.26470859 -31.3828125 91.87109375 C-30.35861206 92.72489624 -30.35861206 92.72489624 -29.3137207 93.59594727 C-28.59144287 94.20365967 -27.86916504 94.81137207 -27.125 95.4375 C-21.03736363 100.50976605 -14.90108569 105.49859556 -8.64306641 110.35913086 C-5.95120952 112.45293491 -3.31347717 114.58331676 -0.73046875 116.80859375 C1.67644559 119.20863962 1.67644559 119.20863962 4 119 C5.4088974 117.15962777 6.72840298 115.25028296 8 113.3125 C8.70125 112.25675781 9.4025 111.20101562 10.125 110.11328125 C11.73769598 107.43553397 12.95452347 104.93495756 14 102 C12.06353966 100.35293119 10.12579404 98.70740865 8.1875 97.0625 C7.60524658 96.56685547 7.02299316 96.07121094 6.4230957 95.56054688 C3.54491936 93.11888418 0.65343984 90.70569676 -2.3125 88.37109375 C-3.3025 87.58863281 -4.2925 86.80617188 -5.3125 86 C-6.21613281 85.29875 -7.11976563 84.5975 -8.05078125 83.875 C-8.69402344 83.25625 -9.33726562 82.6375 -10 82 C-10 77.52567978 -7.45595435 75.28326311 -4.75 71.875 C-4.25886719 71.22917969 -3.76773438 70.58335938 -3.26171875 69.91796875 C-2.53662109 68.99564453 -2.53662109 68.99564453 -1.796875 68.0546875 C-1.35698242 67.49249512 -0.91708984 66.93030273 -0.46386719 66.35107422 C1.35664989 64.67083048 2.53532039 64.20884587 5 64 C7.37619727 65.71328364 9.42272895 67.40074576 11.5625 69.375 C12.82198509 70.49714023 14.08241107 71.61822524 15.34375 72.73828125 C15.96507812 73.29596191 16.58640625 73.85364258 17.2265625 74.42822266 C19.61494247 76.54501646 22.0795821 78.55790893 24.5625 80.5625 C28.76190289 83.98585824 32.95835691 87.41183838 37.125 90.875 C37.69420166 91.3397876 38.26340332 91.8045752 38.84985352 92.28344727 C41.4810818 94.48304943 42.89362058 95.68086174 44 99 C43.17407227 100.65966797 43.17407227 100.65966797 41.81640625 102.4921875 C41.30883789 103.18683105 40.80126953 103.88147461 40.27832031 104.59716797 C39.71209961 105.34885254 39.14587891 106.10053711 38.5625 106.875 C37.98209961 107.66148926 37.40169922 108.44797852 36.80371094 109.25830078 C34.88315329 111.8496825 32.94465132 114.42665524 31 117 C30.32501465 117.89332031 29.6500293 118.78664063 28.95458984 119.70703125 C25.55069889 124.20161406 22.13241429 128.68492744 18.703125 133.16015625 C14.42612776 138.74183384 10.202294 144.36192222 6 150 C1.74056201 148.57505239 -1.05651685 146.49331063 -4.4375 143.5625 C-5.50111495 142.65320307 -6.56628072 141.74571771 -7.6328125 140.83984375 C-8.18485352 140.37046387 -8.73689453 139.90108398 -9.30566406 139.41748047 C-12.09016486 137.0879687 -14.9491099 134.8562916 -17.8125 132.625 C-22.73474733 128.78219885 -27.62970189 124.90845832 -32.5 121 C-37.33584983 117.12220767 -42.18661069 113.2648404 -47.0625 109.4375 C-47.62743164 108.99341797 -48.19236328 108.54933594 -48.77441406 108.09179688 C-51.81269938 105.70618025 -54.86022976 103.33329412 -57.91796875 100.97265625 C-58.55919678 100.47515869 -59.2004248 99.97766113 -59.86108398 99.46508789 C-61.09077383 98.51131139 -62.32322802 97.56108482 -63.55883789 96.61499023 C-66.23125569 94.53756798 -68.10367869 92.84448197 -70 90 C-68.57805489 88.17178486 -67.15610432 86.34357395 -65.73413086 84.51538086 C-64.47704234 82.89907702 -63.22004612 81.28270138 -61.96313477 79.66625977 C-58.78091167 75.57404014 -55.59752933 71.48274128 -52.41015625 67.39453125 C-46.19860431 59.4241715 -40.02161195 51.42958842 -33.89428711 43.39428711 C-29.38603521 37.48859312 -24.82692809 31.62353584 -20.25683594 25.765625 C-15.48807709 19.64620814 -10.77242248 13.48732731 -6.0859375 7.3046875 C-5.57804688 6.63695312 -5.07015625 5.96921875 -4.546875 5.28125 C-4.10182617 4.69408203 -3.65677734 4.10691406 -3.19824219 3.50195312 C-2 2 -2 2 0 0 Z " fill="#000000" transform="translate(171,0)"/>
</svg>
