<?xml version="1.0" encoding="UTF-8"?>
<svg version="1.1" xmlns="http://www.w3.org/2000/svg" width="512" height="512">
<path d="M0 0 C0.70125 0.70125 1.4025 1.4025 2.125 2.125 C2.59035156 2.58132812 3.05570312 3.03765625 3.53515625 3.5078125 C4.94398031 4.94293461 6.25634525 6.47084322 7.5625 8 C13.94818829 14.43557648 24.21285503 17.08982543 33.0625 17.25 C43.9650357 17.06534099 53.75860801 13.1196881 63.6875 8.9375 C78.92918096 2.53211194 91.86015289 -0.5982454 108 5 C119.38383427 9.88530856 126.63586526 16.73448595 131.80859375 27.99609375 C136.32251072 39.3770844 135.79764892 51.09374564 131.23046875 62.4375 C127.30228439 70.61809982 121.64678474 78.62140913 114.125 83.8125 C112.578125 84.8953125 112.578125 84.8953125 111 86 C111 86.66 111 87.32 111 88 C112.46130152 89.19479366 113.97136323 90.3301592 115.5 91.4375 C126.37070864 99.93697758 132.8304991 111.30498012 134.74609375 124.88671875 C135.7012535 136.59844672 133.12699283 146.93628497 125.6796875 156.125 C117.27728244 165.50442891 106.13609405 171.11722976 93.48828125 172.21875 C81.62547268 172.62489466 71.02920066 168.4584468 60.25 163.9375 C45.57510661 157.81854626 33.60325299 154.41869522 17.98046875 159.73828125 C11.2262561 162.5975351 6.64379555 166.99609388 2.12890625 172.6796875 C1.75636719 173.11539063 1.38382812 173.55109375 1 174 C0.67 174 0.34 174 0 174 C0.44811776 163.67088568 2.71780729 154.19593626 10.09765625 146.59765625 C15.05495871 142.43433652 19.4913869 141.75718618 25.875 142.125 C31.47768691 142.75940094 36.69002 144.13210881 42 146 C41.35933594 145.29875 40.71867188 144.5975 40.05859375 143.875 C39.19363281 142.92625 38.32867187 141.9775 37.4375 141 C36.59058594 140.071875 35.74367187 139.14375 34.87109375 138.1875 C32.7592329 135.86021149 30.69358896 133.49706339 28.63671875 131.12109375 C10.71922043 110.07426128 10.71922043 110.07426128 -13.5546875 98.6015625 C-22.53445315 98.6922672 -29.55802018 100.55802018 -36 107 C-38.68236147 110.53584012 -38.54881083 114.73238146 -38 119 C-36.43343215 123.32225496 -36.43343215 123.32225496 -33 126 C-29.28583903 126.51998254 -25.58264769 126.86578101 -22.21484375 125.0234375 C-20.42692908 123.57664263 -20.42692908 123.57664263 -18 121 C-17.21625 120.236875 -16.4325 119.47375 -15.625 118.6875 C-15.08875 118.130625 -14.5525 117.57375 -14 117 C-10.30980108 121.6528595 -9.60355163 125.0532745 -10 131 C-12.11715713 137.46290072 -15.12503863 141.3229392 -21 144.75 C-27.48876155 147.45365065 -34.31145176 148.07009857 -41.0625 145.9375 C-48.00926737 143.01685517 -52.19630688 137.48628938 -55.2734375 130.796875 C-57.91351445 124.26765244 -58.21249217 116.35111475 -56.31640625 109.546875 C-53.2372296 103.05632837 -48.0409345 97.99747817 -43 93 C-44.14597656 93.27714844 -45.29195313 93.55429687 -46.47265625 93.83984375 C-48.0025644 94.20589539 -49.53251457 94.57177147 -51.0625 94.9375 C-52.19075195 95.21110352 -52.19075195 95.21110352 -53.34179688 95.49023438 C-75.6508936 100.80192407 -99.37481336 98.31259332 -120 88 C-120 87.34 -120 86.68 -120 86 C-95.84463829 75.68806196 -74.64257317 73.62612569 -48.99755859 79.54248047 C-46.67371636 80.0747318 -44.34087349 80.5489189 -42 81 C-42.59167969 80.5153125 -43.18335937 80.030625 -43.79296875 79.53125 C-49.78934872 74.44459815 -54.4812419 69.5562743 -57 62 C-57.87490965 50.84131622 -56.72920498 43.26260076 -49.5625 34.625 C-45.29483366 30.03817058 -41.24342543 27.42190846 -34.95703125 26.796875 C-27.92351704 26.64313698 -22.05400479 28.00825774 -16.125 31.875 C-11.5163339 36.4836661 -10.19810858 40.54345364 -9.6875 46.875 C-9.7125218 51.32887999 -11.25945229 53.57431537 -14 57 C-15.0828125 55.88625 -15.0828125 55.88625 -16.1875 54.75 C-21.68480379 49.04342423 -21.68480379 49.04342423 -29 47 C-33.79634155 48.41649026 -33.79634155 48.41649026 -37.1875 51.8359375 C-38.5714418 55.52201326 -38.47771399 59.12290095 -38 63 C-36.63002843 65.87146994 -36.63002843 65.87146994 -35 68 C-35 68.66 -35 69.32 -35 70 C-27.3186174 73.95238926 -19.70546876 76.51301273 -11 75 C-0.71233716 71.47896056 6.67892715 65.37133268 14.23144531 57.77441406 C16.15268906 55.84680507 18.10199305 53.95040922 20.0546875 52.0546875 C27.54415306 44.73341682 34.63877124 37.34027771 41 29 C40.16597656 29.2165625 39.33195313 29.433125 38.47265625 29.65625 C20.99894865 33.97964157 20.99894865 33.97964157 12.84765625 29.3125 C6.03623279 24.47394127 3.06840464 17.94873824 1 10 C0.47116225 6.66698899 0.1462327 3.37066373 0 0 Z M51.3762207 37.3425293 C49.81131201 38.93871173 48.23588299 40.52387067 46.65820312 42.10742188 C41.74998861 47.0537605 36.95748188 52.06444086 32.42016602 57.35717773 C21.73865134 69.71336 9.25750703 79.93467005 -6 86 C-6 86.66 -6 87.32 -6 88 C-5.01902344 88.42667969 -4.03804688 88.85335937 -3.02734375 89.29296875 C17.98521102 98.84938512 34.49422558 116.88703734 49.39160156 134.15795898 C59.57696211 145.82288694 69.7576664 155.69925236 85.86328125 157.28125 C94.53406257 157.56907677 101.14338909 155.36604332 108 150 C114.38409522 143.88722883 118.15059171 137.10905833 118.5 128.1875 C118.04577806 117.35499488 114.63240032 109.80620445 107.21875 101.9609375 C102.80864007 98.06326993 99.36447831 97.55161023 93.59765625 97.6875 C88.0507468 98.35479738 83.81181946 100.77773577 80.125 104.9375 C76.48824101 110.17871149 75.15728342 114.57271385 76 121 C77.34940652 124.31217963 78.4792773 126.4792773 81 129 C84.21666874 129.85777833 86.4319954 130.13209409 89.6875 129.375 C94.32247324 126.61906996 95.5035192 121.94989803 97 117 C100.75836112 121.72826076 102.4343861 125.87722454 102 132 C100.74619587 136.24818342 99.03659638 139.17603877 95.5625 141.9375 C88.44358183 144.88924656 81.35123994 144.71516701 74.1484375 142.109375 C69.5131568 139.7158846 66.95105601 135.85888219 64.625 131.3125 C62.9653016 122.51609849 63.21267767 114.70981561 68 107 C70.21272872 103.89212194 72.5747464 100.94294114 75 98 C76.00695935 96.67191467 77.00917888 95.34016838 78 94 C77.05382812 94.28875 76.10765625 94.5775 75.1328125 94.875 C55.10970265 100.638374 38.3797139 98.50481432 19.64453125 89.171875 C17.02496315 87.79743209 17.02496315 87.79743209 14 88 C14 87.34 14 86.68 14 86 C14.68835938 85.89429688 15.37671875 85.78859375 16.0859375 85.6796875 C19.50463422 84.88229711 22.42860084 83.57528495 25.625 82.125 C41.15724036 75.36851583 56.35115487 73.09871391 72.49609375 79.22265625 C75.08880545 80.29444624 75.08880545 80.29444624 78 79 C77.34644531 78.43345703 77.34644531 78.43345703 76.6796875 77.85546875 C70.47593897 72.12170117 64.55510423 64.06064622 63.76171875 55.3984375 C63.55854229 47.12167024 64.88560959 41.38321613 69.6875 34.625 C75.11006674 30.81454769 81.43160899 29.29624382 88 30 C92.78942545 30.9790989 96.08216766 32.03627604 99.5 35.625 C101.68647491 40.54456854 103.01419718 45.07556736 101.1953125 50.3203125 C98.79841549 55.20158451 98.79841549 55.20158451 97 57 C96.73445313 56.30132812 96.46890625 55.60265625 96.1953125 54.8828125 C95.84210938 53.97273438 95.48890625 53.06265625 95.125 52.125 C94.77695313 51.22007812 94.42890625 50.31515625 94.0703125 49.3828125 C93.11469105 46.87782993 93.11469105 46.87782993 91 45 C86.77011411 43.59003804 84.04265998 44.24232175 80 46 C78.0755194 47.4599508 77.21886679 48.46278151 76.3125 50.6875 C75.32372147 58.0044611 75.92104607 62.81535232 80 69 C83.697011 73.36057708 86.92326301 75.56309415 92.61328125 76.37109375 C99.3749595 76.53744473 103.98000652 75.71174826 109 71 C115.7635271 63.19120053 118.70153771 53.99867106 118.33984375 43.7265625 C117.22200856 34.75818359 112.6839786 27.93324187 106 22 C85.4661157 8.53393819 65.96809829 22.45748575 51.3762207 37.3425293 Z " fill="#000000" transform="translate(120,169)"/>
<path d="M0 0 C2.26035847 6.45816705 -1.07642126 14.37970223 -3.75 20.375 C-6.56568964 25.53351537 -10.66091632 28.90510977 -15.9375 31.375 C-24.42094347 33.10631499 -31.7412576 31.11504378 -40 29 C-17.54159227 58.627003 -17.54159227 58.627003 13.76171875 75.3359375 C22.45264442 75.45197122 29.2894021 74.104786 36.0625 68.4375 C39.36203185 64.28647606 39.5137257 60.12756405 39 55 C38.12441886 51.58079931 38.12441886 51.58079931 36 49 C31.91558188 47.03633744 29.82803232 46.78209676 25.4375 47.9375 C21.32231076 49.98578424 18.70954422 53.37734931 16 57 C11.0842598 52.24283207 11.0842598 52.24283207 10.75 47.3125 C10.84210228 41.66355988 12.6765494 37.57383315 16.3125 33.25 C22.16167036 28.35302016 28.07628657 26.59517923 35.56640625 26.73046875 C41.79398438 27.42020052 46.53152911 30.11583237 50.8125 34.625 C56.7381058 42.10779988 58.71757498 49.44587053 58.3828125 58.953125 C57.20421634 68.33378834 50.43442595 74.62104324 44 81 C45.71896484 80.58427734 45.71896484 80.58427734 47.47265625 80.16015625 C49.0025644 79.79410461 50.53251457 79.42822853 52.0625 79.0625 C53.19075195 78.78889648 53.19075195 78.78889648 54.34179688 78.50976562 C76.73543518 73.17794698 100.29613639 75.64806819 121 86 C121 86.66 121 87.32 121 88 C97.16041193 98.5484903 75.45083344 100.37889511 50.04785156 94.45751953 C47.38164535 93.86185067 44.70002476 93.4123832 42 93 C42.58007812 93.40089844 43.16015625 93.80179687 43.7578125 94.21484375 C50.30041847 98.9760471 55.3971826 104.1915478 58 112 C59.05341783 122.01413662 57.82030436 129.67647152 52 138 C46.8257879 143.86205378 42.01170473 146.74118034 34.125 147.25 C26.61394731 147.00678496 20.59673378 145.1662158 15 140 C11.21645486 134.82915497 10.05820951 129.38460569 11 123 C12.11434266 120.69345668 13.38443403 119.01945747 15 117 C15.721875 117.7425 16.44375 118.485 17.1875 119.25 C18.5796875 120.61125 18.5796875 120.61125 20 122 C20.7425 122.763125 21.485 123.52625 22.25 124.3125 C26.13463714 126.69625461 29.55132348 126.83984361 34 126 C37.03215675 123.80168636 37.81654398 122.55036806 39 119 C39.39614654 113.75105833 38.86557317 110.44657906 36 106 C30.98877626 100.84138733 24.22530787 98.92403656 17.1875 98.4375 C6.51516634 98.81806384 -2.30064016 106.28838698 -10 113 C-10.78375 113.66257812 -11.5675 114.32515625 -12.375 115.0078125 C-16.58925616 118.63833724 -20.38568755 122.4016824 -23.96875 126.65234375 C-25.62113386 128.56211818 -27.30403548 130.41291994 -29.03125 132.25390625 C-29.57096436 132.82987549 -30.11067871 133.40584473 -30.66674805 133.99926758 C-31.74552473 135.14685809 -32.82761037 136.29134902 -33.91333008 137.43237305 C-36.43295658 140.12200824 -38.6192235 142.55224292 -40 146 C-39.48953125 145.79503906 -38.9790625 145.59007812 -38.453125 145.37890625 C-30.99311982 142.6144717 -22.51993217 140.58473452 -14.6875 142.9375 C-8.94643576 145.61109333 -5.26706437 150.1740625 -2.7109375 155.875 C-0.5766806 161.89391156 0.57593724 167.63905855 1 174 C0.319375 173.29875 -0.36125 172.5975 -1.0625 171.875 C-10.29458279 162.72071566 -19.30072567 157.15514354 -32.625 156.625 C-44.89537447 156.91497154 -55.99896738 162.03967061 -67.09716797 166.82592773 C-81.4176448 172.9206006 -93.90660187 173.70093982 -108.5625 168.00390625 C-121.02260496 162.37739011 -128.20010937 153.52081562 -133 141 C-135.64582093 128.296965 -133.23784395 115.51687481 -126.59375 104.39453125 C-122.44589704 98.16258551 -117.83473412 93.8626713 -111.7578125 89.48046875 C-110.88769531 88.74763672 -110.88769531 88.74763672 -110 88 C-110 87.34 -110 86.68 -110 86 C-111.29205831 84.94721175 -112.63634717 83.95824253 -114 83 C-124.98999144 74.6365474 -131.72694064 63.27379638 -133.71484375 49.609375 C-133.85599609 48.31773437 -133.85599609 48.31773437 -134 47 C-134.08378906 46.26265625 -134.16757812 45.5253125 -134.25390625 44.765625 C-134.80825875 34.96610344 -131.27133808 25.35519193 -124.90625 17.9921875 C-124.2771875 17.33476562 -123.648125 16.67734375 -123 16 C-122.3915625 15.36320313 -121.783125 14.72640625 -121.15625 14.0703125 C-112.57083417 5.8719441 -101.40102087 2.08968097 -89.6875 1.6875 C-78.89165294 1.99188675 -69.09408464 5.93375388 -59.25 10.0625 C-44.57510661 16.18145374 -32.60325299 19.58130478 -16.98046875 14.26171875 C-9.70108885 11.18014639 -4.80344341 6.14986316 0 0 Z M-111 28 C-116.53540079 35.97279949 -118.37294996 43.38935025 -117 53 C-115.01337696 61.43211114 -111.1051882 69.53308468 -103.75 74.5 C-98.66517422 77.01435094 -93.11443637 76.96580082 -87.7578125 75.3046875 C-81.89790994 72.67325956 -78.50660891 69.01321781 -75.625 63.25 C-74.51050445 57.45462316 -74.81763255 52.14577796 -77.6875 46.9375 C-80.56412097 44.52735811 -82.2622144 44.07628134 -86 44 C-89.34737735 44.77845985 -90.61824172 45.49098896 -92.6875 48.25 C-94.05493685 51.11510578 -95.08183359 53.96298804 -96 57 C-99.79586187 52.22456087 -101.25730018 48.15376271 -101 42 C-99.76128282 37.55519129 -98.68554827 35.56632248 -95.125 32.625 C-92.18785889 31.09768662 -90.26013124 30.31806158 -87 30 C-85.948125 29.896875 -84.89625 29.79375 -83.8125 29.6875 C-77.57837527 30.19849383 -71.31712569 32.04833467 -67 36.8125 C-62.88461639 43.37139263 -61.87767951 50.39427452 -63 58 C-65.9028638 66.35640572 -70.81612725 72.78473704 -77 79 C-73.2096599 80.2634467 -72.12189129 79.46002773 -68.4375 78.0625 C-50.75252437 72.44260774 -34.2889235 77.04303195 -18.13671875 85.08203125 C-15.92819491 86.19736502 -15.92819491 86.19736502 -13 86 C-13 86.66 -13 87.32 -13 88 C-13.65355469 88.09410156 -14.30710937 88.18820312 -14.98046875 88.28515625 C-19.71553076 89.40613471 -24.04362129 91.45411647 -28.49804688 93.38476562 C-36.16485891 96.63714418 -43.1499412 98.38978214 -51.5 98.375 C-52.65218018 98.37693359 -52.65218018 98.37693359 -53.82763672 98.37890625 C-61.89172778 98.23351801 -69.3245162 96.34238198 -77 94 C-76.13375 94.94875 -75.2675 95.8975 -74.375 96.875 C-67.16222902 105.28420218 -62.46749034 113.74654045 -62.6875 124.92578125 C-63.29307357 130.88311124 -65.37367432 135.84378409 -69.8125 139.9375 C-75.31875472 143.5003707 -80.49493411 144.56078154 -87 144 C-91.72926094 142.84536439 -95.78059226 141.82304669 -99 138 C-101.4125224 132.93370296 -101.3635381 128.34926484 -100 123 C-98.85258998 120.72840688 -97.59547549 119.0072111 -96 117 C-95.73445313 117.69867188 -95.46890625 118.39734375 -95.1953125 119.1171875 C-94.84210938 120.02726562 -94.48890625 120.93734375 -94.125 121.875 C-93.77695312 122.77992188 -93.42890625 123.68484375 -93.0703125 124.6171875 C-92.11469105 127.12217007 -92.11469105 127.12217007 -90 129 C-85.78024467 130.40658511 -83.01202652 129.83157733 -79 128 C-76.05916147 124.85634502 -75.08764728 122.11750281 -74.75 117.8125 C-75.16476817 111.48728534 -76.56817398 106.9291514 -81.375 102.625 C-86.51844522 98.68989014 -90.88794067 97.39655198 -97.375 97.5703125 C-103.20247269 98.52421428 -107.28740978 101.766665 -110.82421875 106.37890625 C-116.34793531 115.13927997 -118.31084767 123.67855075 -117 134 C-114.02464468 143.34465206 -108.46233539 150.14870921 -100.06640625 155.15234375 C-92.12209056 158.73636975 -82.46274095 157.82359119 -74.421875 155.01953125 C-62.90580991 150.17163933 -54.87308482 141.69728192 -46.875 132.3671875 C-42.39804736 127.21933529 -37.5892225 122.40317207 -32.76733398 117.58203125 C-31.19548217 116.00799327 -29.63182543 114.42611212 -28.06835938 112.84375 C-19.66367672 104.38837085 -11.30741589 96.56168781 -0.375 91.5 C0.34300781 91.15453125 1.06101562 90.8090625 1.80078125 90.453125 C3.52836588 89.62388438 5.2633752 88.81013762 7 88 C7 87.34 7 86.68 7 86 C5.99582031 85.55011719 4.99164063 85.10023438 3.95703125 84.63671875 C-14.91546653 75.89024735 -30.19685543 60.87469244 -43.41015625 44.953125 C-44.26480469 43.97859375 -45.11945313 43.0040625 -46 42 C-46.66 42 -47.32 42 -48 42 C-48.2165625 41.46117187 -48.433125 40.92234375 -48.65625 40.3671875 C-54.50053102 30.07173897 -65.96240156 21.91011269 -76.9375 18.125 C-90.2988879 14.6066408 -101.92012265 17.4578203 -111 28 Z " fill="#000000" transform="translate(391,169)"/>
</svg>
