<?xml version="1.0" encoding="UTF-8"?>
<svg version="1.1" xmlns="http://www.w3.org/2000/svg" width="512" height="512">
<path d="M0 0 C14.80122169 -0.68401024 26.49879293 1.44654253 39 10 C39.9075 10.5775 40.815 11.155 41.75 11.75 C56.5359291 26.5359291 56.15031967 50.47971235 57 70 C58.66849468 68.04319926 60.33509283 66.08485068 62 64.125 C62.49749756 63.54016846 62.99499512 62.95533691 63.50756836 62.3527832 C67.27541871 57.90460132 70.89985782 53.36172439 74.44140625 48.73046875 C74.95574219 48.15941406 75.47007812 47.58835938 76 47 C76.66 47 77.32 47 78 47 C78.37125 46.13375 78.37125 46.13375 78.75 45.25 C80.18299988 42.67060021 81.78424676 40.93878408 84 39 C84.66 39 85.32 39 86 39 C86 38.34 86 37.68 86 37 C107.04402967 17.01427743 140.88451793 4.3315323 170 5 C169.41442309 32.73505181 160.34739667 62.91240772 142 84 C141.1447616 85.08248746 140.2904431 86.16570305 139.4375 87.25 C137.06478675 89.92690725 134.61058123 92.15884311 131.84375 94.41015625 C129.88159565 96.06028251 129.88159565 96.06028251 127.74609375 98.2734375 C124.47386498 101.52239295 121.0463232 104.5441128 117.5625 107.5625 C116.91990234 108.12646484 116.27730469 108.69042969 115.61523438 109.27148438 C111.89923683 112.49704569 108.16002875 115.37024457 104 118 C105.96066406 118.05607422 105.96066406 118.05607422 107.9609375 118.11328125 C146.64927907 119.43969703 146.64927907 119.43969703 161 131 C161 131.66 161 132.32 161 133 C161.66 133 162.32 133 163 133 C173.5460388 145.74564118 175.34637619 159.14366772 175 175 C171.64048208 173.04127047 168.5006965 170.93529741 165.375 168.625 C145.53692196 154.72664149 119.60119719 152.07446682 96.13793945 156.07666016 C69.27233322 161.40320757 41.53462928 173.83679597 25.42871094 196.85839844 C14.71038248 212.92257092 11.43392644 232.15117607 15.125 251.0625 C19.68773964 269.65459796 27.8606648 290.89132873 44.3125 301.875 C46.18731019 302.95404598 48.08344566 303.99696813 50 305 C50.8559375 305.46019531 51.711875 305.92039062 52.59375 306.39453125 C59.18346807 309.52843453 66.00057944 311.01267236 73.125 312.375 C74.502323 312.64509888 74.502323 312.64509888 75.9074707 312.9206543 C87.83920155 315.0124215 96.67102738 313.13248836 106.59375 306.18359375 C110.91513266 303.13466477 110.91513266 303.13466477 114 299 C114.66 299 115.32 299 116 299 C116.24234375 298.46890625 116.4846875 297.9378125 116.734375 297.390625 C118.02091761 294.96048897 119.5156156 292.74550069 121.07226562 290.48217773 C129.99229644 277.3628538 135.31543935 263.04105207 134 247 C132.17320086 239.07725158 129.32347 233.91834225 122.5 229.3125 C113.73810122 224.71250314 102.96727416 223.14742999 93.296875 225.71875 C87.04718108 228.28484949 84.12173268 231.4002523 81.42578125 237.6484375 C79.85344113 241.95621864 79.50133962 245.81600357 79.5625 250.375 C79.56733398 251.52270874 79.56733398 251.52270874 79.57226562 252.69360352 C79.74879552 260.16188342 81.28677568 267.18851997 83.125 274.40234375 C84 278 84 278 84 281 C71.28722103 280.05831267 61.99206507 274.39442937 53.25 265.3125 C44.12024082 254.42048498 43.07950118 240.61997328 44 227 C45.17554618 219.00030861 48.42515151 212.59550118 53 206 C53.40605469 205.38511719 53.81210937 204.77023438 54.23046875 204.13671875 C63.05844618 192.32081049 79.51320189 186.17276592 93.4375 183.6875 C111.47352437 181.41386784 131.35890934 182.9223472 146.4375 194.0625 C147.63490359 195.02953064 148.82197928 196.00944925 150 197 C150.804375 197.58394531 151.60875 198.16789063 152.4375 198.76953125 C155.43663849 201.38006186 157.47784141 204.28276321 159.5625 207.625 C159.95453613 208.24818115 160.34657227 208.8713623 160.75048828 209.51342773 C172.07613742 227.9134629 175.34934887 253.4146774 170.92382812 274.54199219 C166.43190677 292.62693661 155.57286811 306.70050379 143 320 C141.97326172 321.10601562 141.97326172 321.10601562 140.92578125 322.234375 C129.15690389 334.5035928 114.3075393 345.56533083 99 353 C100.00417969 353.23074219 101.00835937 353.46148437 102.04296875 353.69921875 C126.14267769 359.37810724 146.24888677 369.62110995 160 391 C172.40795702 413.384065 175.37589823 442.0120286 170 467 C169.34 467.99 168.68 468.98 168 470 C167.58492188 469.42636719 167.16984375 468.85273438 166.7421875 468.26171875 C164.9630987 465.80895826 163.17742523 463.36107589 161.39111328 460.91357422 C159.85665295 458.80281605 158.33305731 456.68439429 156.80859375 454.56640625 C149.7445401 444.80608003 142.39418061 435.48913931 134.35546875 426.51416016 C132.57410294 424.52424108 130.81765597 422.51304072 129.0625 420.5 C128.54300781 419.90960938 128.02351563 419.31921875 127.48828125 418.7109375 C126.43234615 417.49702785 125.38932438 416.27183097 124.35546875 415.0390625 C123.82566406 414.40742188 123.29585938 413.77578125 122.75 413.125 C122.06164062 412.29355469 122.06164062 412.29355469 121.359375 411.4453125 C119.86344602 409.74570157 119.86344602 409.74570157 117 408 C117 407.34 117 406.68 117 406 C116.40703125 405.73316406 115.8140625 405.46632813 115.203125 405.19140625 C112.96181375 403.97934963 111.55421814 402.72064083 109.75 400.9375 C98.84553066 391.25104822 84.62702081 385.89835014 71.1875 380.75 C68.17915048 379.58282087 65.17323925 378.40945671 62.16796875 377.234375 C61.45329437 376.95567062 60.73862 376.67696625 60.00228882 376.38981628 C45.26701038 370.60769036 31.58620691 363.66553452 19 354 C18.23816406 353.46890625 17.47632813 352.9378125 16.69140625 352.390625 C16.13324219 351.93171875 15.57507813 351.4728125 15 351 C15 350.34 15 349.68 15 349 C14.43539063 348.76667969 13.87078125 348.53335937 13.2890625 348.29296875 C-8.14275721 336.18728219 -18.81837678 301.86665466 -25 280 C-30.99501362 257.92439459 -36.61685678 234.02109507 -36 211 C-36.92554688 210.97421875 -37.85109375 210.9484375 -38.8046875 210.921875 C-73.59119101 209.59654822 -109.69215178 201.38402887 -141 186 C-141.69222656 185.66129883 -142.38445312 185.32259766 -143.09765625 184.97363281 C-175.47066934 168.80248348 -191.86872591 140.04527907 -204.5 107.5 C-220.31848411 66.74839231 -247.17977693 41.47533601 -282.26464844 16.24902344 C-284.99756176 14.28200254 -287.71644034 12.29588108 -290.4375 10.3125 C-291.95810266 9.20801568 -293.47883719 8.10371272 -295 7 C-294.67 6.34 -294.34 5.68 -294 5 C-267.06039158 -1.03626081 -236.41887027 2.42299207 -212.80859375 17.03125 C-192.32317375 31.39098808 -184.01469623 51.66925715 -178 75 C-177.46632813 74.06800781 -176.93265625 73.13601562 -176.3828125 72.17578125 C-169.14565473 59.71845944 -160.87949253 48.74490184 -151.03125 38.2421875 C-148.87625039 35.97420508 -148.87625039 35.97420508 -147 33 C-146.34 33 -145.68 33 -145 33 C-145 32.34 -145 31.68 -145 31 C-144.34 31 -143.68 31 -143 31 C-143 30.34 -143 29.68 -143 29 C-122.22248343 9.26738755 -99.97601964 2.2006148 -72.05761719 2.86376953 C-56.90665155 3.53881255 -42.51256766 8.4434484 -30 17 C-29.38769531 17.40347656 -28.77539062 17.80695312 -28.14453125 18.22265625 C-18.6403856 25.33445402 -12.7854197 37.78137589 -10 49 C-9.66548828 50.30130859 -9.66548828 50.30130859 -9.32421875 51.62890625 C-5.00078492 71.36376406 -8.98824367 92.54329432 -19.25 109.8125 C-26.24250076 120.15839359 -37.17442389 128.26866119 -49.6328125 130.75 C-63.37817768 132.20165573 -77.47908956 131.2808425 -88.9765625 122.75390625 C-97.27518271 115.5607007 -103.31211071 106.75155717 -106 96 C-106.02709111 94.00018349 -106.03038323 91.9997692 -106 90 C-104.98679688 90.27714844 -103.97359375 90.55429688 -102.9296875 90.83984375 C-101.57816606 91.20588081 -100.22660124 91.57175772 -98.875 91.9375 C-97.87726563 92.21110352 -97.87726563 92.21110352 -96.859375 92.49023438 C-84.20715629 95.90137177 -68.88541737 97.74756533 -57 91 C-54.40005897 88.834795 -54.40005897 88.834795 -53 86 C-52.4225 85.030625 -51.845 84.06125 -51.25 83.0625 C-47.78501714 74.34292776 -49.44744121 63.4333265 -53 55 C-53.95289657 53.30596166 -54.93360356 51.62498505 -56 50 C-56 49.34 -56 48.68 -56 48 C-56.66 48 -57.32 48 -58 48 C-58 47.34 -58 46.68 -58 46 C-69.75671142 40.00433786 -81.50697901 39.17675763 -94.125 43.0625 C-112.75443242 49.27830773 -127.73276933 60.27257923 -136.80078125 77.7421875 C-139.45002146 84.93914625 -139.1475626 91.72794404 -137.875 99.1875 C-137.73811768 100.01048584 -137.60123535 100.83347168 -137.46020508 101.68139648 C-134.61342545 117.63854937 -128.11681287 133.68493933 -114.53125 143.3671875 C-103.34509467 150.58294819 -91.76211675 155.32875041 -79 159 C-78.07574219 159.268125 -77.15148437 159.53625 -76.19921875 159.8125 C-57.82590428 164.2591509 -38.86319323 159.64008734 -23 150 C0.30285111 133.75861892 11.48007284 108.84829148 18 82 C18.37318359 80.49566406 18.37318359 80.49566406 18.75390625 78.9609375 C23.4840797 56.0047111 19.86609727 30.63028613 7.25 10.8125 C6.67765625 9.97332031 6.1053125 9.13414063 5.515625 8.26953125 C4.15429386 6.23104313 3.03924098 4.21602856 2 2 C1.34 2 0.68 2 0 2 C0 1.34 0 0.68 0 0 Z " fill="#000000" transform="translate(337,0)"/>
<path d="M0 0 C4.02665507 3.76060822 6.985445 7.71851806 10 12.3125 C15.8279913 20.97894818 22.2862525 29.00975177 29 37 C29.52271484 37.62712891 30.04542969 38.25425781 30.58398438 38.90039062 C37.05463622 46.65380658 43.74284028 53.96923347 51 61 C55.5751634 65.56823133 55.5751634 65.56823133 57.67578125 67.703125 C69.80603022 79.16751305 85.90490771 84.51462615 101.18359375 90.36328125 C126.06301746 99.90423574 150.01339525 111.74680673 167 133 C167.52851563 133.65613281 168.05703125 134.31226563 168.6015625 134.98828125 C193.94285552 168.79668876 203.84360724 217.4854999 205 259 C205.85223145 258.97280884 205.85223145 258.97280884 206.72167969 258.94506836 C250.78459177 258.1767334 304.80607132 273.15080307 338 303 C338 303.66 338 304.32 338 305 C338.56332031 305.22171875 339.12664062 305.4434375 339.70703125 305.671875 C357.5891568 316.02949457 366.60899561 344.65464715 373.42944336 362.56591797 C384.3524208 391.24495472 398.85045086 412.8004465 423.390625 431.94921875 C425.8153917 433.85491114 428.14590901 435.84360311 430.47094727 437.86889648 C438.25134063 444.62049723 446.53898655 450.60103113 454.94433594 456.54589844 C457.97057102 458.68654644 460.98472084 460.84395606 464 463 C461.10079043 465.89920957 457.84922804 465.73070041 453.9375 466.125 C453.13111084 466.2077417 452.32472168 466.2904834 451.49389648 466.37573242 C425.0830164 468.88356753 397.12366751 465.56974863 375.7734375 448.49609375 C361.10168104 436.0795893 351.89827554 418.73465364 348 400 C347.94046168 398.0008864 347.92162887 395.9984639 348 394 C347.34 394 346.68 394 346 394 C345.77570313 394.83015625 345.55140625 395.6603125 345.3203125 396.515625 C343.71609664 400.74923609 341.47781312 404.072284 338.875 407.75 C338.3814502 408.45592285 337.88790039 409.1618457 337.37939453 409.88916016 C330.85787773 419.14120493 323.7112032 427.71557461 316 436 C315.36449219 436.68964844 314.72898437 437.37929688 314.07421875 438.08984375 C299.00379527 453.84670474 278.02049629 466.37277243 255.828125 467.203125 C234.17705157 467.57462429 211.35970553 464.5864307 194.49609375 449.5859375 C181.55085017 435.86330331 176.40669167 418.12058548 176.58276367 399.55029297 C177.1748802 383.02706634 182.28960869 364.79732373 194.09765625 352.66796875 C206.65199941 341.66036192 219.42881739 337.95479926 236 339 C248.76722124 341.00672908 258.63109935 345.89691676 266.62109375 356.0625 C271.44397426 362.79769473 275.39487091 370.55583737 275 379 C273.52056973 378.70967339 272.04147377 378.41764321 270.5625 378.125 C269.73878906 377.96257812 268.91507812 377.80015625 268.06640625 377.6328125 C266.36927339 377.28257616 264.67421395 376.91826611 262.9934082 376.49658203 C252.18992288 373.8518489 238.05019137 372.6241105 227.84765625 377.734375 C222.86297982 381.14882566 220.61982678 385.20383722 219 391 C217.91699944 401.28850532 218.89784645 412.97094316 225.25 421.5625 C232.45795225 427.95136676 239.88609203 429.37879092 249.3046875 429.2734375 C266.80283807 427.97864835 282.03791186 419.30823319 295 408 C295.33 407.34 295.66 406.68 296 406 C296.66 406 297.32 406 298 406 C298.4021875 405.14921875 298.4021875 405.14921875 298.8125 404.28125 C300.05649647 401.8914673 301.5060792 399.7408812 303 397.5 C310.53197244 384.76782054 307.40478153 371.91575116 304.11328125 358.34375 C299.38865213 341.59822906 290.83028136 330.80423574 276 322 C257.1007664 311.50156271 234.8931401 305.33517465 213.4375 310.5 C191.03792276 317.34101617 175.12717593 331.33795694 163.66015625 351.73828125 C158.43271006 362.00867552 154.76030581 372.82382848 152 384 C151.69964844 385.18464844 151.39929688 386.36929687 151.08984375 387.58984375 C145.68837221 411.93415037 148.14917024 437.40695391 161 459 C163.05877475 461.91309624 165.17856065 464.63405366 167.53125 467.3125 C169 469 169 469 169 470 C152.22120518 470.77540002 138.53613611 467.56515374 125.4074707 456.41235352 C113.74044627 444.70485372 113.09039847 424.31807541 112.4375 408.9375 C112.39431641 407.97650391 112.35113281 407.01550781 112.30664062 406.02539062 C112.20178868 403.68369723 112.09962212 401.34192071 112 399 C111.33355469 399.87140625 110.66710937 400.7428125 109.98046875 401.640625 C103.68683859 409.80283892 97.12833081 417.55321349 90 425 C89.45972168 425.57282715 88.91944336 426.1456543 88.36279297 426.73583984 C68.22272251 448.01428711 45.17485801 457.82850202 16.75 463.375 C15.89325684 463.54281982 15.03651367 463.71063965 14.15380859 463.88354492 C9.02007335 464.81929265 4.21717477 465.15627482 -1 465 C-2.05839965 438.15513626 9.12822207 406.07383628 27 386 C28.2684375 384.55173828 28.2684375 384.55173828 29.5625 383.07421875 C40.48022334 370.7753258 52.85928679 360.80981902 66 351 C65.00742188 351.01160156 64.01484375 351.02320313 62.9921875 351.03515625 C43.93745351 351.19583605 23.8086909 351.1559252 8 339 C8 338.34 8 337.68 8 337 C7.34 337 6.68 337 6 337 C-2.67927562 327.14496044 -6.21251196 315.60006823 -6.0625 302.6875 C-6.05798828 301.94693359 -6.05347656 301.20636719 -6.04882812 300.44335938 C-6.03712175 298.62887101 -6.01918898 296.81442466 -6 295 C-5.51273437 295.3403125 -5.02546875 295.680625 -4.5234375 296.03125 C19.34741135 312.3502303 43.90145361 318.86913112 72.93432617 313.92358398 C98.84790963 308.76264124 125.82283804 296.69422876 142 275 C153.25064741 258.09383931 157.79214297 239.09263921 153.875 219 C150.62091154 205.63390768 145.50703075 191.05906105 136.7890625 180.26171875 C135 178 135 178 135 176 C134.34 176 133.68 176 133 176 C132.34 175.319375 131.68 174.63875 131 173.9375 C118.28497838 160.96523806 99.6881928 156.83876798 82.05859375 155.83203125 C71.70636787 156.28068309 61.88885452 162.57190051 55 170 C42.38065995 184.37924801 34.19172601 201.14640646 34.64453125 220.66015625 C35.37997541 227.57009862 37.96037938 234.10436854 43 239 C51.71940227 245.10358159 62.56964336 246.23836548 73 245 C78.24498563 243.35962195 81.93127207 241.25575531 85.5 237.0625 C88.29141716 231.36335663 89.3604597 226.39172692 89.3125 220.0625 C89.30976074 219.32467285 89.30702148 218.5868457 89.30419922 217.82666016 C89.11931432 207.88750318 86.78140959 198.50516496 84 189 C94.73954326 189.18516454 105.54212574 194.56969305 113.2578125 202.00390625 C122.73341456 212.86048171 125.63006831 224.09533867 125.28125 238.32421875 C124.23556607 251.99072672 118.83747239 262.19852929 108.953125 271.609375 C93.58053277 284.05385442 73.45026435 288.31363441 54 287 C37.54721011 284.89999566 22.63525761 279.22992867 11.78125 266.3515625 C-2.70143325 247.23187978 -4.64480545 222.12488017 -3 199 C-0.67192467 183.42895213 8.40865694 170.05566225 18 158 C18.70769531 157.0615625 19.41539063 156.123125 20.14453125 155.15625 C20.75683594 154.4446875 21.36914062 153.733125 22 153 C22.66 153 23.32 153 24 153 C24 152.34 24 151.68 24 151 C24.66 151 25.32 151 26 151 C26 150.34 26 149.68 26 149 C26.66 149 27.32 149 28 149 C28.33 148.01 28.66 147.02 29 146 C29.66 146 30.32 146 31 146 C31 145.34 31 144.68 31 144 C37.13605074 138.09371327 44.37123126 133.18607195 51.25 128.1875 C52.00587402 127.63666748 52.76174805 127.08583496 53.54052734 126.51831055 C65.38429276 118 65.38429276 118 69 118 C69 117.34 69 116.68 69 116 C67.2365625 115.9071875 67.2365625 115.9071875 65.4375 115.8125 C45.72388095 113.55332545 27.42027591 102.24072816 14.76953125 87.296875 C1.17992758 69.65738944 -3.20585032 48.5685261 -3.1875 26.75 C-3.18741943 25.84338623 -3.18733887 24.93677246 -3.18725586 24.00268555 C-3.03639769 6.07279538 -3.03639769 6.07279538 0 0 Z " fill="#000000" transform="translate(6,42)"/>
</svg>
