<?xml version="1.0" encoding="UTF-8"?>
<svg version="1.1" xmlns="http://www.w3.org/2000/svg" width="512" height="512">
<path d="M0 0 C11.07356278 6.73973677 17.86499375 18.82259758 21.3125 31.125 C23.49859106 42.85421933 22.31768817 54.64481729 19 66 C20.485 65.505 20.485 65.505 22 65 C31.49981353 64.21901803 40.2237061 65.12391156 49 69 C50.86328125 70.63671875 50.86328125 70.63671875 52 72 C51.38253906 72.88558594 50.76507813 73.77117187 50.12890625 74.68359375 C37.51010943 93.02816649 23.38986634 116.01865099 23.875 139.0625 C23.89304687 140.18785156 23.91109375 141.31320313 23.9296875 142.47265625 C23.96449219 143.72369141 23.96449219 143.72369141 24 145 C24.47308594 144.40574219 24.94617188 143.81148437 25.43359375 143.19921875 C26.84613023 141.42872956 28.26178884 139.66072906 29.6796875 137.89453125 C31.12990523 136.08542125 32.57371621 134.27113486 34.0078125 132.44921875 C40.8650596 123.85810498 48.40523849 115.93702911 56 108 C56.77730469 107.18015625 57.55460937 106.3603125 58.35546875 105.515625 C62.99989257 100.7275592 68.03746307 96.50870251 73.26708984 92.37353516 C74.51334806 91.38572891 75.75536571 90.39256392 76.99462891 89.39599609 C84.84478027 83.0862787 92.74278223 76.90678139 101.25 71.5 C101.82580811 71.1275415 102.40161621 70.75508301 102.99487305 70.37133789 C115.25148152 62.82607981 128.94927065 59.05153731 142.65988159 55.13555908 C165.70719007 48.53071401 188.40754082 41.57024358 209.64453125 30.24316406 C212.54060002 28.71468332 215.45734236 27.22903806 218.375 25.7421875 C230.16224265 19.71633353 241.81278726 13.56646415 253.1328125 6.6953125 C256 5 256 5 257 5 C258.39574972 34.3107441 245.50407952 64.74926529 226.125 86.2421875 C203.44475414 110.42913644 172.55726877 120.12629629 141 127 C141.95519531 127.4846875 142.91039062 127.969375 143.89453125 128.46875 C152.13207005 132.71372423 159.66127663 137.29968929 167 143 C167.88300781 143.65613281 168.76601563 144.31226563 169.67578125 144.98828125 C174.39189768 148.53086949 174.39189768 148.53086949 176 150 C176 150.66 176 151.32 176 152 C176.59425781 152.25910156 177.18851562 152.51820313 177.80078125 152.78515625 C181.72358826 154.95210648 184.16854414 158.59103928 187 162 C187.68191406 162.78375 188.36382812 163.5675 189.06640625 164.375 C193.76405949 169.88780953 197.87055621 175.61793766 201.8125 181.6875 C202.26850586 182.3880249 202.72451172 183.0885498 203.19433594 183.81030273 C212.09849128 197.76200524 215.74818846 212.38982267 218.4453125 228.58984375 C218.60675342 229.55612041 218.60675342 229.55612041 218.77145576 230.5419178 C220.45118908 240.68253577 221.76170659 250.8342329 222.80859375 261.05859375 C222.87729361 261.72921341 222.94599346 262.39983307 223.01677513 263.09077454 C223.64201397 269.23797716 224.24085005 275.3876999 224.83129883 281.53833008 C227.35410928 307.68655559 231.60498778 333.20452612 238.375 358.625 C238.90974349 360.64670992 239.44140777 362.66907501 239.9659729 364.69345093 C240.42413382 366.4596826 240.8920634 368.2233725 241.36083984 369.98681641 C241.95119316 372.76991063 242.12970436 375.16823112 242 378 C229.83962209 371.89499395 218.99381206 364.22626356 209.0859375 354.91015625 C207.03942561 352.95975762 207.03942561 352.95975762 204.7265625 351.37109375 C203.87191406 350.69240234 203.87191406 350.69240234 203 350 C203 349.34 203 348.68 203 348 C202.42507813 347.76796875 201.85015625 347.5359375 201.2578125 347.296875 C188.70198147 340.08487517 178.70264842 319.50787111 172 307 C171.40445312 305.89140625 170.80890625 304.7828125 170.1953125 303.640625 C163.83747576 291.37706436 158.52780112 278.37204616 155 265 C152.83699854 264.76565779 152.83699854 264.76565779 151.29296875 266.6875 C150.59816406 267.450625 149.90335937 268.21375 149.1875 269 C137.42507681 280.98898672 121.75363281 287.55567929 105.02197266 288.05957031 C89.64360467 288.13957128 74.46837974 284.89207925 63 274 C56.648922 267.04405743 53.70386966 258.871374 51 250 C50.69642578 249.00419922 50.69642578 249.00419922 50.38671875 247.98828125 C47.82849817 234.83540978 51.71492577 222.44781377 58 211 C61.80152914 212.76070823 64.0615104 214.99317343 67 218 C73.80382574 224.62936867 82.35566031 230.04713316 92.0625 230.3125 C101.37930337 230.17747386 108.25181382 226.71276722 114.95703125 220.33984375 C122.68925144 211.48401222 125.54488655 201.55561991 125.3125 190.0234375 C124.38968215 181.09517479 119.68257841 173.35964197 113.1875 167.3125 C104.16418238 160.03563095 92.76336031 156.7415301 81.21875 157.08203125 C67.9189248 158.8618608 56.97765915 166.46450572 48 176 C47.67 176.66 47.34 177.32 47 178 C46.34 178 45.68 178 45 178 C44.74734375 178.54140625 44.4946875 179.0828125 44.234375 179.640625 C42.75148831 182.47500336 41.00249822 185.07370428 39.25 187.75 C25.33677558 209.81158153 25.74353017 232.24257137 30.7734375 257.02734375 C37.78022637 286.11515994 54.96150866 311.54639404 73.66015625 334.35595703 C75.53146808 336.65213303 77.35666465 338.98399711 79.1875 341.3125 C82.54148215 345.5119074 86.11053102 349.4791928 89.7265625 353.453125 C93.64302762 357.84064263 97.31037014 362.42179899 101 367 C101.97196009 368.18026114 102.94465248 369.3599195 103.91796875 370.5390625 C109.02165793 376.76362879 113.88550623 383.0424145 118.25 389.8125 C118.63285156 390.40522705 119.01570313 390.9979541 119.41015625 391.60864258 C122 395.73287175 122 395.73287175 122 398 C117.83429326 398.23402847 113.67028954 398.37498061 109.5 398.5 C108.32695312 398.56703125 107.15390625 398.6340625 105.9453125 398.703125 C97.33494492 398.89661641 97.33494492 398.89661641 93.48535156 396.31103516 C91.46751361 394.30292954 89.72583306 392.26072492 88 390 C86.92385144 388.78526347 85.84155049 387.57591552 84.75 386.375 C83.4962666 384.91987503 82.24682547 383.46104838 81 382 C80.11741203 380.96985967 79.23458026 379.9399282 78.3515625 378.91015625 C76.84228406 377.14996311 75.33371557 375.38918829 73.82739258 373.62646484 C71.14274972 370.48712795 68.44602887 367.35973405 65.72265625 364.25390625 C59.03057063 356.6157565 52.55605588 348.86558403 46.38134766 340.80224609 C45.44726531 339.58354764 44.50932707 338.36779645 43.56787109 337.15478516 C29.22371194 318.66303274 16.6326635 298.98300287 6.5 277.875 C6.16121826 277.17608643 5.82243652 276.47717285 5.47338867 275.75708008 C3.64129328 271.83889316 2.48771455 268.34878809 2 264 C1.34 264 0.68 264 0 264 C-0.06445312 264.76828125 -0.12890625 265.5365625 -0.1953125 266.328125 C-1.33197433 271.51483433 -3.56459469 275.98820086 -5.875 280.75 C-6.36895264 281.77134033 -6.86290527 282.79268066 -7.37182617 283.8449707 C-17.4245554 304.28387153 -30.43643758 323.50460445 -45 341 C-46.31536495 342.64354454 -47.6277783 344.28945489 -48.9375 345.9375 C-50.29041613 347.62600275 -51.6446192 349.31347502 -53 351 C-53.721875 351.89847656 -54.44375 352.79695313 -55.1875 353.72265625 C-59.60902741 359.18047915 -64.15826526 364.47792609 -68.88671875 369.671875 C-70.76337885 371.73932309 -72.60744573 373.82886604 -74.4375 375.9375 C-78.04751476 380.08481928 -81.75711411 384.138635 -85.47265625 388.19140625 C-87.91414998 390.74050265 -87.91414998 390.74050265 -89.17382812 392.88256836 C-90.64229087 395.06456046 -91.83548631 396.48771869 -94 398 C-98.48791987 398.85711635 -102.82728894 398.66168294 -107.375 398.4375 C-108.58800781 398.40591797 -109.80101562 398.37433594 -111.05078125 398.34179688 C-114.03634184 398.25951765 -117.0169161 398.14460933 -120 398 C-114.23531834 378.14714224 -93.69484231 360.26207308 -80.3359375 344.9453125 C-68.42896502 331.20007059 -57.38162242 316.58820245 -48 301 C-47.63213379 300.40364746 -47.26426758 299.80729492 -46.88525391 299.19287109 C-31.42555201 274.00586422 -21.07545888 242.19499887 -26.6484375 212.55078125 C-31.24321213 194.066298 -42.64848988 175.2904067 -59 165 C-71.10268432 157.8416035 -81.23538504 155.67868744 -95 159 C-105.80638578 162.20528392 -114.16091641 168.48589505 -120.2578125 177.953125 C-124.52321808 186.00668799 -124.15149216 195.59387711 -121.875 204.25 C-118.40066559 214.09125421 -112.85132394 222.15824265 -103.65234375 227.31640625 C-95.73043172 230.919558 -88.01353981 231.36404667 -79.8125 228.375 C-75.00541658 226.2232579 -71.04384139 223.33820464 -67 220 C-66.0925 219.319375 -65.185 218.63875 -64.25 217.9375 C-61.86428043 216.00513614 -61.86428043 216.00513614 -59.8125 213.25 C-59.214375 212.5075 -58.61625 211.765 -58 211 C-57.34 211 -56.68 211 -56 211 C-48.64654097 224.39899057 -45.32319193 237.67007373 -49.6875 252.75 C-54.54075425 266.78000612 -60.70256054 275.89692585 -74 283 C-90.78545941 289.43750037 -109.62094664 289.81546242 -126.3828125 283.18359375 C-136.48550693 278.61476329 -144.26117398 271.83836076 -152 264 C-153.81273087 268.08783947 -155.41031791 272.12803843 -156.78564453 276.38842773 C-164.99402068 301.40399205 -178.06856217 324.69582052 -196 344 C-196.56058105 344.60440918 -197.12116211 345.20881836 -197.69873047 345.83154297 C-209.89706212 358.82520187 -223.48447663 369.23799732 -239 378 C-239.33 378 -239.66 378 -240 378 C-239.41484943 371.29118068 -238.11276077 365.11941337 -236.375 358.625 C-235.22681789 354.08896327 -234.10972315 349.5455848 -233 345 C-232.71817871 343.8553125 -232.43635742 342.710625 -232.14599609 341.53125 C-226.52806091 318.06905473 -224.05232047 294.28537909 -221.76983356 270.31371117 C-220.42929705 256.24395087 -218.90977793 242.27529107 -216.5390625 228.3359375 C-216.3472641 227.19589264 -216.1554657 226.05584778 -215.95785522 224.8812561 C-211.72303576 201.15662018 -202.0609509 182.52696444 -187 164 C-186.55849609 163.43812988 -186.11699219 162.87625977 -185.66210938 162.29736328 C-184.48683349 160.82740805 -183.24775252 159.40895545 -182 158 C-181.34 158 -180.68 158 -180 158 C-179.7628125 157.4328125 -179.525625 156.865625 -179.28125 156.28125 C-174.78915306 148.28312618 -165.40820171 142.69287015 -157.9375 137.6875 C-157.20660156 137.19636719 -156.47570312 136.70523438 -155.72265625 136.19921875 C-150.35394409 132.6837631 -144.78902554 129.76210381 -139 127 C-139.77375977 126.82984375 -140.54751953 126.6596875 -141.34472656 126.484375 C-157.44249767 122.89755311 -172.99554697 119.0334439 -188 112 C-188.68723145 111.67918457 -189.37446289 111.35836914 -190.08251953 111.02783203 C-208.51286204 102.23467855 -225.1994799 88.45122205 -236 71 C-236.55816406 70.17113281 -237.11632812 69.34226562 -237.69140625 68.48828125 C-249.10798878 50.58442364 -256.40986315 26.2954911 -255 5 C-254.35530762 5.35191406 -253.71061523 5.70382813 -253.04638672 6.06640625 C-251.1128518 7.12149993 -249.17907224 8.17614535 -247.24511719 9.23046875 C-245.14100838 10.37781909 -243.03745773 11.52619386 -240.93457031 12.67578125 C-212.59335195 28.13947518 -184.78742104 41.62468797 -153.83203125 51.125 C-152.46003319 51.54693886 -152.46003319 51.54693886 -151.06031799 51.97740173 C-146.46418943 53.38981271 -141.86550133 54.79182814 -137.2590332 56.17016602 C-128.94402785 58.6789801 -120.74449112 61.3275598 -112.6953125 64.6015625 C-112.02883698 64.87017593 -111.36236145 65.13878937 -110.6756897 65.4155426 C-103.14275814 68.58317107 -96.55028624 73.16699013 -90 78 C-89.42765625 78.42216797 -88.8553125 78.84433594 -88.265625 79.27929688 C-84.45342971 82.11658443 -80.71863629 85.04134208 -77 88 C-76.10023438 88.70511719 -75.20046875 89.41023438 -74.2734375 90.13671875 C-54.29690314 106.07669676 -37.5244852 124.78322667 -22 145 C-20.32966607 120.50176905 -33.19189808 98.09179001 -45.77246094 78.03173828 C-47.35014279 75.42046772 -48.69850339 72.75793329 -50 70 C-39.39980696 66.14538435 -28.24531671 62.2515611 -17 66 C-17.2165625 65.35417969 -17.433125 64.70835938 -17.65625 64.04296875 C-22.15931318 48.80343548 -21.44156764 33.22147109 -14.4921875 18.890625 C-10.57963167 11.72063896 -5.68913453 5.83104038 0 0 Z " fill="#000000" transform="translate(255,57)"/>
</svg>
